<svg width="325" height="94" viewBox="0 0 325 94" fill="none" xmlns="http://www.w3.org/2000/svg">
<rect x="0.5" width="324" height="93.9997" rx="8" fill="#462369"/>
<path d="M73.9921 47.7066C74.0193 45.7451 74.5811 43.822 75.625 42.116C76.669 40.41 78.1612 38.9766 79.9629 37.9493C78.8183 36.4332 77.3084 35.1855 75.553 34.3053C73.7975 33.4251 71.845 32.9366 69.8505 32.8788C65.5958 32.4645 61.471 35.2401 59.3029 35.2401C57.0928 35.2401 53.7547 32.9199 50.16 32.9885C47.8349 33.0581 45.5689 33.6852 43.5828 34.8087C41.5966 35.9321 39.9582 37.5136 38.8269 39.3989C33.9267 47.2677 37.5818 58.8321 42.2758 65.1926C44.6243 68.3072 47.369 71.7863 50.9604 71.6629C54.4748 71.5277 55.7874 69.5844 60.0296 69.5844C64.2324 69.5844 65.4639 71.6629 69.1281 71.5844C72.8993 71.5277 75.2752 68.456 77.5413 65.312C79.2287 63.0927 80.5272 60.64 81.3886 58.0446C79.1977 57.1851 77.328 55.7465 76.0127 53.9081C74.6974 52.0698 73.9946 49.9129 73.9921 47.7066Z" fill="white"/>
<path d="M67.0735 28.6955C69.1297 26.4062 70.1427 23.4636 69.8974 20.4926C66.756 20.7986 63.8542 22.1911 61.7703 24.3927C60.7514 25.4682 59.971 26.7194 59.4738 28.0748C58.9765 29.4302 58.7722 30.8632 58.8725 32.2919C60.4437 32.3069 61.9982 31.9911 63.4187 31.3681C64.8393 30.7452 66.0889 29.8314 67.0735 28.6955Z" fill="white"/>
<path d="M118.414 63.7781H106.421L103.541 71.6657H98.4609L109.821 42.4835H115.098L126.458 71.6657H121.291L118.414 63.7781ZM107.663 60.1384H117.169L112.483 47.3373H112.352L107.663 60.1384Z" fill="white"/>
<path d="M150.991 61.0288C150.991 67.6405 147.176 71.8883 141.418 71.8883C139.959 71.9591 138.509 71.6475 137.232 70.9891C135.956 70.3308 134.905 69.3524 134.2 68.1659H134.091V78.7042H129.383V50.3896H133.941V53.9283H134.027C134.764 52.7475 135.833 51.7742 137.119 51.1119C138.405 50.4495 139.861 50.123 141.331 50.1669C147.153 50.167 150.991 54.4355 150.991 61.0288ZM146.151 61.0288C146.151 56.7213 143.751 53.8893 140.089 53.8893C136.492 53.8893 134.072 56.7809 134.072 61.0288C134.072 65.3157 136.492 68.1866 140.089 68.1866C143.751 68.1866 146.151 65.3754 146.151 61.0288Z" fill="white"/>
<path d="M176.237 61.0288C176.237 67.6404 172.422 71.8883 166.664 71.8883C165.206 71.9591 163.755 71.6474 162.479 70.9891C161.202 70.3308 160.151 69.3524 159.446 68.1659H159.338V78.7042H154.629V50.3895H159.187V53.9283H159.273C160.01 52.7475 161.079 51.7742 162.365 51.1118C163.651 50.4495 165.107 50.123 166.577 50.1669C172.4 50.1669 176.237 54.4355 176.237 61.0288ZM171.397 61.0288C171.397 56.7212 168.997 53.8893 165.335 53.8893C161.738 53.8893 159.318 56.7809 159.318 61.0288C159.318 65.3157 161.738 68.1866 165.335 68.1866C168.997 68.1866 171.397 65.3753 171.397 61.0288H171.397Z" fill="white"/>
<path d="M192.926 63.5348C193.274 66.4287 196.306 68.3288 200.447 68.3288C204.416 68.3288 207.272 66.4286 207.272 63.8193C207.272 61.5542 205.55 60.198 201.472 59.2685L197.394 58.3574C191.617 57.0631 188.934 54.557 188.934 50.4904C188.934 45.4554 193.665 41.9969 200.383 41.9969C207.032 41.9969 211.589 45.4554 211.743 50.4904H206.99C206.705 47.5782 204.109 45.8203 200.316 45.8203C196.523 45.8203 193.928 47.5989 193.928 50.1875C193.928 52.2506 195.585 53.4647 199.641 54.394L203.107 55.1835C209.563 56.5994 212.245 59.0045 212.245 63.273C212.245 68.7326 207.556 72.152 200.099 72.152C193.121 72.152 188.41 68.8129 188.105 63.5346L192.926 63.5348Z" fill="white"/>
<path d="M222.41 45.3542V50.3892H226.772V53.8477H222.41V65.577C222.41 67.3991 223.283 68.2483 225.201 68.2483C225.719 68.2399 226.236 68.2062 226.75 68.1472V71.585C225.888 71.7344 225.012 71.8021 224.135 71.787C219.49 71.787 217.679 70.169 217.679 66.0428V53.8477H214.344V50.3892H217.679V45.3542H222.41Z" fill="white"/>
<path d="M229.297 61.0285C229.297 54.3342 233.548 50.1276 240.176 50.1276C246.827 50.1276 251.058 54.3341 251.058 61.0285C251.058 67.7411 246.85 71.9293 240.176 71.9293C233.506 71.9293 229.297 67.7411 229.297 61.0285ZM246.261 61.0285C246.261 56.4363 243.992 53.726 240.176 53.726C236.361 53.726 234.095 56.457 234.095 61.0285C234.095 65.6389 236.361 68.3286 240.176 68.3286C243.992 68.3286 246.261 65.6389 246.261 61.0285H246.261Z" fill="white"/>
<path d="M254.938 50.3894H259.428V54.0107H259.537C259.841 52.8797 260.556 51.8802 261.56 51.1801C262.565 50.4801 263.799 50.1222 265.055 50.1667C265.598 50.165 266.139 50.2196 266.668 50.3297V54.4146C265.983 54.2205 265.269 54.1313 264.553 54.1507C263.869 54.125 263.187 54.2368 262.554 54.4786C261.921 54.7204 261.352 55.0864 260.885 55.5514C260.419 56.0165 260.067 56.5696 259.853 57.1727C259.639 57.7759 259.569 58.4149 259.646 59.0457V71.6655H254.938L254.938 50.3894Z" fill="white"/>
<path d="M288.376 65.4163C287.743 69.2787 283.687 71.9293 278.499 71.9293C271.826 71.9293 267.684 67.7824 267.684 61.1294C267.684 54.4558 271.848 50.1276 278.301 50.1276C284.647 50.1276 288.639 54.1713 288.639 60.6223V62.1185H272.437V62.3825C272.362 63.1655 272.468 63.9543 272.747 64.6965C273.026 65.4387 273.472 66.1174 274.056 66.6874C274.64 67.2573 275.347 67.7056 276.132 68.0024C276.917 68.2993 277.761 68.4378 278.608 68.4089C279.72 68.5056 280.837 68.2666 281.791 67.7274C282.746 67.1882 283.487 66.3777 283.905 65.4163L288.376 65.4163ZM272.459 59.0663H283.927C283.97 58.3623 283.855 57.6577 283.589 56.9969C283.324 56.336 282.915 55.7332 282.386 55.2261C281.858 54.7191 281.222 54.3188 280.519 54.0504C279.816 53.782 279.061 53.6512 278.301 53.6664C277.534 53.6621 276.774 53.7988 276.064 54.0684C275.355 54.3381 274.71 54.7354 274.167 55.2374C273.624 55.7394 273.193 56.3363 272.9 56.9935C272.607 57.6506 272.457 58.3551 272.459 59.0663V59.0663Z" fill="white"/>
<path d="M105.835 26.446H107.75C108.08 26.4862 108.414 26.459 108.733 26.3664C109.051 26.2737 109.346 26.1174 109.6 25.9074C109.854 25.6974 110.06 25.4382 110.207 25.1462C110.353 24.8542 110.436 24.5357 110.45 24.2107C110.45 22.9175 109.456 22.0822 107.771 22.0822C107.433 22.036 107.09 22.0565 106.76 22.1425C106.431 22.2286 106.122 22.3784 105.853 22.5831C105.583 22.7878 105.359 23.0433 105.192 23.3345C105.025 23.6257 104.919 23.9466 104.881 24.2784H102.779C102.815 23.6761 102.977 23.0876 103.256 22.5494C103.535 22.0112 103.923 21.5349 104.398 21.1502C104.873 20.7655 105.423 20.4806 106.015 20.3133C106.607 20.1459 107.228 20.0996 107.839 20.1774C110.659 20.1774 112.644 21.723 112.644 23.9479C112.651 24.6933 112.396 25.4183 111.922 26.002C111.449 26.5857 110.785 26.9927 110.042 27.1551V27.3203C110.923 27.3586 111.753 27.7367 112.349 28.3721C112.946 29.0075 113.262 29.8484 113.227 30.7111C113.162 31.3312 112.971 31.9324 112.666 32.4793C112.36 33.0263 111.946 33.508 111.448 33.8962C110.95 34.2845 110.378 34.5715 109.765 34.7404C109.152 34.9093 108.511 34.9567 107.879 34.8798C107.246 34.9643 106.602 34.9231 105.985 34.7587C105.369 34.5943 104.792 34.31 104.29 33.9229C103.788 33.5357 103.371 33.0535 103.064 32.505C102.756 31.9566 102.564 31.3531 102.5 30.7306H104.635C104.764 32.072 106.023 32.9372 107.879 32.9372C109.735 32.9372 110.947 31.9653 110.947 30.5953C110.947 29.2057 109.806 28.3497 107.811 28.3497H105.835V26.446Z" fill="white"/>
<path d="M115.656 31.5478C115.656 29.643 117.107 28.5449 119.676 28.3888L122.603 28.2236V27.3102C122.603 26.1926 121.851 25.5615 120.391 25.5615C119.2 25.5615 118.377 25.9895 118.138 26.7377H116.073C116.291 24.9201 118.04 23.7543 120.491 23.7543C123.201 23.7543 124.729 25.075 124.729 27.3102V34.5404H122.673V33.0533H122.505C122.162 33.5867 121.681 34.0216 121.111 34.3134C120.541 34.6053 119.901 34.7438 119.259 34.7147C118.805 34.7609 118.346 34.7135 117.913 34.5756C117.479 34.4376 117.079 34.2122 116.74 33.9138C116.4 33.6155 116.129 33.2508 115.942 32.8432C115.755 32.4357 115.658 31.9944 115.656 31.5478ZM122.603 30.6436V29.7589L119.964 29.9241C118.476 30.0217 117.801 30.5174 117.801 31.4502C117.801 32.4026 118.644 32.9568 119.805 32.9568C120.145 32.9906 120.488 32.957 120.814 32.858C121.141 32.7591 121.444 32.5969 121.705 32.3811C121.966 32.1653 122.18 31.9002 122.334 31.6017C122.489 31.3032 122.58 30.9774 122.603 30.6436Z" fill="white"/>
<path d="M130.383 25.7159V34.5398H128.25V23.9579H135.366V25.7157L130.383 25.7159Z" fill="white"/>
<path d="M148.291 29.245C148.291 32.607 146.555 34.7149 143.827 34.7149C143.157 34.7597 142.488 34.6162 141.899 34.3013C141.31 33.9864 140.825 33.5132 140.501 32.9375H140.332V38.0586H138.199V23.9587H140.252V25.7074H140.412C140.741 25.1116 141.233 24.6165 141.832 24.277C142.431 23.9374 143.114 23.7665 143.805 23.7832C146.555 23.7831 148.291 25.8818 148.291 29.245ZM146.098 29.245C146.098 27.0097 145.017 25.6592 143.21 25.6592C141.415 25.6592 140.292 27.0384 140.292 29.2542C140.292 31.4596 141.415 32.84 143.201 32.84C145.017 32.84 146.098 31.4894 146.098 29.245Z" fill="white"/>
<path d="M151.137 38.3299V36.5318C151.368 36.5605 151.6 36.5735 151.833 36.5708C152.287 36.6038 152.738 36.4713 153.099 36.1987C153.459 35.9262 153.705 35.5328 153.787 35.094L153.947 34.5788L150.035 23.9579H152.358L155.067 32.3631H155.236L157.936 23.9579H160.198L156.169 34.977C155.245 37.5519 154.224 38.3781 152.02 38.3781C151.842 38.378 151.336 38.3585 151.137 38.3299Z" fill="white"/>
<path d="M161.859 31.5377H163.983C164.191 32.4707 165.084 32.9571 166.334 32.9571C167.754 32.9571 168.626 32.3444 168.626 31.392C168.626 30.3719 167.843 29.8854 166.334 29.8854H164.716V28.2629H166.305C167.594 28.2629 168.251 27.7775 168.251 26.8929C168.251 26.116 167.616 25.5228 166.305 25.5228C165.112 25.5228 164.241 26.0185 164.102 26.8539H162.047C162.201 25.894 162.733 25.0315 163.529 24.4519C164.326 23.8723 165.322 23.6219 166.305 23.7546C168.874 23.7546 170.344 24.8917 170.344 26.6795C170.356 27.1773 170.193 27.6641 169.882 28.0584C169.572 28.4527 169.132 28.7307 168.637 28.8459V29.0111C169.227 29.0855 169.767 29.369 170.157 29.8079C170.547 30.2468 170.758 30.8105 170.752 31.3921C170.752 33.4037 169.003 34.7346 166.334 34.7346C163.973 34.7345 162.056 33.6754 161.859 31.5377Z" fill="white"/>
<path d="M173.82 34.5398V23.9579H175.934V31.2363H176.103L181.084 23.958H183.198V34.5398H181.084V27.2225H180.924L175.934 34.5398L173.82 34.5398Z" fill="white"/>
<path d="M194.848 25.7157H191.445V34.5397H189.309V25.7157H185.906V23.9579H194.848V25.7157Z" fill="white"/>
<path d="M206.333 31.6834C206.042 32.6505 205.414 33.4868 204.557 34.0464C203.701 34.606 202.671 34.8531 201.648 34.7448C200.936 34.7632 200.228 34.6297 199.574 34.3535C198.92 34.0773 198.335 33.6651 197.86 33.1454C197.385 32.6257 197.032 32.011 196.823 31.3441C196.615 30.6771 196.558 29.9738 196.655 29.2829C196.561 28.5899 196.619 27.8851 196.827 27.2161C197.034 26.5471 197.386 25.9296 197.859 25.4054C198.331 24.8812 198.913 24.4625 199.565 24.1776C200.217 23.8928 200.924 23.7485 201.638 23.7544C204.645 23.7544 206.462 25.766 206.462 29.0889V29.8177H198.83V29.9347C198.797 30.3231 198.846 30.7141 198.976 31.0827C199.106 31.4512 199.313 31.7891 199.584 32.0746C199.855 32.3601 200.184 32.5869 200.55 32.7405C200.916 32.894 201.311 32.9709 201.709 32.9662C202.218 33.0259 202.735 32.9358 203.192 32.7074C203.65 32.4789 204.027 32.1225 204.277 31.6833L206.333 31.6834ZM198.83 28.2732H204.287C204.314 27.9182 204.264 27.5616 204.142 27.2264C204.02 26.8911 203.828 26.5846 203.578 26.3264C203.327 26.0683 203.025 25.8642 202.689 25.7274C202.353 25.5906 201.992 25.524 201.629 25.5319C201.26 25.527 200.894 25.5945 200.552 25.7306C200.21 25.8666 199.899 26.0684 199.638 26.3239C199.378 26.5795 199.172 26.8836 199.033 27.2184C198.894 27.5532 198.825 27.9119 198.83 28.2732H198.83Z" fill="white"/>
<path d="M215.379 23.9579H220.252C222.366 23.9579 223.605 25.0067 223.605 26.6487C223.609 27.1697 223.429 27.676 223.097 28.0829C222.764 28.4898 222.299 28.7726 221.78 28.8839V29.0492C222.411 29.0882 223.003 29.3631 223.433 29.8171C223.863 30.2711 224.098 30.8695 224.091 31.4887C224.091 33.3349 222.673 34.5397 220.301 34.5397H215.379V23.9579ZM217.493 25.5609V28.301H219.607C220.896 28.301 221.512 27.8157 221.512 26.9207C221.512 26.0956 220.976 25.5609 219.844 25.5609L217.493 25.5609ZM217.493 29.8364V32.9368H220.022C221.283 32.9368 221.958 32.3918 221.958 31.3912C221.958 30.3321 221.194 29.8364 219.755 29.8364L217.493 29.8364Z" fill="white"/>
</svg>
