<svg width="116" height="34" viewBox="0 0 116 34" fill="none" xmlns="http://www.w3.org/2000/svg">
<rect y="0.00012207" width="116" height="34" rx="4" fill="#462369"/>
<path d="M22.8778 17.2857C22.8886 16.4928 23.1115 15.7153 23.5258 15.0257C23.9401 14.336 24.5322 13.7566 25.2472 13.3412C24.793 12.7283 24.1938 12.224 23.4972 11.8681C22.8006 11.5123 22.0258 11.3148 21.2343 11.2915C19.5459 11.124 17.9091 12.246 17.0488 12.246C16.1718 12.246 14.8471 11.3081 13.4206 11.3358C12.498 11.364 11.5988 11.6175 10.8106 12.0716C10.0225 12.5258 9.37228 13.1651 8.92339 13.9273C6.97887 17.1083 8.4293 21.7833 10.292 24.3546C11.2239 25.6136 12.3131 27.0201 13.7383 26.9702C15.1329 26.9155 15.6537 26.1299 17.3371 26.1299C19.0049 26.1299 19.4936 26.9702 20.9477 26.9385C22.4441 26.9155 23.387 25.6738 24.2862 24.4028C24.9558 23.5057 25.4711 22.5141 25.8129 21.4649C24.9435 21.1175 24.2016 20.5359 23.6796 19.7927C23.1577 19.0495 22.8788 18.1776 22.8778 17.2857Z" fill="white"/>
<path d="M20.1314 9.60039C20.9473 8.67489 21.3493 7.48532 21.252 6.2843C20.0054 6.40801 18.8539 6.97094 18.027 7.86093C17.6226 8.29571 17.313 8.80153 17.1156 9.34946C16.9183 9.89739 16.8372 10.4767 16.877 11.0543C17.5005 11.0603 18.1174 10.9326 18.6811 10.6808C19.2448 10.429 19.7407 10.0596 20.1314 9.60039Z" fill="white"/>
<path d="M40.5067 23.7828H35.7476L34.6047 26.9714H32.5889L37.0967 15.1743H39.191L43.6988 26.9714H41.6486L40.5067 23.7828ZM36.2405 22.3114H40.0129L38.1532 17.1365H38.1011L36.2405 22.3114Z" fill="white"/>
<path d="M53.4341 22.6714C53.4341 25.3442 51.9201 27.0614 49.6352 27.0614C49.0565 27.09 48.4808 26.964 47.9743 26.6979C47.4678 26.4318 47.0508 26.0362 46.7711 25.5566H46.7279V29.8168H44.8594V18.3704H46.668V19.801H46.7024C46.9949 19.3236 47.4189 18.9301 47.9293 18.6624C48.4397 18.3946 49.0174 18.2626 49.6009 18.2804C51.9112 18.2804 53.4341 20.006 53.4341 22.6714ZM51.5136 22.6714C51.5136 20.93 50.5611 19.7852 49.108 19.7852C47.6803 19.7852 46.72 20.9541 46.72 22.6714C46.72 24.4044 47.6803 25.565 49.108 25.565C50.5612 25.565 51.5136 24.4285 51.5136 22.6714Z" fill="white"/>
<path d="M63.4527 22.6714C63.4527 25.3442 61.9386 27.0614 59.6538 27.0614C59.075 27.09 58.4994 26.964 57.9929 26.6979C57.4863 26.4318 57.0694 26.0362 56.7897 25.5566H56.7464V29.8168H54.8779V18.3704H56.6865V19.8009H56.7209C57.0134 19.3236 57.4375 18.9301 57.9479 18.6624C58.4582 18.3946 59.0359 18.2626 59.6194 18.2804C61.9298 18.2804 63.4527 20.006 63.4527 22.6714ZM61.5321 22.6714C61.5321 20.93 60.5797 19.7852 59.1265 19.7852C57.6989 19.7852 56.7386 20.9541 56.7386 22.6714C56.7386 24.4044 57.6989 25.565 59.1265 25.565C60.5797 25.565 61.5321 24.4285 61.5321 22.6714H61.5321Z" fill="white"/>
<path d="M70.0748 23.6845C70.2133 24.8544 71.4161 25.6225 73.0597 25.6225C74.6347 25.6225 75.7677 24.8543 75.7677 23.7995C75.7677 22.8838 75.0844 22.3355 73.4662 21.9598L71.8481 21.5915C69.5554 21.0682 68.4911 20.0552 68.4911 18.4112C68.4911 16.3758 70.3684 14.9777 73.0342 14.9777C75.6725 14.9777 77.4811 16.3758 77.542 18.4112H75.6558C75.5429 17.2339 74.5129 16.5233 73.0077 16.5233C71.5025 16.5233 70.4725 17.2423 70.4725 18.2888C70.4725 19.1228 71.1303 19.6136 72.7396 19.9893L74.1152 20.3084C76.6769 20.8808 77.7413 21.8531 77.7413 23.5787C77.7413 25.7857 75.8806 27.1681 72.9213 27.1681C70.1524 27.1681 68.2829 25.8182 68.1621 23.6844L70.0748 23.6845Z" fill="white"/>
<path d="M81.7741 16.3348V18.3703H83.5052V19.7684H81.7741V24.51C81.7741 25.2467 82.1208 25.5899 82.8817 25.5899C83.0872 25.5865 83.2924 25.5729 83.4963 25.5491V26.9388C83.1542 26.9992 82.8065 27.0266 82.4585 27.0205C80.6155 27.0205 79.8968 26.3664 79.8968 24.6983V19.7684H78.5732V18.3703H79.8968V16.3348H81.7741Z" fill="white"/>
<path d="M84.5078 22.6713C84.5078 19.9651 86.1947 18.2645 88.8251 18.2645C91.4644 18.2645 93.1434 19.965 93.1434 22.6713C93.1434 25.3849 91.4732 27.078 88.8251 27.078C86.1779 27.078 84.5078 25.3849 84.5078 22.6713ZM91.2395 22.6713C91.2395 20.8149 90.3392 19.7192 88.8251 19.7192C87.3111 19.7192 86.4117 20.8232 86.4117 22.6713C86.4117 24.5351 87.3111 25.6224 88.8251 25.6224C90.3392 25.6224 91.2395 24.5351 91.2395 22.6713H91.2395Z" fill="white"/>
<path d="M94.6836 18.3703H96.4657V19.8343H96.5089C96.6295 19.377 96.913 18.973 97.3117 18.69C97.7105 18.407 98.2002 18.2623 98.6985 18.2803C98.9138 18.2796 99.1286 18.3017 99.3387 18.3462V19.9975C99.0669 19.9191 98.7833 19.883 98.4992 19.8909C98.2277 19.8805 97.9571 19.9257 97.7059 20.0234C97.4547 20.1212 97.2288 20.2691 97.0439 20.4571C96.8589 20.6451 96.7192 20.8687 96.6343 21.1125C96.5494 21.3564 96.5214 21.6147 96.5521 21.8697V26.9713H94.6836L94.6836 18.3703Z" fill="white"/>
<path d="M107.954 24.4451C107.702 26.0065 106.093 27.078 104.034 27.078C101.386 27.078 99.7422 25.4016 99.7422 22.7121C99.7422 20.0142 101.395 18.2645 103.955 18.2645C106.474 18.2645 108.058 19.8992 108.058 22.5071V23.1119H101.628V23.2186C101.599 23.5352 101.641 23.854 101.751 24.1541C101.862 24.4541 102.039 24.7285 102.271 24.9589C102.502 25.1893 102.783 25.3706 103.095 25.4905C103.406 25.6105 103.741 25.6665 104.077 25.6548C104.519 25.6939 104.962 25.5973 105.341 25.3793C105.719 25.1614 106.014 24.8337 106.179 24.4451L107.954 24.4451ZM101.637 21.878H106.188C106.205 21.5934 106.159 21.3086 106.054 21.0415C105.949 20.7743 105.786 20.5306 105.577 20.3256C105.367 20.1206 105.115 19.9588 104.836 19.8503C104.557 19.7418 104.257 19.689 103.955 19.6951C103.651 19.6934 103.35 19.7486 103.068 19.8576C102.786 19.9666 102.53 20.1272 102.315 20.3302C102.099 20.5331 101.929 20.7744 101.812 21.0401C101.696 21.3058 101.636 21.5906 101.637 21.8781V21.878Z" fill="white"/>
<path d="M35.5139 8.69114H36.2738C36.4046 8.70738 36.5373 8.69643 36.6637 8.65896C36.79 8.62148 36.9072 8.55831 37.0079 8.47342C37.1085 8.38852 37.1905 8.28375 37.2485 8.1657C37.3066 8.04765 37.3395 7.91889 37.3452 7.78752C37.3452 7.26475 36.9508 6.92705 36.2821 6.92705C36.1481 6.90837 36.0117 6.91667 35.881 6.95145C35.7502 6.98622 35.6278 7.04678 35.5209 7.12954C35.414 7.2123 35.3248 7.31559 35.2586 7.4333C35.1924 7.55101 35.1505 7.68076 35.1354 7.81489H34.3011C34.3154 7.57141 34.3799 7.33348 34.4904 7.11592C34.601 6.89836 34.7552 6.70583 34.9436 6.55031C35.1319 6.39479 35.3504 6.27961 35.5853 6.21195C35.8202 6.14429 36.0666 6.1256 36.3091 6.15703C37.4279 6.15703 38.2157 6.78185 38.2157 7.68129C38.2184 7.98261 38.1173 8.27572 37.9294 8.51167C37.7415 8.74763 37.4782 8.91216 37.1834 8.97781V9.0446C37.5329 9.06007 37.8621 9.21294 38.0989 9.4698C38.3358 9.72666 38.461 10.0666 38.4473 10.4153C38.4214 10.666 38.3457 10.9091 38.2244 11.1302C38.1032 11.3513 37.9389 11.546 37.7412 11.703C37.5436 11.8599 37.3165 11.9759 37.0733 12.0442C36.8301 12.1125 36.5756 12.1316 36.3249 12.1006C36.0737 12.1347 35.8181 12.1181 35.5734 12.0516C35.3288 11.9852 35.1 11.8702 34.9008 11.7137C34.7016 11.5572 34.5361 11.3623 34.414 11.1405C34.292 10.9188 34.2159 10.6749 34.1904 10.4232H35.0377C35.0889 10.9655 35.5883 11.3153 36.3249 11.3153C37.0615 11.3153 37.5424 10.9224 37.5424 10.3685C37.5424 9.80678 37.0894 9.46073 36.2979 9.46073H35.5139V8.69114Z" fill="white"/>
<path d="M39.4102 10.7535C39.4102 9.98346 39.9859 9.53955 41.0052 9.47646L42.1669 9.40966V9.04043C42.1669 8.58862 41.8683 8.33349 41.2889 8.33349C40.8164 8.33349 40.49 8.50652 40.3951 8.80896H39.5757C39.6622 8.07419 40.356 7.60291 41.3289 7.60291C42.404 7.60291 43.0104 8.13681 43.0104 9.04043V11.9633H42.1948V11.3621H42.1278C41.9919 11.5777 41.801 11.7535 41.5747 11.8715C41.3484 11.9895 41.0948 12.0455 40.8397 12.0337C40.6596 12.0524 40.4777 12.0333 40.3055 11.9775C40.1334 11.9217 39.9748 11.8306 39.8402 11.71C39.7055 11.5894 39.5976 11.4419 39.5236 11.2772C39.4495 11.1124 39.4109 10.934 39.4102 10.7535ZM42.1669 10.388V10.0303L41.1196 10.0971C40.529 10.1365 40.2611 10.3369 40.2611 10.7141C40.2611 11.0991 40.5959 11.3231 41.0564 11.3231C41.1913 11.3367 41.3275 11.3232 41.4571 11.2832C41.5866 11.2432 41.7067 11.1776 41.8104 11.0904C41.914 11.0031 41.9989 10.896 42.0602 10.7753C42.1214 10.6546 42.1577 10.5229 42.1669 10.388Z" fill="white"/>
<path d="M45.2565 8.39583V11.963H44.4102V7.68518H47.2339V8.39578L45.2565 8.39583Z" fill="white"/>
<path d="M52.3623 9.82257C52.3623 11.1817 51.6731 12.0338 50.5905 12.0338C50.3247 12.0519 50.0593 11.9939 49.8255 11.8666C49.5917 11.7393 49.3992 11.548 49.2707 11.3153H49.2038V13.3855H48.3574V7.68553H49.1722V8.39249H49.2354C49.3662 8.15162 49.5612 7.95148 49.7988 7.81421C50.0365 7.67693 50.3076 7.60784 50.5821 7.61459C51.6731 7.61456 52.3623 8.46296 52.3623 9.82257ZM51.4917 9.82257C51.4917 8.91896 51.063 8.37298 50.3459 8.37298C49.6335 8.37298 49.188 8.93055 49.188 9.82628C49.188 10.7178 49.6335 11.2759 50.3422 11.2759C51.063 11.2759 51.4917 10.7299 51.4917 9.82257Z" fill="white"/>
<path d="M53.4899 13.4951V12.7682C53.5815 12.7799 53.6738 12.7851 53.7661 12.784C53.9464 12.7973 54.1253 12.7438 54.2685 12.6336C54.4116 12.5234 54.5089 12.3644 54.5418 12.187L54.605 11.9787L53.0527 7.68518H53.9744L55.0496 11.083H55.1166L56.188 7.68518H57.0855L55.4867 12.1397C55.1203 13.1806 54.7148 13.5146 53.8405 13.5146C53.7698 13.5146 53.569 13.5067 53.4899 13.4951Z" fill="white"/>
<path d="M57.7451 10.7494H58.5878C58.6705 11.1266 59.0249 11.3232 59.5206 11.3232C60.0842 11.3232 60.4302 11.0755 60.4302 10.6905C60.4302 10.2781 60.1196 10.0815 59.5206 10.0815H58.8789V9.42555H59.5094C60.021 9.42555 60.2814 9.22934 60.2814 8.8717C60.2814 8.55766 60.0293 8.31785 59.5094 8.31785C59.036 8.31785 58.6901 8.51824 58.6352 8.85594H57.8195C57.8805 8.4679 58.0917 8.11924 58.4077 7.88493C58.7238 7.65063 59.1194 7.54941 59.5094 7.60303C60.5288 7.60303 61.1119 8.06273 61.1119 8.78543C61.1167 8.98668 61.052 9.18346 60.9288 9.34288C60.8056 9.50229 60.6312 9.61466 60.4348 9.66122V9.72801C60.6686 9.75809 60.8832 9.87271 61.0378 10.0501C61.1924 10.2276 61.2764 10.4554 61.2738 10.6905C61.2738 11.5037 60.5799 12.0418 59.5206 12.0418C58.584 12.0417 57.8233 11.6136 57.7451 10.7494Z" fill="white"/>
<path d="M62.4922 11.963V7.68518H63.3311V10.6275H63.3981L65.3744 7.68519H66.2134V11.963H65.3744V9.0049H65.3112L63.3311 11.963L62.4922 11.963Z" fill="white"/>
<path d="M70.8353 8.39578H69.4849V11.9629H68.6376V8.39578H67.2871V7.68518H70.8353V8.39578Z" fill="white"/>
<path d="M75.3937 10.8083C75.2783 11.1992 75.029 11.5374 74.6892 11.7636C74.3493 11.9898 73.9406 12.0897 73.5345 12.0459C73.2519 12.0533 72.9712 11.9994 72.7116 11.8877C72.4521 11.7761 72.22 11.6094 72.0316 11.3993C71.8431 11.1892 71.7027 10.9408 71.6201 10.6711C71.5376 10.4015 71.5148 10.1172 71.5534 9.83789C71.5158 9.55775 71.539 9.27281 71.6213 9.00237C71.7037 8.73194 71.8434 8.48231 72.0309 8.27039C72.2184 8.05847 72.4493 7.88921 72.7081 7.77406C72.9669 7.65891 73.2474 7.60057 73.5308 7.60298C74.724 7.60298 75.4448 8.41618 75.4448 9.75948V10.0541H72.4165V10.1014C72.4031 10.2584 72.4228 10.4165 72.4743 10.5655C72.5258 10.7144 72.6079 10.851 72.7155 10.9664C72.8231 11.0819 72.9537 11.1736 73.0989 11.2356C73.2441 11.2977 73.4007 11.3288 73.5587 11.3269C73.761 11.351 73.9659 11.3146 74.1474 11.2222C74.3289 11.1299 74.4788 10.9858 74.578 10.8083L75.3937 10.8083ZM72.4165 9.42969H74.5817C74.5924 9.2862 74.5729 9.14205 74.5244 9.00652C74.476 8.87099 74.3996 8.74707 74.3003 8.64271C74.201 8.53835 74.0809 8.45587 73.9477 8.40055C73.8145 8.34524 73.6712 8.31832 73.527 8.32152C73.3806 8.31953 73.2353 8.34684 73.0996 8.40184C72.9639 8.45683 72.8407 8.53839 72.7372 8.6417C72.6337 8.74501 72.552 8.86797 72.4969 9.00331C72.4418 9.13866 72.4145 9.28364 72.4165 9.42969H72.4165Z" fill="white"/>
<path d="M78.9824 7.68518H80.916C81.7549 7.68518 82.2469 8.10916 82.2469 8.77293C82.2482 8.98355 82.177 9.18823 82.0451 9.35272C81.9132 9.51721 81.7287 9.63153 81.5224 9.67654V9.74334C81.7729 9.75912 82.0077 9.87026 82.1783 10.0538C82.349 10.2373 82.4425 10.4792 82.4394 10.7295C82.4394 11.4759 81.8768 11.9629 80.9355 11.9629H78.9824V7.68518ZM79.8213 8.3332V9.4409H80.6603C81.1718 9.4409 81.4164 9.24469 81.4164 8.88287C81.4164 8.54936 81.2034 8.33319 80.7542 8.33319L79.8213 8.3332ZM79.8213 10.0616V11.315H80.8249C81.3253 11.315 81.5931 11.0946 81.5931 10.6901C81.5931 10.262 81.2899 10.0616 80.7189 10.0616L79.8213 10.0616Z" fill="white"/>
</svg>
