<svg width="244" height="244" viewBox="0 0 244 244" fill="none" xmlns="http://www.w3.org/2000/svg">
    <path d="M127.178 100.665C125.313 101.927 120.578 105.542 123.706 107.665C125.026 108.555 126.288 109.358 126.948 110.879C127.321 111.711 127.292 112.601 127.551 113.49C127.981 115.011 129.1 114.839 130.391 115.011C132.227 115.269 132.887 117.249 134.58 117.45C133.863 115.757 133.117 114.064 132.457 112.371C130.879 108.383 129.444 104.28 127.178 100.665Z" fill="#2A0042" stroke="#1C2027" stroke-width="0.5" stroke-miterlimit="10"/>
    <path d="M60.2671 87.3227C61.8165 86.4046 63.5093 85.6585 65.2596 85.6872C67.0959 85.7159 68.4157 86.7202 69.793 87.8105C70.7685 88.5852 71.7727 89.3599 73.0352 89.532C74.6994 89.7616 75.3593 88.6999 76.134 87.4375C76.9947 86.0316 78.2572 85.5438 79.7779 85.056C80.7821 84.7404 81.8724 84.4248 82.475 83.4779C82.9628 82.7032 83.0775 81.8138 83.7374 81.1538C85.1434 79.7479 87.2379 79.8053 89.0455 79.4036C91.3409 78.9158 93.0625 77.2804 93.5789 75.0711C89.8489 74.3824 86.0615 74.1529 82.2455 74.7841C73.7238 76.2188 65.9769 80.8956 60.2671 87.3227Z" fill="#2A0042" stroke="#1C2027" stroke-width="0.5" stroke-miterlimit="10"/>
    <path d="M77.5685 173.543C77.9415 173.572 78.3432 173.629 78.7162 173.687C82.3601 174.26 85.9466 175.121 89.648 175.437C93.2632 175.752 96.8784 175.81 100.494 175.695C102.646 175.609 104.798 175.494 106.978 175.351C107.466 173.945 107.322 172.338 106.462 171.076C105.888 170.186 104.625 169.727 104.396 168.637C104.166 167.518 104.711 166.341 104.511 165.194C104.224 163.386 103.019 162.353 101.441 161.636C99.346 160.718 97.4236 159.972 96.5054 157.676C95.5873 155.295 96.1324 152.77 96.7637 150.388C88.9019 151.048 81.0402 151.364 73.2933 149.442C72.0308 149.126 70.7971 148.782 69.592 148.38C69.6207 148.437 69.6207 148.523 69.592 148.609C68.8173 151.307 67.9852 154.147 68.4443 156.959C68.9034 159.857 70.5101 161.636 73.0638 162.87C74.6705 163.644 76.4208 164.677 76.5929 166.686C76.679 167.719 76.306 168.751 76.2486 169.756C76.1625 171.162 76.4782 172.51 77.5111 173.543C77.5685 173.514 77.5685 173.514 77.5685 173.543Z" fill="#F52341" stroke="#1C2027" stroke-width="0.5" stroke-miterlimit="10"/>
    <path d="M52.0321 80.1782C50.3106 81.1537 50.5114 83.9943 50.9705 85.6297C51.7452 88.3842 52.8068 91.11 54.0693 93.6923C56.0777 90.1631 58.5453 86.9209 61.4432 84.0517C59.2913 82.1866 54.7579 78.6288 52.0321 80.1782Z" fill="#DB797E" stroke="#F79899" stroke-width="0.5" stroke-miterlimit="10"/>
    <path d="M53.6392 94.4667C52.8645 92.86 52.1472 91.2245 51.5446 89.5603C51.0282 88.1257 50.3395 86.5763 50.11 85.0556C49.8231 83.3341 49.7944 80.8666 51.4012 79.7476C54.5286 77.5669 59.4924 81.4404 61.96 83.5923C63.3372 82.2725 64.8292 81.0674 66.436 79.9484C64.3414 78.8581 62.1034 78.026 59.9228 77.1079C57.0823 75.9028 54.2417 74.8125 51.0855 75.042C45.2897 75.4437 46.1791 82.9898 46.8965 87.0641C47.6711 91.454 49.2779 95.6431 51.1716 99.6601C51.9176 97.8238 52.7497 96.1022 53.6392 94.4667Z" fill="white"/>
    <path d="M56.5943 172.768C56.9673 172.883 57.3116 172.969 57.6846 173.084C61.2712 174.088 64.6856 174.26 68.3869 173.83C71.1701 173.514 73.8384 173.285 76.5642 173.457C75.5313 172.051 75.4165 170.301 75.7034 168.579C75.8756 167.575 76.1051 166.513 75.56 165.595C75.1583 164.906 74.4697 164.419 73.8097 164.017C72.6907 163.357 71.4283 162.955 70.4241 162.123C66.2923 158.709 67.6696 152.77 68.932 148.38C68.9607 148.294 69.0181 148.208 69.0755 148.179C67.4687 147.634 65.8907 147.002 64.3413 146.285C63.0501 148.581 61.3859 150.56 58.5167 150.618C57.1969 150.646 55.7335 150.073 54.8728 149.04C53.8112 149.585 52.4626 150.359 51.1715 150.532C50.6263 152.827 49.6508 155.295 50.9993 157.504C51.9175 159.025 53.4955 160.057 54.6432 161.377C57.1682 164.304 56.7952 169.067 56.623 172.682C56.623 172.682 56.623 172.711 56.5943 172.768Z" fill="#F52341" stroke="#1C2027" stroke-width="0.5" stroke-miterlimit="10"/>
    <path d="M172.655 35.1025C173.286 34.6722 174.032 34.3278 174.807 34.1844C175.18 34.127 175.725 34.2418 176.041 34.0122C176.27 33.8401 176.414 32.9793 176.529 32.7498C177.103 31.3725 177.906 29.9666 179.254 29.1919C180.287 28.6181 181.607 28.3885 182.726 28.8476C183.415 29.1058 183.73 29.5649 184.19 30.0814C184.706 30.6552 185.079 31.1717 185.911 31.143C186.284 31.143 186.657 31.0569 187.001 31.0282C188.321 30.8848 189.182 31.1717 189.813 32.3481C190.272 33.2088 190.531 34.2418 190.731 35.1886C193.916 35.8485 196.9 36.7954 200.229 36.6519C203.959 36.4798 208.348 35.7051 209.094 31.4299C209.726 27.9008 209.008 23.7404 206.684 20.9572C204.59 18.4323 201.405 16.6533 198.421 15.4483C192.453 13.0094 185.538 12.6364 179.513 15.0466C173.86 17.3133 169.212 22.2197 167.232 27.9868C165.367 33.381 166.458 38.5456 168.38 43.6242C168.983 40.4967 170.073 36.9102 172.655 35.1025Z" fill="#2A0042" stroke="#1C2027" stroke-width="0.5" stroke-miterlimit="10"/>
    <path d="M171.823 84.6826C171.88 85.3999 171.823 86.1172 171.651 86.8059C171.22 88.4413 170.101 89.7612 169.556 91.3393C168.667 93.9216 170.331 95.471 172.54 96.3317C173.573 96.7334 174.692 97.0777 175.409 97.9672C176.356 99.201 175.668 100.205 175.639 101.611C175.61 103.304 178.02 102.443 178.853 103.534C179.455 104.337 179.57 105.485 180.115 106.345C180.431 106.862 180.804 107.378 181.177 107.837C181.205 107.436 181.234 107.034 181.234 106.604C181.406 101.009 180.23 95.2988 177.16 90.5646C175.725 88.3839 173.889 86.4042 171.823 84.6826Z" fill="#2A0042" stroke="#1C2027" stroke-width="0.5" stroke-miterlimit="10"/>
    <path d="M131.424 157.819C131.854 159.225 133.031 159.742 134.121 160.545C137.019 162.726 137.851 166.427 138.396 169.842C139.63 169.382 140.835 168.866 142.04 168.292C141.208 165.825 140.29 163.386 139.056 161.09C137.076 157.303 134.265 154.118 130.879 151.823C131.166 152.655 131.223 153.573 131.223 154.462C131.195 155.581 131.08 156.758 131.424 157.819Z" fill="#F52341" stroke="#1C2027" stroke-width="0.5" stroke-miterlimit="10"/>
    <path d="M114.754 83.8218C115.155 83.7931 115.557 83.7357 115.873 84.1087C116.533 84.8834 115.299 84.7974 117.02 85.113C117.451 85.1991 117.766 85.1991 118.025 85.5721C118.34 86.0024 118.139 86.4902 118.139 86.978C118.168 88.4413 118.857 87.8388 119.631 88.4126C120.148 88.7856 120.349 89.4455 120.75 89.962C121.066 90.3924 121.468 90.7367 121.812 91.1384C122.816 88.7856 123.534 86.3467 123.935 83.8218C124.28 81.6125 124.71 78.8867 124.021 76.7061C122.931 73.1769 119.115 75.7879 117.164 77.1078C115.041 78.5137 113.147 80.2066 111.454 82.0716C112.257 83.4488 113.061 83.9079 114.754 83.8218Z" fill="#DB797E" stroke="#F79899" stroke-width="0.5" stroke-miterlimit="10"/>
    <path d="M191.334 131.595C191.305 131.623 191.248 131.652 191.19 131.681C191.133 131.71 191.076 131.738 191.018 131.767C190.043 132.226 189.067 132.628 188.063 133.029C189.813 133.632 191.162 134.751 192.482 136.186C193.629 137.448 195.007 137.678 196.527 138.28C197.216 138.538 197.704 138.911 198.048 139.571C198.995 141.408 199.282 143.76 200.602 145.31C201.147 145.97 201.634 146.83 201.893 147.72C203.184 143.875 202.38 139.485 201.089 135.698C200.458 133.833 199.54 131.623 198.105 130.189C197.302 129.385 196.183 128.783 195.179 128.238C194.289 129.73 192.769 130.734 191.334 131.595Z" fill="#F52341" stroke="#1C2027" stroke-width="0.5" stroke-miterlimit="10"/>
    <path d="M129.616 151.048C127.608 149.872 125.427 148.983 123.075 148.409C119.89 150.561 115.988 152.626 112.143 152.053C111.397 151.938 110.766 151.622 110.249 151.163C108.614 153.114 105.486 154.147 103.191 152.77C102.646 152.426 102.215 152.024 101.9 151.536C100.637 151.393 99.6616 150.905 98.9156 150.159C98.4565 150.188 97.9974 150.245 97.5383 150.274C96.7063 153.43 95.8455 157.705 99.1451 159.771C101.125 161.005 103.65 161.234 104.769 163.558C105.257 164.563 105.4 165.71 105.285 166.801C105.199 167.719 105.199 168.551 105.83 169.354C106.146 169.727 106.576 169.985 106.863 170.387C107.925 171.822 108.212 173.629 107.724 175.293C112.717 174.92 117.68 174.375 122.615 173.687C127.751 172.969 132.83 171.879 137.679 170.1C137.392 168.379 137.076 166.657 136.445 165.022C135.584 162.812 134.236 161.636 132.371 160.259C131.051 159.283 130.563 158.021 130.449 156.414C130.362 154.635 130.793 152.54 129.616 151.048Z" fill="#F52341" stroke="#1C2027" stroke-width="0.5" stroke-miterlimit="10"/>
    <path d="M133.433 110.937C134.494 113.576 135.527 116.245 136.589 118.884C137.622 121.495 138.741 124.078 139.343 126.803C139.458 127.263 139.142 127.722 138.655 127.722C137.163 127.722 135.699 127.607 134.236 127.377C134.724 128.295 135.154 129.242 135.47 130.218C135.642 130.706 135.211 131.079 134.781 131.136C134.236 131.193 133.691 131.136 133.232 130.935C133.289 131.308 133.375 131.71 133.519 132.083C133.719 132.657 133.117 133.058 132.629 132.972C131.912 132.829 131.166 132.714 130.449 132.571C130.42 132.571 130.391 132.542 130.362 132.542H130.334C123.189 130.591 115.242 129.845 108.183 132.542C104.338 134.005 101.613 136.329 99.9772 140.117C99.2025 141.896 98.4278 143.904 98.5426 145.884C98.6287 147.605 99.6616 149.442 101.354 149.958C101.039 148.265 101.555 146.314 102.445 144.908C102.933 144.134 104.166 144.851 103.679 145.626C102.646 147.261 101.928 150.245 103.965 151.479C105.744 152.569 108.241 151.536 109.36 149.987C108.327 148.237 108.298 145.74 109.503 144.162C110.048 143.445 111.311 144.162 110.737 144.88C109.761 146.142 109.79 147.806 110.593 149.155C111.626 150.905 113.635 150.762 115.385 150.389C118.197 149.815 120.693 148.294 123.017 146.687C123.046 146.659 123.103 146.601 123.132 146.572C127.235 143.675 132.342 143.531 137.163 142.986C146.774 141.896 156.272 140.604 165.597 137.907C173.917 135.497 182.525 134.063 190.444 130.39C192.367 129.214 194.892 127.664 194.404 125.025C193.973 122.5 191.104 121.725 188.924 121.323C185.825 120.749 182.21 120.864 179.254 121.294C178.738 122.643 178.193 123.963 177.647 125.311C177.303 126.144 175.926 125.771 176.27 124.938C178.422 119.688 180.459 114.466 181.033 108.871C180.545 108.268 180.058 107.637 179.656 106.977C178.881 105.801 178.623 103.792 176.988 103.591C176.041 103.477 175.323 103.477 174.979 102.415C174.491 100.751 176.012 99.0005 174.061 97.7668C171.938 96.4182 168.609 96.16 168.523 92.9464C168.466 91.4257 169.269 90.0772 169.958 88.786C170.819 87.2367 171.278 85.716 170.991 83.9944C168.982 82.4163 166.802 81.0678 164.592 79.9775C159.571 77.5099 153.747 75.9892 148.152 76.1901C142.098 76.4196 136.244 78.3994 130.822 81.0391C130.793 81.3834 130.735 81.7277 130.707 82.072C129.989 87.4088 128.354 92.5447 126.833 97.6807C129.875 101.669 131.625 106.346 133.433 110.937Z" fill="white"/>
    <path d="M175.61 86.3469C180.173 80.6658 182.898 73.5788 183.357 66.2909C183.587 62.6757 183.3 59.0605 182.411 55.5313C181.435 51.6865 179.742 48.0139 179.34 44.0543C179.082 41.472 179.484 38.488 181.464 36.623C183.558 34.6432 186.628 34.4998 189.325 34.9589C189.555 34.9876 189.756 35.0449 189.985 35.0736C189.785 34.1268 189.526 33.0652 188.981 32.3479C187.92 30.9993 186.083 32.3479 184.706 31.6879C184.161 31.4297 183.903 30.9419 183.558 30.4542C182.784 29.3925 181.607 29.1343 180.373 29.5073C178.164 30.1959 177.303 32.6635 176.615 34.6432C176.557 34.7867 176.443 34.9302 176.27 34.9015C171.221 34.2989 169.528 41.013 168.954 44.9438C169.212 45.5464 169.442 46.1489 169.729 46.7514C172.253 52.5473 174.664 58.2858 174.004 64.7416C173.43 70.3366 171.048 75.6447 167.204 79.7477C170.245 81.4979 173.172 83.7072 175.61 86.3469Z" fill="white"/>
    <path d="M201.347 149.068C201.347 148.15 200.945 147.146 200.486 146.429C200.142 145.883 199.568 145.482 199.281 144.908C198.908 144.191 198.822 143.301 198.449 142.555C198.048 141.752 197.818 140.891 197.445 140.088C196.842 138.825 195.293 138.768 194.117 138.28C193.313 137.936 192.711 137.505 192.108 136.903C190.501 135.239 189.124 134.005 186.944 133.488C183.931 134.636 180.861 135.554 177.705 136.329C177.619 136.358 177.561 136.358 177.475 136.386C181.377 139.456 185.193 142.699 188.378 146.543C190.272 148.839 191.879 151.306 193.17 153.946C194.863 153.516 196.498 152.97 198.076 152.167C199.109 151.651 200.142 151.134 200.859 150.331C200.802 150.159 200.831 149.986 200.917 149.786C201.118 149.556 201.232 149.298 201.347 149.068Z" fill="#F52341" stroke="#1C2027" stroke-width="0.5" stroke-miterlimit="10"/>
    <path d="M196.843 172.395C196.154 167.231 195.236 161.894 193.371 157.016C190.129 148.437 183.214 142.24 176.184 136.702C167.921 138.825 159.715 141.264 151.279 142.67C146.688 143.445 142.069 143.933 137.449 144.449C132.945 144.966 128.153 145.08 124.251 147.605C131.453 149.614 137.076 154.692 140.405 161.406C142.04 164.735 143.188 168.264 144.25 171.822C145.483 175.867 146.631 179.97 147.406 184.131C148.525 190.041 148.611 195.952 148.353 201.949C148.008 209.868 147.205 217.787 146.143 225.649C146.545 225.534 146.947 225.419 147.32 225.218C147.434 225.161 147.578 225.132 147.693 225.161C151.767 223.726 156.128 223.64 160.346 222.751C164.965 221.746 169.327 219.939 173.631 218.045C177.734 216.237 181.951 214.516 185.911 212.393C189.325 210.585 192.309 208.06 195.666 206.166C196.871 200.227 197.56 194.202 197.703 188.148C197.818 182.897 197.531 177.617 196.843 172.395Z" fill="#1C2027" stroke="#1C2027" stroke-width="0.5" stroke-miterlimit="10"/>
    <path d="M38.6614 166.8C40.6411 169.383 44.3425 169.842 47.3265 170.329C50.2818 170.817 53.0649 171.678 55.9055 172.539C56.0203 170.043 56.0776 167.403 55.5899 164.907C55.1595 162.697 53.7536 161.377 52.2042 159.914C51.0852 158.824 49.9949 157.647 49.6792 156.069C49.3062 154.204 49.9949 152.311 50.4252 150.532C50.167 150.503 49.8801 150.474 49.6506 150.36C48.3307 149.814 47.3552 149.241 46.7813 147.863C46.7526 147.806 46.7526 147.749 46.7239 147.691C46.6378 147.691 46.5231 147.634 46.437 147.576C43.9121 145.998 43.1661 143.473 43.5104 140.891C38.8909 142.527 35.4191 146.343 34.5584 151.249C33.6115 156.758 35.7634 162.123 38.6327 166.686C38.6327 166.772 38.6614 166.8 38.6614 166.8Z" fill="#F52341" stroke="#1C2027" stroke-width="0.5" stroke-miterlimit="10"/>
    <path d="M46.3508 145.769C46.3221 144.879 46.4655 143.961 46.5803 143.101C46.7238 142.182 48.101 142.584 47.9575 143.474C47.6419 145.597 47.6706 148.982 50.5685 149.126C51.6875 149.183 53.1509 148.294 54.1838 147.749C53.8682 146.687 54.0403 145.539 54.2985 144.449C54.4994 143.56 55.9053 143.933 55.6758 144.822C55.3602 146.171 55.188 147.634 56.5079 148.495C57.7129 149.327 59.2623 149.241 60.5248 148.581C61.6725 147.978 62.4185 146.744 63.0497 145.597C59.3771 143.789 55.9053 141.551 52.7492 138.911C51.7736 139.055 50.7981 139.055 50.339 138.51C49.9947 138.079 50.1095 137.505 50.3964 136.932C49.0765 137.305 47.7567 137.448 46.3508 137.362C44.7153 140.03 43.998 143.617 46.3508 145.769Z" fill="white"/>
    <path d="M207.545 169.698C207 167.489 207.028 165.337 206.914 163.099C206.77 160.804 206.11 158.308 205.02 156.27C204.016 154.405 203.155 152.454 202.179 150.589C202.122 150.675 202.036 150.762 201.95 150.79C201.319 151.594 200.458 152.167 199.454 152.684C197.617 153.659 195.724 154.377 193.687 154.893C194.203 156.041 194.662 157.217 195.064 158.451C196.671 163.444 197.56 168.752 198.163 173.945C199.396 184.446 198.937 195.12 196.929 205.507C196.957 205.478 196.986 205.478 197.015 205.449C197.101 205.421 197.158 205.392 197.244 205.392C199.195 204.588 201.118 203.556 202.868 202.379C204.102 201.547 205.45 200.514 206.196 199.194C207.315 197.157 207.488 194.661 207.803 192.394C208.176 189.754 208.549 187.115 208.951 184.475C209.324 181.979 209.898 179.397 209.726 176.843C209.496 174.347 208.147 172.137 207.545 169.698Z" fill="#DDDDDD" stroke="#1C2027" stroke-width="0.5" stroke-miterlimit="10"/>
    <path d="M146.057 182.839C145.254 178.966 144.135 175.179 142.987 171.391C142.786 170.703 142.557 170.014 142.327 169.354C135.412 172.568 128.01 174.146 120.464 175.064C112.745 176.011 104.912 176.814 97.1367 176.843C93.378 176.843 89.6193 176.642 85.8893 176.097C82.0158 175.523 78.2284 174.375 74.2976 174.404C70.5102 174.433 66.7802 175.408 62.9928 175.179C59.5497 174.949 56.2787 173.773 52.9791 172.768C49.9664 171.85 46.8677 171.506 43.7976 170.789C41.6169 170.272 39.5224 169.469 38.0591 167.805C37.973 167.805 37.9156 167.805 37.8296 167.805C37.4566 170.043 37.1122 172.281 36.7679 174.519C36.4236 176.585 37.227 179.167 35.9072 180.946C35.4481 181.577 34.8455 182.036 34.9316 182.926C34.989 183.557 35.6776 184.159 36.0793 184.618C36.6245 185.278 37.0836 185.967 37.2557 186.799C37.6574 188.894 36.0793 190.931 36.7966 192.968C37.1696 194.087 37.973 194.976 38.2312 196.124C38.4895 197.243 38.2599 198.362 38.1452 199.481C37.9156 202.035 38.6043 204.474 39.7519 206.74C40.8136 208.892 42.1908 210.872 43.5393 212.823C44.9453 214.86 46.3225 216.955 47.7858 218.963C49.2778 221 50.9994 222.636 53.3234 223.697C55.4467 224.673 57.7708 225.161 60.0375 225.648C62.1894 226.05 64.37 226.452 66.5219 226.825C69.592 227.37 72.6621 227.915 75.7609 228.346C78.2858 228.69 80.8394 228.776 83.3643 228.862C85.6884 228.948 88.0412 228.604 90.3366 228.747C92.3738 228.891 94.0379 230.211 96.0751 230.297C98.0835 230.383 100.149 230.096 102.158 229.952C106.433 229.608 110.708 229.206 114.983 228.948C115.041 228.948 115.069 228.948 115.098 228.948C115.127 228.948 115.156 228.948 115.184 228.948C115.729 228.948 116.275 228.948 116.82 228.977C117.135 228.518 116.705 227.571 117.021 227.054C117.221 226.71 117.594 226.681 117.881 226.481C118.742 225.935 118.34 225.649 118.226 224.874C118.14 224.329 118.312 223.812 118.484 223.296C118.828 222.32 119.287 221.517 118.972 220.455C118.685 219.566 117.996 218.82 117.537 218.045C116.791 216.725 116.533 215.291 116.619 213.77C116.791 209.868 118.254 206.224 119.144 202.465C119.689 200.141 118.914 198.046 118.283 195.837C117.68 193.714 117.078 191.619 116.475 189.496C116.361 189.037 117.049 188.865 117.164 189.295C117.853 191.677 118.513 194.058 119.201 196.44C119.689 198.161 120.291 199.883 120.005 201.69C119.718 203.728 118.886 205.679 118.398 207.658C117.881 209.782 117.336 212.02 117.307 214.229C117.307 215.434 117.537 216.582 118.14 217.643C118.541 218.361 119.115 219.021 119.459 219.795C120.091 221.173 119.66 222.177 119.144 223.497C118.799 224.443 119.345 225.103 119.345 225.964C119.345 226.337 119.23 226.567 118.943 226.796C118.111 227.427 117.939 226.681 117.652 228.26C117.594 228.575 117.623 228.776 117.566 228.977C119.746 229.12 121.898 229.465 124.05 229.637C126.862 229.866 129.645 229.637 132.371 228.891C134.81 228.231 137.019 226.825 139.487 226.308C141.266 225.935 143.159 226.05 144.967 225.763C145.369 222.779 145.713 219.824 146.028 216.84C147.291 205.679 148.439 194.03 146.057 182.839Z" fill="#DDDDDD" stroke="#1C2027" stroke-width="0.5" stroke-miterlimit="10"/>
    <path d="M52.5775 136.042C52.434 136.3 51.7454 137.591 51.7454 137.591C52.0324 137.792 53.8687 137.276 54.2704 137.19C55.1598 136.989 55.5615 138.366 54.6434 138.567C54.6147 138.567 54.5573 138.596 54.4999 138.596C60.2671 143.158 66.9811 146.457 74.1255 148.15C81.9872 150.015 89.9637 149.527 97.9115 148.839C97.1081 147.289 96.9072 145.281 97.2802 143.502C98.1697 139.284 100.436 135.152 104.166 132.886C111.999 128.152 122.185 128.898 130.649 131.193C130.678 131.193 130.707 131.222 130.707 131.222C130.736 131.222 130.736 131.222 130.764 131.222C131.109 131.279 131.424 131.336 131.768 131.394C131.654 130.791 131.625 130.189 131.711 129.529C131.768 128.984 132.486 128.496 132.945 129.012C133.174 129.271 133.404 129.443 133.662 129.557C133.26 128.582 132.744 127.635 132.141 126.746C131.768 126.2 132.371 125.569 132.945 125.684C134.523 126 136.101 126.2 137.708 126.229C137.019 123.475 135.958 120.778 134.839 118.109C134.064 118.138 133.347 117.937 132.687 117.421C132.285 117.105 131.998 116.675 131.654 116.33C130.764 115.498 130.018 115.699 128.957 115.556C126.633 115.269 127.006 113.059 126.403 111.366C125.772 109.616 124.251 108.985 122.903 107.923C122.185 107.35 121.554 106.575 121.726 105.599C121.898 104.509 122.96 103.447 123.677 102.644C124.595 101.64 125.657 100.75 126.776 99.9756C126.403 99.4018 126.001 98.8566 125.571 98.3115C125.485 98.2254 125.456 98.1106 125.427 97.9958C125.37 97.8524 125.341 97.6802 125.399 97.5081C126.747 92.9173 128.182 88.3552 129.043 83.6497C129.846 79.1737 129.961 74.6689 128.038 70.4512C127.694 69.6765 127.235 68.7583 126.489 68.2992C125.427 67.668 123.821 68.1271 122.73 68.3853C120.665 68.8731 118.685 69.6191 116.82 70.6233C113.118 72.5744 109.905 75.3289 107.036 78.3416C106.806 78.5998 106.519 78.5998 106.261 78.485C106.175 78.485 106.06 78.485 105.945 78.4563C102.158 77.1939 98.2558 75.9314 94.2962 75.1567C93.9806 76.5626 93.2059 77.8251 92.0582 78.772C90.2793 80.1779 88.1561 79.977 86.0902 80.6083C85.4303 80.8091 84.7704 81.096 84.2826 81.5838C83.7661 82.1003 83.6514 82.7602 83.3357 83.3627C82.9914 84.0227 82.561 84.5391 81.9011 84.9121C80.1222 85.945 77.999 85.8016 76.7939 87.724C75.847 89.216 75.0149 90.4211 73.0352 90.1915C71.0554 89.9333 69.7642 88.4413 68.1862 87.3797C64.9439 85.1704 61.6443 87.2075 58.7751 89.1012C57.1396 91.1671 55.7337 93.3764 54.5286 95.7005C51.3724 101.898 49.5074 108.698 48.618 115.584C47.9293 120.892 47.4703 126.43 44.8306 131.164C45.1749 131.078 45.5192 130.992 45.8635 130.877C46.7816 130.562 47.5276 129.959 48.3884 129.586C48.704 129.443 48.991 129.471 49.2492 129.701C50.0813 130.418 49.5935 131.566 49.1631 132.398C48.5032 133.603 47.6711 134.751 46.8677 135.898C48.5032 135.927 50.11 135.612 51.6307 134.952C52.2332 134.779 52.9505 135.353 52.5775 136.042ZM110.651 81.9568C110.651 81.8707 110.68 81.8133 110.737 81.7273C112.918 79.2884 115.443 77.1939 118.226 75.5297C119.947 74.4968 122.443 73.1483 124.022 75.1854C125.571 77.1652 125.026 80.6083 124.739 82.875C124.337 86.0311 123.448 89.1012 122.157 91.9991C122.07 92.2287 121.841 92.2287 121.697 92.1139C121.64 92.0852 121.583 92.0278 121.525 91.9704C121.095 91.2531 120.406 90.7654 119.947 90.1054C119.546 89.5316 119.173 89.1012 118.455 88.8143C118.226 88.7282 118.082 88.8143 117.853 88.6995C117.508 88.4987 117.365 88.1544 117.308 87.7527C117.279 87.4657 117.336 87.2362 117.365 86.978C117.48 86.0885 117.078 86.1172 116.303 85.9451C115.816 85.8303 115.643 85.8303 115.328 85.4573C115.213 85.3425 115.328 85.0843 115.242 84.9695C114.783 84.367 114.18 84.826 113.635 84.7687C112.286 84.6252 111.253 83.334 110.651 82.2437C110.622 82.129 110.622 82.0429 110.651 81.9568ZM90.1645 122.241C91.2261 119.544 94.3536 117.105 97.3376 117.134C100.293 117.162 102.215 119.687 102.76 122.384C102.904 123.073 101.871 123.36 101.728 122.671C101.268 120.433 99.8338 118.253 97.3376 118.195C94.8988 118.138 92.0869 120.29 91.1974 122.528C90.9679 123.159 89.9063 122.872 90.1645 122.241ZM76.4496 123.503C76.4496 123.475 76.4783 123.475 76.507 123.446C77.0234 122.643 78.4006 122.872 79.6918 122.872C80.7821 122.872 85.0573 122.298 84.4834 124.536C84.2252 125.541 82.7906 126.143 81.9585 126.545C80.9256 127.061 80.1796 127.348 79.0606 126.946C77.8555 126.545 75.2445 125.024 76.4496 123.503ZM75.0436 130.017C75.9618 131.853 78.3433 131.824 79.2327 129.988C79.118 129.586 79.0319 129.213 78.9745 128.811C78.8597 128.123 79.8926 127.836 80.0074 128.525C80.2943 130.246 80.8682 132.312 83.1349 131.882C84.6269 131.595 85.8894 130.447 86.6927 129.213C87.0657 128.639 88.0126 129.184 87.6109 129.758C86.4919 131.451 84.5695 133.087 82.4176 133.001C81.069 132.943 80.237 132.197 79.7205 131.193C78.2285 133.029 75.2732 132.828 74.1255 130.533C73.8099 129.93 74.728 129.385 75.0436 130.017ZM58.9759 121.724C60.4105 119.257 62.046 117.105 65.1161 116.933C68.3296 116.761 70.3668 118.712 70.8832 121.839C70.998 122.528 69.9651 122.815 69.8503 122.126C69.6495 120.806 69.0756 119.257 67.8992 118.482C66.9524 117.88 65.6325 117.908 64.5709 118.052C62.2468 118.396 61.0418 120.376 59.9514 122.241C59.5498 122.872 58.6029 122.327 58.9759 121.724Z" fill="white"/>
    <path d="M77.4248 124.737C78.0273 125.311 79.548 126.057 79.8062 126.057C80.5522 126.143 81.2409 125.742 81.8721 125.397C82.0442 125.311 83.3067 124.709 83.3354 124.479C83.3928 123.705 80.4375 123.963 79.9784 123.963C79.4332 123.963 78.9168 123.963 78.3716 123.963C77.6256 123.963 77.2526 123.647 77.4248 124.623C77.4248 124.651 77.4248 124.709 77.4248 124.737Z" fill="#1C2027" stroke="#1C2027" stroke-width="0.5" stroke-miterlimit="10"/>
    <path d="M208.348 164.362C208.348 161.865 207.918 159.197 206.914 156.873C206.369 155.639 205.651 154.463 205.049 153.258C204.389 151.881 203.758 150.503 203.012 149.155C202.983 149.097 202.954 149.069 202.926 149.04C204.705 144.707 203.959 139.715 202.467 135.354C201.749 133.288 200.831 131.308 199.425 129.615C198.478 128.468 197.072 127.664 195.753 126.976C195.81 126.775 195.867 126.545 195.896 126.344C196.298 123.389 194.146 121.495 191.621 120.606C187.977 119.315 183.702 119.343 179.857 119.86C181.263 115.986 182.325 112.056 182.611 107.866C182.984 102.185 182.038 96.3034 179.254 91.2822C178.508 89.9337 177.59 88.6425 176.586 87.4375C180.689 82.3589 183.415 76.2761 184.419 69.849C184.907 66.6642 185.022 63.4506 184.706 60.2371C184.333 56.794 183.386 53.5805 182.325 50.2808C181.263 46.9812 179.943 43.1077 181.177 39.6933C182.669 35.533 187.46 35.906 190.932 36.7667C194.777 37.7423 198.392 38.4596 202.352 37.9144C205.364 37.5127 208.635 36.652 209.984 33.6393C211.189 30.9135 210.931 27.2696 210.156 24.4864C209.295 21.3589 207.201 19.0061 204.59 17.1698C199.282 13.4685 192.596 11.5461 186.112 12.0913C174.032 13.1242 163.445 23.9412 164.966 36.4511C165.912 44.2267 170.962 50.6825 172.34 58.3434C173.688 65.7747 171.134 73.6364 165.912 79.0019C161.178 76.5344 155.554 74.9276 150.275 74.7554C143.561 74.5546 137.048 76.5631 131.023 79.3749C131.223 75.5875 130.707 71.5706 128.555 68.4431C126.145 64.9426 120.636 67.3241 117.594 68.73C113.291 70.7098 109.589 73.7512 106.318 77.1082C99.5183 74.8702 92.4887 72.6035 85.2295 73.0052C79.0606 73.3495 72.9778 75.6449 67.8132 78.9732C67.7558 78.9445 67.7271 78.8871 67.6697 78.8585C65.4317 77.6534 63.0216 76.7352 60.6688 75.7597C60.8123 75.8171 60.5253 75.7023 60.2958 75.6162C59.7506 75.3867 59.2055 75.1571 58.6603 74.9563C57.2257 74.4111 55.7624 73.866 54.2417 73.6364C51.3151 73.206 47.8433 73.4643 46.2078 76.2761C44.3428 79.4897 45.0028 84.1378 45.634 87.6096C46.5235 92.4299 48.3885 96.992 50.5404 101.382C49.4501 104.337 48.5893 107.407 47.9868 110.535C46.5808 117.593 46.9825 125.426 42.9082 131.652C42.7935 131.739 42.7074 131.853 42.7074 131.997C42.5639 132.37 42.8221 132.743 43.1665 132.858C43.2812 132.915 43.4534 132.944 43.5968 132.915C44.6298 132.743 45.6914 132.571 46.6956 132.198C47.2121 131.997 47.6999 131.71 48.1876 131.423C47.5564 132.8 45.2897 135.842 45.0028 136.272C44.8306 136.53 44.8593 136.788 45.0028 136.989C44.5724 137.735 44.2281 138.51 43.9698 139.313C38.6904 140.863 34.4727 145.023 33.3537 150.446C32.206 156.012 33.9849 161.493 36.7681 166.284V166.313C36.3377 168.752 36.0221 171.219 35.5917 173.658C35.4195 174.662 35.2761 175.667 35.2761 176.699C35.3047 178.278 35.4482 179.31 34.4153 180.602C33.1528 182.151 33.5545 183.614 34.7596 185.106C35.7638 186.34 36.1942 187.258 35.8499 188.894C35.6204 190.013 35.2187 191.132 35.3047 192.308C35.3621 193.198 35.7638 194.001 36.1942 194.776C37.1124 196.44 36.9976 197.702 36.8254 199.51C36.6246 201.805 37.1124 204.072 38.0018 206.167C39.0348 208.577 40.4694 210.786 41.9614 212.938C43.4821 215.147 44.9454 217.385 46.5235 219.537C48.0442 221.632 49.7657 223.497 52.0898 224.673C54.4999 225.907 57.1396 226.509 59.7507 227.083C64.7144 228.03 69.7069 228.948 74.6994 229.666C79.118 230.297 83.7375 230.612 88.1848 230.326C89.3325 230.239 90.4802 230.125 91.5992 230.498C92.6034 230.842 93.4929 231.358 94.5258 231.617C96.4195 232.047 98.428 231.731 100.322 231.617C105.228 231.272 110.134 230.756 115.041 230.469C115.07 230.469 115.098 230.469 115.127 230.469C115.156 230.469 115.213 230.469 115.242 230.469C118.312 230.383 121.324 230.985 124.395 231.215C127.235 231.416 130.076 231.158 132.83 230.412C135.412 229.694 137.765 228.174 140.434 227.772C142.786 227.399 145.11 227.6 147.348 226.796C147.435 226.796 147.521 226.796 147.635 226.739C151.997 225.104 156.731 225.104 161.236 224.042C165.597 223.038 169.786 221.316 173.86 219.537C177.992 217.73 182.181 215.979 186.169 213.913C190.129 211.848 193.515 208.892 197.474 206.855C199.282 206.109 201.032 205.22 202.696 204.215C204.073 203.355 205.451 202.379 206.512 201.145C207.775 199.682 208.32 197.846 208.635 195.981C209.582 190.644 210.357 185.164 210.959 179.77C211.246 177.159 210.902 174.949 209.955 172.51C208.951 169.871 208.348 167.202 208.348 164.362ZM195.179 128.295C196.212 128.841 197.302 129.414 198.105 130.246C199.54 131.681 200.429 133.862 201.089 135.755C202.38 139.572 203.155 143.933 201.893 147.778C201.634 146.888 201.147 145.999 200.602 145.367C199.282 143.818 198.995 141.465 198.048 139.629C197.704 138.969 197.216 138.596 196.527 138.338C195.007 137.735 193.629 137.506 192.482 136.243C191.162 134.809 189.785 133.69 188.063 133.087C189.067 132.685 190.043 132.284 191.018 131.825C191.076 131.796 191.133 131.796 191.19 131.738C191.248 131.71 191.305 131.681 191.334 131.652C192.769 130.734 194.289 129.73 195.179 128.295ZM200.917 150.331C200.2 151.135 199.138 151.651 198.134 152.167C196.556 152.971 194.92 153.516 193.228 153.946C191.936 151.307 190.33 148.839 188.436 146.544C185.251 142.699 181.435 139.457 177.533 136.387C177.619 136.358 177.676 136.358 177.762 136.329C180.89 135.526 183.989 134.608 187.001 133.489C189.182 134.005 190.588 135.239 192.166 136.903C192.769 137.506 193.4 137.936 194.174 138.28C195.351 138.768 196.9 138.826 197.503 140.088C197.876 140.891 198.105 141.752 198.507 142.556C198.88 143.302 198.966 144.191 199.339 144.908C199.626 145.482 200.2 145.884 200.544 146.429C201.003 147.175 201.405 148.151 201.405 149.069C201.29 149.327 201.175 149.556 201.032 149.786C200.86 149.987 200.86 150.159 200.917 150.331ZM177.131 90.5649C180.201 95.3279 181.378 101.009 181.205 106.604C181.205 107.006 181.177 107.407 181.148 107.838C180.775 107.35 180.431 106.862 180.087 106.346C179.541 105.485 179.455 104.337 178.824 103.534C177.992 102.444 175.582 103.304 175.61 101.611C175.639 100.234 176.356 99.2013 175.381 97.9676C174.664 97.0494 173.545 96.7338 172.512 96.3321C170.302 95.4713 168.638 93.9219 169.528 91.3396C170.073 89.7616 171.221 88.4417 171.622 86.8062C171.794 86.1176 171.852 85.4003 171.794 84.683C173.889 86.4045 175.725 88.3843 177.131 90.5649ZM167.261 28.0442C169.241 22.2771 173.889 17.3707 179.541 15.104C185.567 12.6651 192.482 13.0668 198.45 15.5057C201.462 16.7394 204.618 18.4897 206.713 21.0146C209.037 23.7978 209.726 27.9582 209.123 31.4873C208.377 35.7625 203.959 36.5372 200.257 36.7093C196.9 36.8528 193.916 35.9346 190.76 35.246C190.559 34.2705 190.301 33.2663 189.842 32.4055C189.211 31.2004 188.35 30.9422 187.03 31.0856C186.657 31.1143 186.313 31.2004 185.94 31.2004C185.108 31.2004 184.706 30.7126 184.218 30.1388C183.759 29.5936 183.444 29.1632 182.755 28.905C181.636 28.4746 180.316 28.6755 179.283 29.2493C177.935 29.9953 177.131 31.4299 176.557 32.8072C176.443 33.0654 176.299 33.8975 176.07 34.0696C175.754 34.2992 175.209 34.1844 174.836 34.2418C174.061 34.3853 173.315 34.7009 172.684 35.16C170.073 36.9389 168.983 40.5541 168.437 43.7103C166.486 38.603 165.396 33.4384 167.261 28.0442ZM173.975 64.7418C174.635 58.286 172.225 52.5475 169.7 46.7517C169.442 46.1491 169.183 45.5466 168.925 44.9441C169.499 40.9845 171.192 34.2992 176.242 34.9017C176.414 34.9304 176.529 34.787 176.586 34.6435C177.275 32.6637 178.135 30.1962 180.345 29.5076C181.607 29.1346 182.755 29.3928 183.53 30.4544C183.874 30.9422 184.132 31.4013 184.677 31.6882C186.026 32.3481 187.891 30.9996 188.952 32.3481C189.498 33.0654 189.756 34.127 189.957 35.0739C189.727 35.0452 189.526 34.9878 189.297 34.9591C186.6 34.5 183.53 34.6435 181.435 36.6233C179.427 38.4883 179.025 41.4723 179.312 44.0546C179.713 48.0141 181.406 51.6868 182.382 55.5315C183.271 59.032 183.558 62.6759 183.329 66.2912C182.87 73.5791 180.144 80.6661 175.582 86.3472C173.143 83.7075 170.216 81.4982 167.146 79.7479C171.02 75.6449 173.401 70.3368 173.975 64.7418ZM130.85 81.0678C136.273 78.4281 142.126 76.4483 148.181 76.2188C153.776 76.0179 159.6 77.5386 164.621 80.0061C166.831 81.0965 169.011 82.445 171.02 84.0231C171.307 85.7159 170.848 87.2366 169.987 88.8147C169.269 90.1059 168.495 91.4544 168.552 92.9751C168.638 96.1886 171.967 96.4756 174.09 97.7954C176.012 99.0005 174.491 100.779 175.008 102.444C175.324 103.505 176.07 103.505 177.016 103.62C178.652 103.821 178.91 105.829 179.685 107.006C180.115 107.666 180.574 108.297 181.062 108.899C180.488 114.523 178.451 119.745 176.299 124.967C175.955 125.828 177.332 126.201 177.676 125.34C178.221 123.992 178.767 122.672 179.283 121.323C182.238 120.893 185.854 120.778 188.952 121.352C191.133 121.754 194.002 122.528 194.433 125.053C194.892 127.693 192.396 129.271 190.473 130.419C182.554 134.091 173.946 135.526 165.626 137.936C156.329 140.633 146.803 141.924 137.191 143.015C132.371 143.56 127.264 143.703 123.161 146.601C123.103 146.63 123.075 146.659 123.046 146.716C120.722 148.323 118.226 149.843 115.414 150.417C113.635 150.79 111.655 150.934 110.622 149.183C109.819 147.806 109.79 146.171 110.766 144.908C111.34 144.191 110.077 143.474 109.532 144.191C108.327 145.769 108.356 148.265 109.388 150.016C108.269 151.594 105.773 152.627 103.994 151.508C101.957 150.245 102.674 147.261 103.707 145.654C104.195 144.88 102.961 144.162 102.474 144.937C101.584 146.343 101.068 148.294 101.383 149.987C99.6904 149.47 98.6575 147.634 98.5714 145.913C98.4854 143.933 99.2314 141.953 100.006 140.145C101.642 136.329 104.367 134.034 108.212 132.571C115.27 129.873 123.218 130.619 130.363 132.571H130.391C130.42 132.571 130.449 132.599 130.477 132.599C131.195 132.743 131.941 132.858 132.658 133.001C133.146 133.087 133.748 132.685 133.547 132.112C133.404 131.71 133.318 131.337 133.261 130.964C133.748 131.165 134.265 131.222 134.81 131.165C135.24 131.107 135.671 130.734 135.499 130.246C135.154 129.242 134.753 128.295 134.265 127.406C135.728 127.635 137.191 127.75 138.683 127.75C139.171 127.75 139.487 127.291 139.372 126.832C138.769 124.078 137.65 121.495 136.618 118.913C135.556 116.273 134.523 113.605 133.461 110.965C131.625 106.374 129.904 101.698 126.891 97.738C128.412 92.5734 130.047 87.4662 130.764 82.1294C130.764 81.7564 130.822 81.4121 130.85 81.0678ZM130.477 156.443C130.563 158.049 131.08 159.312 132.4 160.287C134.265 161.665 135.613 162.812 136.474 165.05C137.105 166.686 137.421 168.407 137.708 170.129C132.859 171.908 127.78 172.998 122.644 173.715C117.709 174.404 112.745 174.949 107.753 175.322C108.241 173.658 107.954 171.85 106.892 170.416C106.605 170.014 106.146 169.756 105.859 169.383C105.228 168.58 105.228 167.747 105.314 166.829C105.429 165.739 105.285 164.591 104.798 163.587C103.679 161.263 101.154 161.033 99.174 159.8C95.8744 157.734 96.7351 153.459 97.5672 150.302C98.0263 150.274 98.4854 150.216 98.9444 150.188C99.6904 150.934 100.695 151.421 101.928 151.565C102.244 152.053 102.646 152.454 103.22 152.799C105.515 154.176 108.642 153.143 110.278 151.192C110.794 151.651 111.426 151.967 112.172 152.081C116.016 152.655 119.919 150.589 123.103 148.437C125.456 149.011 127.637 149.901 129.645 151.077C130.793 152.54 130.363 154.635 130.477 156.443ZM130.85 151.823C134.265 154.119 137.048 157.303 139.028 161.091C140.233 163.386 141.18 165.825 142.012 168.293C140.807 168.866 139.602 169.383 138.368 169.842C137.823 166.428 136.991 162.726 134.093 160.546C133.002 159.742 131.855 159.226 131.396 157.82C131.051 156.73 131.166 155.582 131.166 154.463C131.195 153.573 131.137 152.655 130.85 151.823ZM54.6434 161.349C53.4957 160 51.9176 158.996 50.9995 157.476C49.6509 155.266 50.6265 152.799 51.1716 150.503C52.4341 150.331 53.8113 149.585 54.8729 149.011C55.7624 150.016 57.197 150.589 58.5169 150.589C61.3861 150.561 63.0503 148.552 64.3414 146.257C65.8908 146.974 67.4689 147.605 69.0757 148.151C69.0183 148.179 68.9609 148.265 68.9322 148.351C67.6697 152.741 66.2925 158.681 70.4242 162.095C71.4571 162.927 72.6909 163.329 73.8099 163.989C74.4698 164.39 75.1871 164.878 75.5602 165.567C76.1053 166.514 75.8471 167.547 75.7036 168.551C75.4167 170.272 75.5602 172.023 76.5644 173.429C73.8386 173.256 71.1702 173.486 68.3871 173.802C64.6857 174.232 61.2713 174.06 57.6848 173.056C57.3118 172.941 56.9675 172.855 56.5945 172.74C56.5945 172.711 56.6232 172.683 56.6232 172.625C56.824 169.039 57.1683 164.304 54.6434 161.349ZM76.2775 169.699C76.3348 168.666 76.7079 167.661 76.6218 166.628C76.4496 164.649 74.6994 163.616 73.0926 162.812C70.5103 161.579 68.9322 159.8 68.4731 156.902C68.0141 154.061 68.8461 151.249 69.6208 148.552C69.6495 148.466 69.6495 148.409 69.6208 148.323C70.8259 148.724 72.0597 149.097 73.3222 149.384C81.0691 151.307 88.9308 150.991 96.7925 150.331C96.1613 152.713 95.6161 155.238 96.5343 157.619C97.4237 159.914 99.3461 160.66 101.469 161.579C103.076 162.296 104.253 163.358 104.539 165.136C104.74 166.313 104.195 167.461 104.425 168.58C104.626 169.67 105.917 170.129 106.491 171.018C107.323 172.281 107.495 173.888 107.007 175.294C104.855 175.437 102.674 175.552 100.523 175.638C96.9073 175.753 93.2634 175.724 89.6768 175.38C85.9755 175.035 82.4176 174.203 78.745 173.629C78.3433 173.572 77.9703 173.515 77.5973 173.486C77.5973 173.457 77.5686 173.457 77.5686 173.429C76.5357 172.453 76.2201 171.133 76.2775 169.699ZM134.58 117.421C132.888 117.22 132.228 115.212 130.391 114.982C129.129 114.81 127.981 114.982 127.551 113.461C127.293 112.572 127.321 111.711 126.948 110.85C126.26 109.33 124.997 108.526 123.706 107.637C120.578 105.514 125.313 101.898 127.178 100.636C129.444 104.251 130.908 108.383 132.457 112.342C133.117 114.035 133.863 115.728 134.58 117.421ZM82.2455 74.8128C86.0616 74.1816 89.849 74.4111 93.579 75.0997C93.0625 77.3091 91.341 78.9158 89.0456 79.4323C87.2379 79.834 85.1434 79.7479 83.7375 81.1825C83.0776 81.8712 82.9628 82.7319 82.475 83.5066C81.8725 84.4535 80.7535 84.7404 79.7779 85.0847C78.2572 85.5725 76.9948 86.0602 76.134 87.4662C75.3593 88.7286 74.7281 89.7615 73.0352 89.5607C71.7441 89.3885 70.7685 88.6139 69.793 87.8392C68.4157 86.7488 67.0959 85.7733 65.2596 85.7159C63.4807 85.6872 61.8165 86.4332 60.2671 87.3514C65.9769 80.8956 73.7238 76.2188 82.2455 74.8128ZM54.0696 93.6924C52.8071 91.1101 51.7455 88.3843 50.9708 85.6299C50.5117 83.9944 50.2822 81.1538 52.0324 80.1783C54.7582 78.6289 59.2916 82.1868 61.4435 84.0805C58.5456 86.921 56.078 90.1632 54.0696 93.6924ZM46.9252 87.0071C46.2078 82.9328 45.3184 75.3867 51.1142 74.985C54.2704 74.7841 57.0823 75.8458 59.9515 77.0508C62.1321 77.969 64.3414 78.8298 66.4647 79.8914C64.8579 81.0104 63.3946 82.2155 61.9887 83.5353C59.5211 81.3834 54.5286 77.5099 51.4299 79.6905C49.8231 80.8095 49.8518 83.2771 50.1387 84.9986C50.3969 86.5193 51.0569 88.0687 51.5733 89.5033C52.1759 91.1962 52.8932 92.8316 53.6679 94.4097C52.7497 96.0739 51.9463 97.7667 51.229 99.5457C49.3066 95.5574 47.7285 91.397 46.9252 87.0071ZM49.1058 132.485C49.5649 131.652 50.0239 130.505 49.1919 129.787C48.9336 129.558 48.6467 129.529 48.3311 129.673C47.4416 130.046 46.7243 130.648 45.8062 130.964C45.4618 131.079 45.1175 131.165 44.7732 131.251C47.4129 126.516 47.872 120.979 48.5606 115.671C49.4501 108.785 51.3151 101.985 54.4713 95.7869C55.6476 93.4629 57.0823 91.2536 58.7177 89.1877C61.587 87.294 64.8866 85.2568 68.1288 87.4662C69.6782 88.5278 70.9981 90.0198 72.9778 90.278C74.9576 90.5362 75.7897 89.3025 76.7365 87.8105C77.9416 85.9168 80.0649 86.0315 81.8438 84.9986C82.5037 84.6256 82.9341 84.1378 83.2784 83.4492C83.594 82.818 83.7088 82.1868 84.2253 81.6703C84.713 81.1825 85.3729 80.8956 86.0329 80.6948C88.0987 80.0635 90.2507 80.2644 92.0009 78.8585C93.1773 77.9403 93.9233 76.6491 94.2389 75.2432C98.1984 76.0466 102.101 77.3091 105.888 78.5428C106.003 78.5715 106.118 78.6002 106.204 78.5715C106.433 78.6863 106.72 78.6576 106.978 78.4281C109.876 75.4154 113.061 72.6896 116.762 70.7098C118.627 69.7056 120.607 68.9596 122.673 68.4718C123.763 68.2136 125.37 67.7545 126.432 68.3857C127.206 68.8448 127.637 69.763 127.981 70.5377C129.904 74.7554 129.789 79.2601 128.985 83.7362C128.153 88.4417 126.69 93.0038 125.341 97.5946C125.284 97.7954 125.313 97.9676 125.37 98.0823C125.399 98.1971 125.428 98.2832 125.514 98.398C125.944 98.9431 126.346 99.4883 126.719 100.062C125.6 100.837 124.538 101.698 123.62 102.731C122.903 103.534 121.841 104.567 121.669 105.686C121.525 106.661 122.157 107.436 122.845 108.01C124.194 109.072 125.714 109.703 126.346 111.453C126.948 113.146 126.575 115.355 128.899 115.642C129.961 115.786 130.707 115.585 131.596 116.417C131.969 116.761 132.228 117.191 132.629 117.507C133.289 118.024 134.007 118.224 134.781 118.196C135.9 120.864 136.933 123.561 137.65 126.316C136.044 126.258 134.466 126.086 132.888 125.77C132.314 125.656 131.711 126.258 132.084 126.832C132.687 127.722 133.174 128.668 133.605 129.644C133.347 129.529 133.117 129.357 132.888 129.099C132.428 128.582 131.711 129.041 131.654 129.615C131.596 130.275 131.596 130.878 131.711 131.48C131.367 131.423 131.051 131.365 130.707 131.308C130.678 131.308 130.678 131.308 130.65 131.308C130.621 131.308 130.621 131.279 130.592 131.279C122.128 128.955 111.942 128.209 104.109 132.972C100.379 135.239 98.0837 139.371 97.2229 143.588C96.8499 145.367 97.0221 147.376 97.8541 148.925C89.9063 149.614 81.9299 150.102 74.0682 148.237C66.9238 146.544 60.181 143.273 54.4426 138.682C54.4999 138.682 54.5286 138.653 54.586 138.653C55.4755 138.453 55.1025 137.075 54.213 137.276C53.7826 137.362 51.975 137.879 51.6881 137.678C51.6881 137.678 52.3767 136.387 52.5202 136.128C52.8645 135.44 52.1759 134.866 51.5446 135.153C49.9952 135.842 48.4172 136.128 46.7817 136.1C47.6425 134.866 48.4459 133.718 49.1058 132.485ZM46.3226 137.42C47.6999 137.477 49.0484 137.334 50.3682 136.961C50.11 137.534 49.9665 138.137 50.3109 138.539C50.7699 139.084 51.7455 139.084 52.721 138.94C55.8772 141.551 59.349 143.818 63.0216 145.626C62.3903 146.745 61.6443 148.007 60.4967 148.61C59.2055 149.27 57.6848 149.356 56.4797 148.524C55.1886 147.634 55.332 146.199 55.6476 144.851C55.8485 143.961 54.4713 143.56 54.2704 144.478C54.0122 145.54 53.84 146.716 54.1556 147.778C53.1227 148.323 51.6594 149.212 50.5404 149.155C47.6712 148.983 47.6138 145.597 47.9294 143.502C48.0729 142.613 46.6956 142.211 46.5522 143.129C46.4087 144.019 46.2939 144.908 46.3226 145.798C43.9985 143.617 44.7158 140.031 46.3226 137.42ZM34.5587 151.307C35.4195 146.4 38.8913 142.556 43.5108 140.949C43.1378 143.502 43.8838 146.056 46.4374 147.634C46.5235 147.691 46.6382 147.72 46.7243 147.749C46.753 147.806 46.753 147.864 46.7817 147.921C47.3555 149.298 48.3311 149.872 49.6509 150.417C49.9092 150.503 50.1674 150.561 50.4256 150.589C49.9952 152.397 49.3066 154.291 49.6796 156.127C49.9952 157.705 51.0569 158.882 52.2046 159.972C53.7539 161.435 55.1599 162.784 55.5903 164.964C56.078 167.432 56.0493 170.072 55.9059 172.596C53.0653 171.764 50.2535 170.875 47.3269 170.387C44.3428 169.899 40.6415 169.44 38.6618 166.858C38.6618 166.829 38.6331 166.829 38.6331 166.801C35.7351 162.181 33.6119 156.816 34.5587 151.307ZM145.024 225.878C143.217 226.165 141.352 226.05 139.544 226.423C137.077 226.94 134.867 228.317 132.428 229.006C129.703 229.752 126.92 229.981 124.108 229.752C121.927 229.58 119.775 229.235 117.623 229.092C117.681 228.891 117.652 228.69 117.709 228.374C118.025 226.796 118.197 227.542 119 226.911C119.287 226.682 119.402 226.452 119.402 226.079C119.402 225.218 118.857 224.558 119.201 223.611C119.689 222.292 120.148 221.287 119.517 219.91C119.173 219.135 118.599 218.504 118.197 217.758C117.594 216.697 117.365 215.549 117.365 214.344C117.365 212.135 117.91 209.897 118.455 207.773C118.943 205.794 119.775 203.842 120.062 201.805C120.32 199.998 119.746 198.276 119.259 196.555C118.57 194.173 117.91 191.792 117.221 189.41C117.107 188.98 116.389 189.152 116.533 189.611C117.135 191.734 117.738 193.829 118.34 195.952C118.972 198.161 119.746 200.285 119.201 202.58C118.312 206.339 116.848 209.983 116.676 213.885C116.619 215.377 116.848 216.84 117.594 218.16C118.054 218.963 118.771 219.681 119.029 220.57C119.345 221.632 118.886 222.435 118.541 223.411C118.34 223.927 118.197 224.444 118.283 224.989C118.398 225.735 118.8 226.022 117.939 226.596C117.623 226.796 117.279 226.825 117.078 227.169C116.762 227.686 117.221 228.633 116.877 229.092C116.332 229.063 115.787 229.063 115.242 229.063C115.213 229.063 115.184 229.063 115.156 229.063C115.127 229.063 115.07 229.063 115.041 229.063C110.766 229.293 106.491 229.723 102.215 230.067C100.207 230.239 98.1411 230.498 96.1326 230.412C94.0667 230.326 92.4313 229.006 90.3941 228.862C88.0987 228.719 85.7459 229.034 83.4219 228.977C80.8682 228.891 78.3433 228.805 75.8184 228.461C72.7196 228.03 69.6495 227.485 66.5794 226.94C64.4275 226.567 62.2469 226.165 60.095 225.763C57.8283 225.276 55.5042 224.759 53.3809 223.812C51.0569 222.779 49.3353 221.115 47.8433 219.078C46.38 217.07 45.0028 214.975 43.5968 212.938C42.2483 210.958 40.8711 208.978 39.8094 206.855C38.6904 204.588 37.9731 202.15 38.2027 199.596C38.2888 198.477 38.5183 197.358 38.2888 196.239C38.0305 195.063 37.2271 194.173 36.8541 193.083C36.1655 191.046 37.7149 188.98 37.3132 186.914C37.1411 186.053 36.682 185.393 36.1368 184.733C35.7351 184.246 35.0465 183.672 34.9891 183.04C34.9031 182.151 35.5056 181.692 35.9647 181.061C37.2845 179.282 36.4811 176.699 36.8254 174.634C37.1984 172.396 37.5141 170.158 37.8871 167.92C37.9731 167.92 38.0305 167.92 38.1166 167.92C39.6086 169.584 41.7031 170.416 43.8551 170.904C46.9252 171.621 49.9952 171.965 53.0366 172.883C56.3076 173.888 59.5785 175.064 63.0503 175.294C66.8377 175.523 70.5677 174.548 74.3551 174.519C78.2859 174.49 82.102 175.638 85.9468 176.212C89.6768 176.757 93.4355 176.986 97.1942 176.958C104.97 176.929 112.803 176.126 120.521 175.179C128.067 174.261 135.47 172.683 142.385 169.469C142.614 170.158 142.815 170.846 143.045 171.506C144.192 175.294 145.311 179.081 146.115 182.954C148.467 194.144 147.348 205.794 146.143 217.07C145.799 219.939 145.455 222.923 145.024 225.878ZM185.911 212.421C181.952 214.545 177.734 216.266 173.631 218.074C169.327 219.968 164.937 221.775 160.346 222.779C156.128 223.698 151.796 223.784 147.693 225.19C147.578 225.19 147.463 225.19 147.32 225.247C146.947 225.419 146.545 225.563 146.143 225.677C147.205 217.816 148.008 209.897 148.353 201.977C148.611 195.981 148.525 190.07 147.406 184.159C146.631 179.999 145.483 175.896 144.25 171.85C143.188 168.321 142.04 164.763 140.405 161.435C137.105 154.721 131.482 149.643 124.251 147.634C128.153 145.08 132.945 144.966 137.45 144.478C142.069 143.961 146.689 143.474 151.279 142.699C159.686 141.293 167.921 138.854 176.184 136.731C183.214 142.269 190.158 148.437 193.371 157.045C195.207 161.952 196.154 167.26 196.843 172.424C197.531 177.646 197.818 182.926 197.704 188.205C197.56 194.259 196.872 200.285 195.666 206.224C192.309 208.089 189.325 210.585 185.911 212.421ZM208.894 184.504C208.521 187.143 208.148 189.783 207.746 192.423C207.43 194.661 207.258 197.186 206.139 199.223C205.393 200.572 204.073 201.576 202.811 202.408C201.061 203.584 199.138 204.588 197.187 205.421C197.101 205.421 197.044 205.449 196.958 205.478C196.929 205.507 196.9 205.507 196.872 205.535C198.88 195.149 199.339 184.475 198.105 173.974C197.503 168.78 196.613 163.472 195.007 158.48C194.605 157.275 194.174 156.098 193.629 154.922C195.638 154.405 197.531 153.688 199.396 152.713C200.401 152.196 201.261 151.622 201.893 150.819C201.979 150.79 202.065 150.704 202.122 150.618C203.098 152.483 203.959 154.434 204.963 156.299C206.053 158.336 206.713 160.804 206.856 163.128C207 165.395 206.943 167.518 207.488 169.727C208.09 172.137 209.439 174.375 209.611 176.9C209.84 179.397 209.238 182.008 208.894 184.504Z" fill="#1C2027"/>
    <path d="M91.1976 122.499C92.0871 120.261 94.8989 118.138 97.3378 118.167C99.834 118.224 101.269 120.405 101.728 122.643C101.871 123.331 102.904 123.045 102.761 122.356C102.216 119.659 100.293 117.134 97.3378 117.105C94.3538 117.077 91.2263 119.515 90.1647 122.212C89.9065 122.872 90.9681 123.159 91.1976 122.499Z" fill="#1C2027"/>
    <path d="M59.894 122.27C60.9843 120.405 62.218 118.425 64.5134 118.081C65.5751 117.937 66.9236 117.909 67.8418 118.511C69.0181 119.286 69.592 120.806 69.7928 122.155C69.9076 122.844 70.9405 122.557 70.8258 121.868C70.3093 118.741 68.2721 116.79 65.0586 116.962C62.0172 117.134 60.3817 119.286 58.9184 121.753C58.6028 122.327 59.5497 122.872 59.894 122.27Z" fill="#1C2027"/>
    <path d="M79.0604 126.975C80.1508 127.377 80.9255 127.09 81.9584 126.574C82.7905 126.172 84.2251 125.541 84.4833 124.565C85.0572 122.327 80.782 122.901 79.6917 122.901C78.4005 122.901 76.9946 122.671 76.5068 123.475C76.4781 123.503 76.4781 123.503 76.4494 123.532C75.2444 125.024 77.8554 126.545 79.0604 126.975ZM78.3431 123.963C78.8883 123.963 79.4048 123.963 79.9499 123.963C80.409 123.963 83.3356 123.704 83.3069 124.479C83.2782 124.709 82.0444 125.311 81.8436 125.397C81.2124 125.741 80.5238 126.143 79.7778 126.057C79.5195 126.028 77.9988 125.282 77.3963 124.737C77.3963 124.709 77.3963 124.651 77.3963 124.622C77.2241 123.647 77.6258 123.963 78.3431 123.963Z" fill="#1C2027" stroke="#1C2027" stroke-width="0.5" stroke-miterlimit="10"/>
    <path d="M79.7202 131.193C80.2366 132.197 81.0687 132.943 82.4172 133.001C84.5692 133.058 86.4916 131.451 87.6106 129.758C87.9836 129.185 87.0654 128.639 86.6924 129.213C85.889 130.447 84.6266 131.595 83.1345 131.882C80.8965 132.312 80.3227 130.246 80.0071 128.525C79.8923 127.836 78.8594 128.123 78.9742 128.812C79.0315 129.213 79.1176 129.586 79.2324 129.988C78.3429 131.824 75.9615 131.853 75.0433 130.017C74.7277 129.385 73.8095 129.931 74.1251 130.562C75.2728 132.829 78.2282 133.029 79.7202 131.193Z" fill="#1C2027"/>
    <path d="M113.663 84.7404C114.209 84.7978 114.811 84.3674 115.27 84.9413C115.356 85.0561 115.241 85.2856 115.356 85.4291C115.701 85.8021 115.844 85.8021 116.332 85.9168C117.106 86.089 117.479 86.0603 117.393 86.9498C117.365 87.208 117.307 87.4662 117.336 87.7244C117.393 88.1261 117.508 88.4705 117.881 88.6713C118.111 88.7861 118.254 88.7 118.484 88.7861C119.201 89.073 119.545 89.5034 119.976 90.0772C120.435 90.7372 121.123 91.2536 121.554 91.9422C121.611 92.0283 121.669 92.057 121.726 92.0857C121.869 92.2005 122.099 92.1718 122.185 91.9709C123.476 89.073 124.366 86.0029 124.767 82.8467C125.054 80.58 125.599 77.137 124.05 75.1572C122.472 73.1487 119.976 74.4972 118.254 75.5015C115.442 77.1656 112.946 79.2602 110.765 81.699C110.708 81.7564 110.679 81.8425 110.679 81.9286C110.651 82.0147 110.679 82.1007 110.708 82.1868C111.282 83.3058 112.315 84.597 113.663 84.7404ZM117.135 77.0796C119.086 75.7597 122.874 73.1487 123.993 76.6779C124.681 78.8585 124.251 81.5843 123.907 83.7936C123.505 86.3185 122.788 88.7574 121.783 91.1102C121.439 90.7085 121.066 90.3642 120.722 89.9338C120.349 89.446 120.148 88.7574 119.603 88.3844C118.799 87.8105 118.139 88.4131 118.111 86.9498C118.111 86.462 118.283 86.0029 117.996 85.5438C117.738 85.1708 117.422 85.1708 116.992 85.0848C115.27 84.7691 116.504 84.8552 115.844 84.0805C115.528 83.7075 115.127 83.7936 114.725 83.7936C113.032 83.8797 112.257 83.4206 111.397 82.0147C113.118 80.1783 115.012 78.4855 117.135 77.0796Z" fill="#1C2027"/>
</svg>
