<svg width="244" height="244" viewBox="0 0 244 244" fill="none" xmlns="http://www.w3.org/2000/svg">
    <path d="M79.2664 159.092C79.4958 159.005 80.8718 158.256 80.6998 157.881C80.6138 157.679 78.3204 157.622 78.1484 157.622C77.747 157.622 76.3136 157.593 75.7402 157.794C76.2276 158.169 76.7149 158.515 77.231 158.832C77.9477 159.265 78.4924 159.409 79.2664 159.092Z" fill="#1C2027" stroke="#1C2027" stroke-width="0.5" stroke-miterlimit="10"/>
    <path d="M55.0487 130.422C53.7288 127.265 48.4207 115.529 54.733 115.041C56.1964 114.927 57.7171 115.587 58.9795 116.247C60.5576 117.079 62.2218 117.94 63.599 119.116C64.5458 118.226 65.5501 117.394 66.583 116.62C64.8328 115.185 62.9391 113.779 60.9306 112.717C57.8031 110.995 52.5237 108.528 50.3718 112.861C48.5642 116.476 49.425 121.182 50.0849 124.998C50.6874 128.47 51.5482 131.885 52.8107 135.156C53.4706 133.521 54.2166 131.971 55.0487 130.422Z" fill="white"/>
    <path d="M121.989 137.143C120.354 138.204 119.407 140.041 120.497 141.934C121.014 142.824 121.53 143.455 121.559 144.517C121.587 146.668 119.665 147.816 118.317 149.193C117.17 150.398 116.969 152.837 118.805 153.612C120.124 154.186 121.616 153.296 122.936 153.124C124.198 152.952 125.518 153.296 126.522 154.014C126.091 152.091 125.661 150.169 125.231 148.247C124.313 144.488 123.165 140.815 121.989 137.143Z" fill="#2A0042" stroke="#1C2027" stroke-width="0.5" stroke-miterlimit="10"/>
    <path d="M58.2818 140.536C59.8886 140.536 60.8354 139.646 61.2084 138.126C61.5814 136.577 61.4093 134.885 62.4709 133.594C63.4751 132.36 65.0819 131.987 66.6026 131.844C68.3815 131.672 70.4761 132.159 72.1689 131.5C74.3496 130.639 73.2879 127.312 73.2592 125.476C73.2592 124.041 72.6854 121.431 73.747 120.255C74.6365 119.251 76.1572 119.653 77.2762 119.222C78.4812 118.763 77.7926 116.841 77.8787 115.78C77.9361 115.149 78.1083 114.518 78.3665 113.944C78.6821 113.227 79.0838 112.625 79.6003 112.108C69.3858 114.346 61.065 122.062 56.216 131.184C54.3797 134.655 52.9737 138.355 51.9121 142.142C53.0598 141.339 54.2649 140.363 55.6134 140.249C56.5316 140.105 57.3924 140.536 58.2818 140.536Z" fill="#2A0042" stroke="#1C2027" stroke-width="0.5" stroke-miterlimit="10"/>
    <path d="M53.4328 122.667C54.0641 124.876 54.8101 127.056 55.6708 129.208C57.6219 125.794 59.9747 122.609 62.7865 119.855C60.9789 118.306 58.3966 116.843 56.1299 116.269C51.9408 115.236 52.7155 120.199 53.4328 122.667Z" fill="#DB797E" stroke="#1C2027" stroke-width="0.5" stroke-miterlimit="10"/>
    <path d="M131.26 162.063C131.26 162.036 131.26 162.01 131.26 161.984C131.26 161.984 131.26 161.984 131.26 162.01C131.26 162.036 131.26 162.036 131.26 162.063Z" fill="#F52341" stroke="#1C2027" stroke-width="0.5" stroke-miterlimit="10"/>
    <path d="M60.771 111.023C63.3243 112.171 65.7343 113.978 67.8573 115.757C68.4024 115.384 68.9475 115.011 69.5213 114.667C74.2838 111.769 79.7922 109.99 85.3866 109.933C91.4402 109.875 97.2641 111.998 102.4 115.126C106.014 112.085 109.744 109.129 114.134 107.322C116.83 106.203 120.732 104.797 123.372 106.776C126.585 109.215 126.7 114.036 126.212 117.68C126.04 118.913 125.954 120.147 125.724 121.381C125.466 122.615 125.007 123.848 124.634 125.053C123.859 127.664 123.142 130.304 122.281 132.915C123.831 137.678 125.466 142.412 126.614 147.29C127.187 149.729 127.704 152.168 128.278 154.607C128.851 157.132 129.827 159.255 131.233 161.435C131.261 161.493 131.29 161.55 131.319 161.579C130.688 151.938 131.663 142.269 131.749 132.628C131.806 127.378 131.548 121.955 130.831 116.733C130.429 113.749 129.884 110.506 128.593 107.781C127.503 105.457 125.81 103.62 123.343 102.731C121.794 102.186 120.158 101.841 118.523 101.583C111.982 100.435 105.24 100.378 98.6126 100.55C91.7557 100.722 84.8989 101.239 78.0708 101.956C73.4231 102.444 68.7754 103.018 64.1563 103.706C63.4104 103.821 62.6645 103.878 61.9472 104.051C59.3652 104.596 54.4306 105.6 54.6601 108.986C56.7257 109.187 58.9061 110.191 60.771 111.023Z" fill="#DDDDDD" stroke="#1C2027" stroke-width="0.5" stroke-miterlimit="10"/>
    <path d="M101.562 61.1233C99.0378 65.0542 103.054 69.0424 105.55 71.5961C107.443 73.5184 109.021 76.0434 108.218 78.7405C111.431 79.0274 114.644 79.3717 117.885 79.4004C119.234 79.4004 120.652 79.6435 122 79.5C122.029 79.4713 122.32 79.4865 122.32 79.1995C122.923 78.4822 122.943 76.3608 123 75.5C123.057 74.7253 123 74.2747 123 73.5C123.029 71.4915 122.492 69.4059 121 68C119.795 66.8523 118.463 65.8034 117 65C115.594 64.2253 113.906 63.8034 112.5 63C110.234 61.7088 108.943 59.7258 109 57C109.029 55.3645 109.955 53.492 110.5 52C110.443 52.0861 109.71 52.6878 109.652 52.7452C108.476 54.2372 107.214 55.6431 105.837 56.9916C104.546 58.3115 102.595 59.5453 101.562 61.1233Z" fill="#E79DA0"/>
    <path d="M119 57C122.73 58.4059 126.77 59.1515 130.5 60.5C137.53 63.0249 135.906 71.5894 134.5 77.5C136.164 77.1844 138.039 76.5103 139.703 76.1373C139.789 76.08 140.062 76.1148 140.109 76.1373C140.999 76.08 142.098 75.1886 142.5 74.5C143.016 73.6679 143.799 72.4468 144 71.5C144.373 69.635 143.835 67.2789 143.261 65.5C141.913 61.2822 138.103 58.3198 134 57C129.581 55.5654 125.034 54.5903 120.5 53.5C118.635 53.0696 116.992 53.2051 115.5 52C115.156 51.7131 114.287 50.8443 114 50.5C114.23 51.0452 114.213 51.9835 114.5 52.5C115.418 54.0494 117.221 56.3114 119 57Z" fill="#E69DA0"/>
    <path d="M109.861 58.5157C110.779 62.2749 115.282 62.9923 118.093 64.8001C120.445 66.2923 123.17 68.4732 123.629 71.3428C123.887 72.921 123.744 74.6141 123.572 76.2211C123.486 77.1393 123.457 78.2011 123.142 79.0907C125.235 78.8324 127.329 78.488 129.395 78.115C130.743 77.8854 132.652 77.7583 134 77.5C134.947 73.6548 135.648 69.4026 134.5 65.5C133.898 63.4339 132.508 61.7748 130.5 61C128.837 60.3687 126.721 59.9591 125 59.5C121.816 58.6391 118.18 58.1974 116 55.5C114.193 53.2904 113 50.5 112 48C111.541 51.3574 109.029 55.1296 109.861 58.5157Z" fill="#DB797E"/>
    <path d="M106.716 78.6014C106.859 78.6014 107.328 79 107.5 79C109.05 75.0978 104.008 71.611 102 69C100.308 66.7907 99.5949 63.611 101 61C101.804 59.4793 102.767 58.6477 104 57.5C105.377 56.2088 107.296 54.9633 108.5 53.5C108.644 53.3278 108.886 52.1722 109 52C108.398 52.5165 107.203 53.639 106.572 54.0981C104.478 55.6762 102.324 56.7662 100 58C97.2749 59.4346 94.2342 60.9873 93.0007 64C91.3369 68.0456 91.8733 73.7291 95 77C98.8453 78.0915 103 78.5 106.716 78.6014Z" fill="#DB797E"/>
    <path d="M57 90C59.3815 89.6557 61.6185 89.2008 64 89C74.9318 88.0818 86.0108 87.6435 97 87.5C103.8 87.4139 110.229 87.4835 117 88C120.099 88.2295 129.758 89.9834 133 90.4998C133 89.9998 128.373 87.172 128 86.9998C125.475 85.8234 124.369 83.0572 121.5 82.9998C120.094 82.9711 113.877 82.3109 112.5 82.1388C111.438 81.9953 110.976 81.9015 110 81.4998C107.532 80.4669 104.611 80.6468 102 80.0443C96.4337 78.7531 91.595 79.5285 86 79.4998C81.5527 79.4998 77 77.9997 73.3531 80.0443C71.4307 80.6755 69.4224 80.8686 67.5 81.4998C61.0155 83.7091 54.1976 86.016 48 89C46.0202 89.9468 43.6929 91.7088 42 93C43.4633 92.3401 45.8645 91.7869 47.5 91.5C50.6562 90.9262 53.8151 90.4591 57 90Z" fill="#FF6177"/>
    <path d="M109.809 120.207C110.497 119.805 111.186 119.404 111.875 119.002C112.219 118.801 112.707 119.059 112.678 119.461C112.649 119.863 112.649 120.236 112.535 120.609C112.535 120.551 112.219 121.556 112.104 121.671C112.248 121.642 113.108 121.613 113.252 121.671C113.625 121.814 113.826 122.101 113.883 122.503C113.912 122.847 113.539 123.363 113.682 123.564C113.768 123.679 114.514 123.507 114.715 123.622C115.002 123.765 115.059 123.966 115.146 124.224C115.404 124.97 115.461 125.516 115.978 126.176C116.064 126.29 116.265 126.577 116.465 126.807C117.269 124.913 118.216 123.077 118.904 121.154C119.622 119.203 121.027 115.386 118.99 113.837C117.154 112.431 113.797 114.698 112.133 115.673C110.469 116.678 108.891 117.797 107.312 118.916C107.743 119.232 108.173 119.576 108.546 119.978C109.235 120.609 108.948 120.695 109.809 120.207Z" fill="#DB797E" stroke="#1C2027" stroke-width="0.5" stroke-miterlimit="10"/>
    <path d="M179.5 135C179.07 131.787 181.811 129.656 182.5 126.5C183.246 123.028 182.828 119.058 183 115.5C183.172 111.799 181.52 107.857 180 104.5C178.68 101.602 178.705 98.4268 177.5 95.5001C176.18 92.2005 176.23 89.8858 176 86.5001C175.57 80.3026 169.922 75.6946 164.5 73.1984C163.295 72.9975 160.205 72.6722 159 72.5C154.037 71.7827 149.52 71.1843 144.5 71.5C144.299 72.332 144.012 73.5714 143.582 74.3461C142.979 75.4651 142.004 76.8423 140.713 77.3014C140.656 77.3588 140.57 77.3875 140.483 77.4162C138.332 77.9326 132.18 78.5984 130 79.0001C133.873 81.0086 140.426 84.4794 144.5 86.0001C148.086 87.3487 151.975 88.344 154.5 91.5001C159.377 97.5542 156.135 103.999 158 111C159.061 114.988 161.053 118.455 162 122.5C162.889 126.288 163.471 130.098 163.5 134C163.529 138.103 162.16 142.146 161.5 146.192C161.127 148.344 160.5 151.32 160.5 153.5C160.5 155.681 162.369 158.463 163 160.5C165.18 167.616 165.779 175.298 164 182.5C165.578 181.467 168.893 178.918 170.5 178C174.316 175.848 179.529 172.226 183 169.5C183.344 165.512 183.713 161.988 184 158C184.316 153.754 184.434 148.517 183 144.5C181.881 141.315 179.959 138.357 179.5 135Z" fill="#FF6177"/>
    <path d="M131.266 162.064C131.295 162.523 130.951 162.982 130.406 162.81C129.229 162.408 128.081 162.007 126.905 161.634C127.278 163.613 128.483 165.851 129.832 167.085C130.377 167.601 129.803 168.433 129.143 168.29C127.737 167.946 125.184 168.06 123.95 168.835C123.462 169.151 123.032 169.524 122.601 169.954C122.573 170.011 122.544 170.04 122.486 170.097C122.4 170.183 122.343 170.241 122.257 170.298C122.142 170.413 122.027 170.556 121.913 170.671C121.827 170.757 121.74 170.815 121.654 170.843C117.81 174.229 112.875 176.352 108.14 178.159C98.471 181.86 87.7113 183.869 77.3534 182.692C72.5904 182.147 67.5119 181.086 63.4663 178.389C61.2856 176.926 59.1911 175.29 57.0965 173.684C55.5758 172.507 54.1412 171.245 53.2805 169.552C52.7066 169.724 52.1328 169.868 51.5589 170.011C51.5302 172.134 51.6163 174.143 52.8214 175.979C55.4611 179.995 61.5726 180.254 65.8477 181.057C71.1271 182.032 76.4065 183.123 81.7433 183.782C87.1375 184.442 92.3021 183.983 97.5815 182.606C102.517 181.315 107.337 179.622 112.387 178.676C114.768 178.217 117.15 177.901 119.56 177.7C122.142 177.471 124.897 177.758 127.422 177.299C133.217 176.237 132.012 169.065 131.582 164.904C131.41 163.958 131.324 163.011 131.266 162.064Z" fill="#DDDDDD" stroke="#1C2027" stroke-width="0.5" stroke-miterlimit="10"/>
    <path d="M145.19 182.289C148.892 174.829 150.183 166.221 148.921 158.015C148.921 157.986 148.921 157.986 148.921 157.958C148.921 157.9 148.892 157.871 148.892 157.814C148.863 157.384 148.835 156.953 148.806 156.552C148.576 152.535 148.433 148.518 148.117 144.529C147.802 140.484 147.256 136.438 146.826 132.393C145.965 124.56 145.391 116.669 143.928 108.922C143.124 104.647 142.206 99.5685 139.652 95.9533C137.156 92.4241 132.594 91.3625 128.576 90.5591C116.267 88.1203 103.297 88.3785 90.8148 88.7228C81.2597 88.9811 71.7045 89.5262 62.178 90.387C61.805 90.4157 61.4032 90.4444 61.0302 90.5018C60.858 90.5304 60.6572 90.5305 60.7146 90.5305C58.1034 90.8748 55.4635 91.3051 52.8524 91.6208C50.6142 91.879 48.1465 92.1085 45.9944 92.7971C43.785 93.5145 41.346 94.6335 39.3947 95.982C38.4765 97.2158 37.7018 98.593 37.214 100.171C36.3245 102.926 36.0662 105.823 35.894 108.664C35.6932 111.763 35.4923 114.833 35.2915 117.932C34.8897 124.244 35.2341 130.47 35.6645 136.783C36.0662 142.98 36.4105 149.178 36.8983 155.347C37.3861 161.429 38.0461 167.541 39.4808 173.48C40.1695 176.378 41.0303 179.247 42.1207 182.03C43.2972 185.014 44.9901 187.023 48.0317 188.199C50.7003 189.232 53.5697 189.892 56.353 190.581C59.3659 191.355 62.3788 192.015 65.4204 192.647C71.7045 193.909 78.0459 194.827 84.4447 195.401C84.4447 195.401 84.4447 195.401 84.4734 195.401C89.6671 195.889 94.832 196.118 100.026 196.463C106.482 196.893 112.852 197.037 119.308 196.692C122.034 196.549 125.248 196.348 127.658 195.946C128.203 195.86 128.72 195.717 129.265 195.573C129.351 195.516 129.437 195.487 129.552 195.458C129.609 195.458 129.667 195.43 129.724 195.43C130.614 195.143 131.475 194.77 132.335 194.454C134.143 193.766 135.922 193.048 137.558 192.015C141.001 189.691 143.383 185.961 145.19 182.289ZM131.733 175.46C130.7 177.153 129.122 178.128 127.142 178.387C124.617 178.731 122.005 178.53 119.452 178.76C113.684 179.247 108.175 180.625 102.666 182.26C97.5867 183.752 92.4504 185.215 87.1133 185.215C81.5466 185.215 75.9799 183.982 70.528 183.006C67.6299 182.49 64.7318 181.944 61.8337 181.399C59.6816 180.998 57.5008 180.596 55.4922 179.649C53.6558 178.788 52.1637 177.411 51.2742 175.575C50.4707 173.882 50.3846 172.074 50.4133 170.238C49.5812 170.41 48.7491 170.553 47.9169 170.64C47.3431 170.697 47.0561 169.98 47.2857 169.549C48.1178 168 48.9499 166.479 49.6099 164.844C48.2613 165.59 46.7692 166.135 45.3345 166.766C44.7319 167.024 43.9571 166.45 44.3588 165.791C44.7032 165.217 45.0188 164.643 45.3345 164.069C45.3345 164.04 45.3631 163.983 45.3918 163.954C47.1422 160.597 47.7735 156.839 48.29 153.137C48.7778 149.752 49.323 146.423 50.1838 143.124C50.729 141.058 51.3602 139.021 52.1063 137.012C52.0202 136.955 51.9628 136.869 51.9341 136.754C50.1264 132.421 49.0073 127.831 48.376 123.182C47.8595 119.338 47.257 114.23 49.9542 110.959C50.9872 109.697 52.2211 109.152 53.5123 109.037C53.3975 107.315 54.4305 105.795 55.8939 104.963C58.7347 103.356 62.2354 102.926 65.4204 102.495C71.0445 101.692 76.6686 101.032 82.3213 100.544C89.7819 99.8555 97.2997 99.4251 104.818 99.5112C108.376 99.5685 111.963 99.7407 115.521 100.171C118.907 100.573 122.981 100.974 125.851 102.926C130.47 106.053 131.532 112.968 131.991 118.133C132.278 121.49 132.565 124.847 132.708 128.204C132.938 133.397 132.651 138.619 132.422 143.783C132.192 149.608 131.962 155.461 132.307 161.286C132.536 165.762 134.287 171.328 131.733 175.46Z" fill="white"/>
    <path d="M165.965 168.579C165.821 166.369 165.534 164.189 165.047 162.065C164.53 159.827 163.669 157.762 163.067 155.552C162.091 151.88 163.468 148.035 164.014 144.391C164.587 140.431 164.874 136.414 164.731 132.426C164.587 128.266 163.985 124.134 162.78 120.175C161.689 116.559 159.968 113.174 159.222 109.444C157.902 102.672 160.025 93.1464 153.627 88.3834C152.02 87.1783 150.012 86.6619 148.118 86.0019C146.253 85.3707 144.417 84.6821 142.609 83.9361C139.08 82.5015 135.608 80.866 132.251 79.0871C131.247 79.2592 130.004 79.2992 129 79.5C125.241 80.1599 121.816 80.5287 118 80.5C114.098 80.4713 110.373 79.8443 106.5 79.5C102.627 79.1557 98.7874 78.8608 95 78C94.9426 78 94.5574 78.0287 94.5 78C94.5861 78.0861 94.4139 77.9713 94.5 78C93.4958 76.9671 92.5165 75.7625 92 74.5C90.7949 74.8443 89.7051 74.7705 88.5 75C88.4713 75 88.0718 75.4793 88 75.5C83.7248 76.7338 79.6293 78.0255 75.3828 79.374C79.5145 80.1774 83.6749 80.6652 87.9214 80.5504C93.3156 80.4356 98.5089 79.8905 103.817 81.2103C106.428 81.8702 108.781 82.9606 111.277 83.9648C113.917 84.9977 116.413 84.3091 119.11 84.7108C121.549 85.0551 123.758 86.1167 125.939 87.1783C128.148 88.2113 130.443 89.0433 132.681 90.0763C133.772 90.4206 134.862 90.8223 135.895 91.2813C139.654 93.0029 141.72 96.0443 143.011 99.8604C144.589 104.48 145.507 109.3 146.167 114.149C147.171 121.437 147.831 128.811 148.634 136.128C149.409 143.387 149.897 150.589 150.299 157.848C151.676 167.001 150.098 176.469 145.622 184.589C143.785 187.946 141.433 191.16 138.19 193.283C137.961 193.426 137.731 193.57 137.502 193.684C140.285 192.91 143.039 192.02 145.765 191.016C150.557 189.237 155.062 186.913 159.595 184.532C161.259 183.671 162.893 182.947 164.5 182C165.734 177.667 166.223 173.026 165.965 168.579Z" fill="#F52341"/>
    <path d="M187 96.5C186.742 91.7944 186.856 86.7013 183.5 83C180.66 79.8725 176.929 77.5494 173 76C170.849 75.1679 168.5 74.5 166.168 74.2959C170.614 77.1651 174.17 81.7559 174.687 87.1214C175.059 90.8514 173.339 94.3519 175.117 97.9384C176.608 100.98 178.501 103.763 179.792 106.919C181.14 110.219 181.857 113.691 181.599 117.277C181.341 120.691 180.423 123.991 179.706 127.319C178.932 130.992 178.444 134.693 179.362 138.366C180.194 141.752 181.828 144.879 182.804 148.236C183.808 151.823 183.693 155.467 183.377 159.139C183.09 162.496 182.787 166.172 182.5 169.5C183.389 168.926 184.926 167.947 185.5 167C186.074 166.082 186.242 165.033 186.5 164C187.016 161.848 186.914 159.709 187 157.5C187.631 137.243 187.746 117.257 187 97C187 96.9713 187 96.5287 187 96.5Z" fill="#F52341"/>
    <path d="M226.741 112.37C225.45 110.534 223.757 108.956 222.036 107.493C219.884 105.657 218.019 104.48 215.379 103.447C213.887 102.874 212.424 102.443 210.817 102.443C208.522 102.472 205.652 102.73 203.931 104.423C202.123 106.202 201.549 109.157 201.693 111.595C201.865 114.464 203.615 116.3 205.882 117.792C207.087 118.595 208.263 119.399 209.411 120.259C210.128 120.116 210.874 119.599 211.42 119.37C212.223 119.026 213.084 118.767 213.945 118.624C215.207 118.423 216.842 118.366 218.076 118.825C219.31 119.313 219.253 120.718 220.429 121.378C221.749 122.124 223.384 121.981 224.762 122.497C227.487 123.53 227.287 125.911 226.024 128.091C225.536 128.923 224.589 130.186 225.163 131.132C225.622 131.85 226.454 131.678 227.143 132.022C227.487 132.194 227.717 132.395 227.889 132.739C228.119 133.169 228.061 134.661 228.779 134.632C228.807 134.632 228.836 134.632 228.865 134.632C230.471 130.243 230.787 125.538 229.783 120.776C229.18 117.993 228.463 114.808 226.741 112.37Z" fill="#2A0042" stroke="#1C2027" stroke-width="0.5" stroke-miterlimit="10"/>
    <path d="M53.6465 167.923C54.163 167.751 54.4786 168.124 54.5073 168.525C54.5073 168.611 54.5073 168.698 54.5073 168.784C55.6837 171.05 57.893 172.485 59.9302 173.976C61.996 175.526 64.0332 177.247 66.3573 178.395C70.6611 180.518 75.8258 181.264 80.56 181.493C85.5525 181.751 90.5736 181.264 95.48 180.288C100.1 179.37 104.633 178.022 109.023 176.272C113.327 174.55 117.831 172.485 121.274 169.271C122.02 168.468 122.91 167.693 123.885 167.234C124.89 166.775 126.324 166.603 127.644 166.632C126.382 164.853 125.492 162.529 125.435 160.55C125.435 160.091 125.894 159.718 126.353 159.861C127.3 160.177 128.247 160.492 129.194 160.837C128.247 159.173 127.501 157.48 127.042 155.529C127.013 155.443 126.984 155.328 126.984 155.242C125.75 153.75 123.799 153.636 121.992 154.123C120.901 154.41 119.782 154.726 118.692 154.295C117.028 153.636 116.339 151.14 117.2 149.648C117.803 148.586 118.922 147.84 119.782 146.98C120.615 146.148 121.246 145.229 120.988 143.967C120.815 143.164 120.242 142.647 119.897 141.93C118.807 139.75 120.127 137.569 121.992 136.393C121.647 135.36 121.303 134.299 120.959 133.266C120.93 133.123 120.901 133.008 120.93 132.922C120.901 132.807 120.901 132.692 120.959 132.577C121.676 130.397 122.279 128.188 122.939 126.008C123.57 123.884 124.345 121.819 124.603 119.61C125.033 116.11 126.009 110.716 122.853 108.134C120.471 106.183 116.196 107.933 113.556 109.195C109.654 111.06 106.297 113.814 102.997 116.597C102.624 116.913 102.165 116.769 101.936 116.483C96.1687 112.954 89.5981 110.802 82.798 111.548C82.3389 111.605 81.8798 111.663 81.4208 111.749C80.3018 112.323 79.4984 113.355 79.0967 114.532C78.6663 115.737 78.9532 116.655 78.9819 117.86C79.0393 119.323 78.0924 119.839 76.8013 120.04C75.6249 120.212 74.3911 120.155 74.1616 121.647C73.9894 122.766 74.1616 124.028 74.1616 125.176C74.1616 126.84 74.7067 128.762 74.2477 130.397C73.4156 133.409 68.8248 132.291 66.5581 132.549C65.3817 132.692 64.0906 133.008 63.2585 133.926C62.4551 134.815 62.3977 136.135 62.2543 137.254C62.0821 138.516 61.8239 139.865 60.7049 140.639C59.3276 141.615 57.8643 141.041 56.3723 140.897C54.7655 140.725 53.1875 142.274 51.8389 143.135C51.4372 144.627 51.0929 146.148 50.806 147.668C49.7157 153.291 49.5435 159.173 46.9325 164.365C46.9038 164.423 46.9038 164.48 46.8751 164.566C46.8464 164.624 46.8178 164.652 46.7891 164.71C48.1663 164.136 49.5148 163.533 50.6625 162.587C51.179 162.156 52.0685 162.558 51.8676 163.275C51.2938 165.283 50.4043 167.148 49.4288 168.984C50.8347 168.726 52.2406 168.382 53.5892 167.952C53.5318 167.952 53.5892 167.923 53.6465 167.923ZM106.268 118.433C108.765 116.712 111.203 114.876 113.958 113.556C115.651 112.753 118.147 111.577 119.869 112.925C121.705 114.388 121.274 117.458 120.758 119.409C119.955 122.364 118.463 125.003 117.372 127.815C117.344 127.844 117.344 127.901 117.315 127.93C117.229 128.131 116.999 128.303 116.712 128.188C115.909 127.901 115.192 126.811 114.79 126.122C114.647 125.864 114.446 124.745 114.274 124.63C114.159 124.544 113.327 124.86 113.011 124.688C112.581 124.43 112.495 124.028 112.581 123.569C112.695 122.737 112.839 122.909 111.978 122.766C110.802 122.593 111.089 121.589 111.404 120.671C110.888 121.016 110.343 121.331 109.826 121.532C109.482 121.647 109.195 121.819 108.822 121.618C108.363 121.389 107.99 120.7 107.588 120.356C107.215 120.011 106.785 119.696 106.383 119.409C106.354 119.409 106.354 119.38 106.326 119.38C106.297 119.38 106.297 119.352 106.268 119.352C105.981 119.093 105.924 118.663 106.268 118.433ZM85.782 155.873C86.3846 153.349 88.9669 150.967 91.5779 150.767C94.8201 150.537 96.4843 153.549 97.5746 156.131C97.8328 156.763 96.9147 157.308 96.6564 156.677C95.7957 154.668 94.5906 151.914 92.0656 151.828C89.7416 151.771 87.3601 153.98 86.8436 156.16C86.6715 156.82 85.6385 156.533 85.782 155.873ZM73.5877 162.156C74.1616 162.787 74.8502 163.648 75.7684 163.734C76.8013 163.82 77.2317 163.275 77.7768 162.501C77.5186 161.783 77.4038 160.98 77.3464 160.234C77.3464 160.205 77.3464 160.148 77.3464 160.119C76.5144 159.718 75.7397 159.029 75.1084 158.541C75.0224 158.513 74.965 158.455 74.8789 158.369C73.5878 156.791 76.7439 156.591 77.576 156.562C78.3507 156.533 79.068 156.591 79.8427 156.705C80.4739 156.791 81.4208 156.648 81.9085 157.107C83.2571 158.427 80.0435 160.119 79.1254 160.378C78.8958 160.435 78.6663 160.464 78.4368 160.435C78.5515 161.64 78.8385 163.476 80.3305 163.533C81.4495 163.591 82.8841 162.128 83.544 161.382C84.0031 160.865 84.7778 161.64 84.3187 162.156C83.2284 163.333 81.306 165.111 79.5558 164.451C79.0106 164.251 78.6089 163.935 78.322 163.533C77.7481 164.251 77.1169 164.767 76.0553 164.824C74.6494 164.882 73.7025 163.878 72.8131 162.931C72.354 162.414 73.1 161.64 73.5877 162.156ZM60.7336 155.185C61.4222 152.832 64.148 150.594 66.6442 150.68C69.5134 150.795 71.4358 153.234 71.9236 155.873C72.0384 156.562 71.0054 156.849 70.8907 156.16C70.489 154.008 69.0543 151.857 66.6442 151.771C64.6644 151.685 62.3403 153.607 61.7665 155.5C61.5656 156.131 60.5327 155.845 60.7336 155.185Z" fill="white"/>
    <path d="M226.546 132.678C225.772 132.247 224.796 132.505 224.308 131.558C223.706 130.41 224.624 128.947 225.169 128C225.772 126.967 226.632 125.589 225.944 124.355C225.456 123.523 224.423 123.179 223.534 122.978C222.214 122.662 220.779 122.633 219.632 121.859C219.23 121.6 218.914 121.256 218.656 120.826C218.053 119.764 217.307 119.362 216.102 119.276C213.922 119.132 212.258 119.821 210.306 120.653C210.192 120.711 210.077 120.739 209.962 120.797C211.024 121.629 212.057 122.49 213.061 123.38C214.897 125.044 216.389 127.196 216.59 129.722C217.078 135.375 210.421 137.786 206.003 138.905C200.207 140.368 194.124 140.024 188.5 138.015C188.472 141.057 188.414 144.07 188.357 147.112C188.357 147.629 188.328 148.145 188.328 148.662C195.501 150.613 203.105 152.278 210.507 150.613C216.963 149.179 222.529 145.247 226.145 139.737C227.063 138.331 227.838 136.896 228.44 135.404C227.005 135.375 227.637 133.309 226.546 132.678Z" fill="white"/>
    <path fill-rule="evenodd" clip-rule="evenodd" d="M219.657 103.848C222.67 105.685 225.654 108.525 227.749 111.366C229.47 113.69 230.245 116.645 230.847 119.428C231.679 122.843 232.024 126.343 231.565 129.815C230.819 135.582 227.835 141.034 223.703 145.108C219.428 149.297 213.919 151.851 207.98 152.539C201.381 153.343 194.781 151.908 188.412 150.186C188.405 150.644 188.399 151.102 188.393 151.56C188.348 154.98 188.304 158.413 187.924 161.778C187.723 163.643 187.379 165.537 186.547 167.23C186.059 168.205 185.428 168.865 184.682 169.439L184.51 169.611C182.616 171.161 180.665 172.653 178.685 174.087C176.866 175.438 174.973 176.629 173.079 177.821C172.075 178.452 171.071 179.084 170.078 179.74C169.504 180.122 168.939 180.517 168.375 180.913C167.247 181.703 166.118 182.494 164.913 183.183C162.704 184.474 160.494 185.708 158.228 186.855C157.574 187.19 156.924 187.536 156.273 187.882C154.75 188.69 153.225 189.5 151.657 190.184C149.333 191.159 147.009 192.106 144.628 192.938C139.865 194.631 134.987 195.951 129.995 196.84C129.335 197.041 128.675 197.242 127.986 197.357C125.352 197.8 122.599 197.959 119.922 198.113L119.581 198.133L119.12 198.16C112.292 198.533 105.549 198.246 98.7202 197.844C98.0705 197.806 97.4214 197.767 96.7727 197.729L96.7709 197.729C92.6359 197.484 88.5194 197.241 84.4029 196.869H84.3742C77.0577 196.18 69.7699 195.09 62.5682 193.541C58.9243 192.766 55.2804 191.876 51.6939 190.872L51.3365 190.773C48.6551 190.029 45.8038 189.238 43.6888 187.343C41.7799 185.628 40.8847 183.086 40.0515 180.72L39.9588 180.457C38.9259 177.473 38.1225 174.403 37.4913 171.304C36.2001 164.992 35.655 158.565 35.1959 152.166C34.8865 147.699 34.6031 143.244 34.3195 138.785C34.1823 136.629 34.0451 134.471 33.9048 132.311C33.4744 125.712 33.7326 119.285 34.163 112.685C34.211 111.962 34.2513 111.227 34.2921 110.485C34.5684 105.455 34.8631 100.09 37.6634 95.8143C37.7174 95.7389 37.7672 95.6634 37.8161 95.5894C37.8972 95.4666 37.9756 95.3479 38.0651 95.2405C38.0938 95.1831 38.1225 95.1257 38.1799 95.0683C41.1065 91.1375 45.6398 88.8421 50.0297 86.9197C55.9309 84.3221 62.1376 82.2245 68.2399 80.1623L68.5361 80.0622C69.7986 79.6318 71.0897 79.2014 72.3522 78.7998C72.4096 78.7711 72.467 78.7424 72.553 78.7424C77.6029 77.1069 82.71 75.5575 87.8459 74.0655C87.9033 74.0368 87.9607 74.0368 88.0181 74.0368C89.1945 73.8073 90.3421 73.549 91.4898 73.2334C91.0021 71.4545 90.8873 69.5608 91.1168 67.7245C91.4898 64.5396 92.8671 61.1826 95.5354 59.2029C96.5672 58.4403 97.6866 57.853 98.8114 57.2629C99.1255 57.0981 99.44 56.9331 99.7532 56.764C101.819 55.6163 103.799 54.3825 105.692 52.9766C107.873 51.3411 110.398 49.304 111.316 46.6356C111.345 46.4921 111.431 46.4061 111.517 46.32C111.804 45.947 112.435 45.8322 112.722 46.3487C114.128 48.7588 115.62 51.0255 118.346 52.0298C120.133 52.7027 122.059 53.0982 123.955 53.4874C124.646 53.6292 125.332 53.7702 126.006 53.9235C126.722 54.0869 127.453 54.2422 128.191 54.3991C132.246 55.2611 136.526 56.1707 139.779 58.7438C142.877 61.2113 144.8 65.0274 144.828 69.0156C144.828 69.5034 144.8 69.9912 144.742 70.479C149.388 70.2251 153.876 70.9145 158.425 71.6132C159.018 71.7043 159.612 71.7956 160.207 71.8849C165.171 72.6022 170.164 73.3769 174.754 75.4427C178.685 77.2217 182.272 79.9474 184.997 83.3045C187.641 86.5469 187.835 91.0686 188.01 95.1544L188.01 95.1554L188.01 95.1565C188.037 95.7701 188.062 96.3739 188.096 96.962V97.1342C188.297 103.16 188.469 109.156 188.555 115.182C188.67 122.326 188.67 129.442 188.613 136.558C195.9 139.255 204.164 139.082 211.165 135.582C212.743 134.779 214.349 133.717 214.981 131.995C215.641 130.245 215.095 128.294 214.149 126.773C213.249 125.291 211.885 124.151 210.552 123.037L210.549 123.034L210.546 123.031C210.436 122.939 210.327 122.848 210.218 122.756C208.697 121.494 207.119 120.346 205.484 119.285C203.533 117.994 201.61 116.53 200.749 114.264C199.889 112.026 200.118 109.271 200.835 107.004C201.553 104.824 202.844 102.987 204.967 102.069C206.947 101.237 209.185 101.008 211.308 101.036C214.063 101.094 217.305 102.414 219.657 103.848ZM120.354 54.0669C118.518 53.6365 116.682 53.0914 115.19 51.8576C114.845 51.5707 114.501 51.2551 114.243 50.8821C114.501 51.4272 114.759 51.9437 115.046 52.4601C115.936 54.0382 117.169 56.1328 118.948 56.8214C120.862 57.5484 122.883 58.0145 124.909 58.4817C126.801 58.9179 128.696 59.355 130.511 60.0062C137.541 62.5312 136.106 71.1963 134.7 77.1069C136.364 76.7913 138.028 76.4757 139.693 76.074C139.779 76.0166 139.893 75.9592 140.037 75.9592C140.926 75.9305 141.787 74.6107 142.217 73.8934C142.734 73.0613 143.05 72.1144 143.25 71.1676C143.623 69.3313 143.48 67.3802 142.906 65.5726C141.558 61.3548 138.115 58.6864 134.012 57.3665C131.025 56.384 127.936 55.7248 124.855 55.0677C123.348 54.7462 121.843 54.4251 120.354 54.0669ZM116.05 55.9032C114.243 53.6939 112.952 51.169 112.148 48.4719C111.973 49.7555 111.491 51.0308 111.009 52.3056C110.231 54.3649 109.454 56.4231 109.968 58.5142C110.624 61.2027 113.116 62.3352 115.51 63.4236C116.464 63.8569 117.402 64.2832 118.202 64.7979C120.555 66.2899 123.281 68.4705 123.74 71.3397C123.998 72.9465 123.855 74.6107 123.682 76.2174C123.664 76.4121 123.649 76.6165 123.634 76.8262C123.58 77.5746 123.521 78.3919 123.252 79.0867C125.347 78.8284 127.441 78.4841 129.507 78.1111C130.181 77.9964 130.848 77.8744 131.515 77.7525C132.182 77.6305 132.85 77.5086 133.524 77.3938C134.471 73.549 135.417 69.3887 134.27 65.4865C133.667 63.4206 132.433 61.9573 130.425 61.1826C129.192 60.7151 127.897 60.3892 126.608 60.0651C126.157 59.9516 125.707 59.8384 125.26 59.7193C124.599 59.5406 123.91 59.3867 123.213 59.231C120.551 58.6368 117.778 58.0177 116.05 55.9032ZM109.91 52.5175C109.853 52.5749 109.795 52.661 109.738 52.7471C108.562 54.2391 107.299 55.645 105.979 56.9935C105.512 57.4506 104.973 57.8973 104.425 58.3515C103.39 59.2091 102.322 60.0936 101.647 61.1252C99.1216 65.0125 103.022 68.9559 105.55 71.5125L105.635 71.598C107.529 73.5204 109.107 76.074 108.303 78.7424C108.782 78.7851 109.261 78.8291 109.74 78.8731C112.482 79.1248 115.238 79.3779 117.973 79.4023C119.321 79.4023 120.67 79.3162 121.99 79.2014C121.99 79.1728 122.018 79.1441 122.047 79.1154C122.503 78.5457 122.578 77.2521 122.633 76.3125C122.648 76.0691 122.66 75.8494 122.678 75.6723C122.736 74.8976 122.793 74.0942 122.793 73.3195C122.822 71.311 122.391 69.7903 120.899 68.3844C119.694 67.2367 118.46 66.1177 116.997 65.3143C116.331 64.9549 115.647 64.6449 114.965 64.3355C114.176 63.9782 113.39 63.6217 112.636 63.1911C110.369 61.8712 108.705 59.8915 108.762 57.1657C108.791 55.5302 109.336 54.0382 109.91 52.5175ZM99.9253 58.3134C97.1996 59.748 94.6747 61.2974 93.4409 64.3101C91.8055 68.3557 92.0637 73.6638 95.1624 76.9921C98.9785 77.8529 102.823 78.312 106.725 78.6276C106.815 78.6276 106.897 78.6354 106.976 78.6429C107.047 78.6498 107.116 78.6563 107.184 78.6563C108.336 75.7563 105.938 73.4109 103.805 71.3258C103.069 70.6052 102.363 69.9157 101.848 69.2452C100.184 67.0646 99.0932 63.6215 100.47 61.0105C101.058 59.8989 102.074 59.0479 103.061 58.2222C103.424 57.9184 103.782 57.6179 104.114 57.3092C105.492 55.9893 106.811 54.6408 108.045 53.1775C108.117 53.0914 108.181 53.0053 108.246 52.9192C108.311 52.8331 108.375 52.7471 108.447 52.661C107.844 53.1775 107.213 53.6652 106.582 54.1243C104.487 55.7024 102.249 57.0796 99.9253 58.3134ZM66.0166 82.443L66.0096 82.4454C60.0383 84.4732 53.968 86.5347 48.3082 89.2725C46.3572 90.2193 44.4348 91.3096 42.7133 92.6008C44.2052 91.9409 45.6398 91.3383 47.2466 91.0514C49.4591 90.6527 51.6855 90.351 53.9065 90.05C54.8825 89.9178 55.8575 89.7856 56.8298 89.6455C59.2112 89.3012 61.5353 88.9856 63.9167 88.7847C74.8484 87.8666 85.8375 87.2927 96.7979 87.1492C103.598 87.0632 110.398 87.1492 117.169 87.6657L117.559 87.6943C120.57 87.9148 123.731 88.1462 126.839 88.6412L132.778 90.0472C133.897 90.3915 134.958 90.7932 135.991 91.2523C139.75 92.9738 141.787 96.0152 143.107 99.8313C144.714 104.451 145.603 109.3 146.263 114.12C146.969 119.242 147.504 124.406 148.039 129.562C148.266 131.744 148.492 133.924 148.731 136.098C149.505 143.329 149.964 150.531 150.395 157.819C151.772 166.971 150.194 176.44 145.718 184.56C143.882 187.917 141.529 191.13 138.287 193.254C138.172 193.325 138.057 193.39 137.942 193.454C137.828 193.519 137.713 193.584 137.598 193.655C140.381 192.881 143.136 191.991 145.861 190.987C150.653 189.179 155.158 186.855 159.691 184.502C161.326 183.642 162.991 182.752 164.597 181.777L165.946 180.973C166.521 180.59 167.08 180.183 167.64 179.775C168.588 179.085 169.537 178.394 170.565 177.817C174.381 175.637 177.968 173.026 181.44 170.3L182.587 169.181C182.693 169.113 182.798 169.046 182.903 168.98C183.683 168.485 184.438 168.007 184.969 167.172C185.571 166.254 185.887 165.193 186.145 164.131C186.662 161.979 186.748 159.77 186.805 157.56C187.436 137.304 187.436 116.989 186.69 96.7325V96.6464C186.668 96.2404 186.648 95.8325 186.628 95.4236C186.417 91.0937 186.2 86.6577 183.132 83.2758C180.292 80.1483 176.763 77.6808 172.832 76.1601C170.68 75.328 168.471 74.7541 166.204 74.2951L162.962 73.7212C161.91 73.5459 160.858 73.3925 159.826 73.2418L159.375 73.176C158.85 73.1001 158.327 73.023 157.804 72.946C153.389 72.2952 149.06 71.657 144.57 71.9136C144.369 72.7457 144.054 73.5777 143.652 74.3237C143.05 75.4427 142.045 76.82 140.783 77.2791C140.725 77.3364 140.639 77.3651 140.553 77.3938C138.401 77.9103 136.25 78.3407 134.069 78.7424L132.347 79.058C131.343 79.2588 130.339 79.431 129.335 79.6031C125.576 80.2918 121.789 80.8943 117.944 80.8656C114.897 80.8208 111.834 80.5312 108.779 80.2424C107.922 80.1614 107.065 80.0803 106.209 80.0048C102.335 79.6892 98.5194 79.2301 94.732 78.3407C94.6747 78.3407 94.6173 78.312 94.5599 78.2833C94.4451 78.2546 94.359 78.1972 94.273 78.1111C93.2687 77.1069 92.5228 75.9305 92.0063 74.6394H91.9776C90.8012 74.955 89.5962 75.2419 88.3624 75.4714H88.2763C84.0012 76.7052 79.7261 77.9964 75.4796 79.3449L73.3564 80.0048C71.4341 80.6074 69.5117 81.2386 67.618 81.8985C67.0852 82.08 66.5513 82.2614 66.0166 82.443ZM131.359 194.798C131.68 194.672 131.999 194.547 132.319 194.43C134.098 193.77 135.905 193.053 137.455 191.962C140.955 189.667 143.336 185.937 145.173 182.264C148.903 174.804 150.165 166.225 148.903 157.991V157.933C148.874 157.905 148.874 157.847 148.874 157.79C148.845 157.39 148.817 156.961 148.788 156.532L148.788 156.527C148.711 155.184 148.643 153.837 148.575 152.489L148.575 152.486C148.442 149.831 148.309 147.168 148.099 144.505C147.908 141.808 147.589 139.111 147.27 136.414C147.111 135.066 146.952 133.717 146.808 132.368C146.632 130.71 146.466 129.048 146.3 127.386L146.3 127.385L146.3 127.384C145.682 121.198 145.064 115.004 143.91 108.898C143.871 108.696 143.832 108.492 143.792 108.287L143.79 108.278C142.989 104.139 142.066 99.371 139.635 95.9291C137.139 92.3713 132.577 91.3383 128.56 90.5349C116.251 88.0961 103.282 88.3543 90.8012 88.6986C81.2467 88.9855 71.6923 89.5307 62.1665 90.3628C61.8183 90.4164 61.4451 90.4449 61.0936 90.4718L61.0188 90.4776C60.8467 90.4776 60.6745 90.5062 60.7032 90.5062C59.607 90.6508 58.5108 90.8105 57.4125 90.9706C55.8948 91.1917 54.373 91.4134 52.8416 91.5966C52.4442 91.6475 52.0395 91.6957 51.6307 91.7445C49.7372 91.9702 47.754 92.2066 45.9842 92.7729C43.7749 93.4903 41.336 94.6093 39.385 95.9578C38.4668 97.1916 37.7208 98.5688 37.2044 100.147C36.3149 102.873 36.0854 105.771 35.8845 108.64C35.7841 110.189 35.6837 111.731 35.5833 113.273C35.4829 114.816 35.3824 116.358 35.282 117.907C34.8803 124.248 35.2533 130.446 35.655 136.758C35.7682 138.505 35.8768 140.249 35.9854 141.993C36.2621 146.435 36.5385 150.871 36.8888 155.322C37.3765 161.405 38.0651 167.517 39.471 173.456C40.1597 176.354 41.0204 179.223 42.1107 182.006C43.2871 184.99 44.9799 186.999 48.0213 188.175C50.2148 189.015 52.5031 189.59 54.7783 190.161C55.3007 190.292 55.8223 190.423 56.342 190.557C59.3547 191.331 62.3673 192.02 65.4087 192.622C71.6923 193.856 78.0619 194.774 84.4316 195.377H84.4603C88.0429 195.715 91.6394 195.929 95.2402 196.144L95.2416 196.144L95.243 196.144C96.8319 196.238 98.4216 196.333 100.011 196.439C106.467 196.869 112.837 197.012 119.292 196.668C122.018 196.525 125.232 196.295 127.642 195.922C128.187 195.836 128.732 195.721 129.249 195.549C129.335 195.492 129.421 195.463 129.536 195.434C129.564 195.434 129.593 195.427 129.622 195.42C129.65 195.413 129.679 195.406 129.708 195.406C130.267 195.225 130.815 195.011 131.359 194.798ZM210.648 150.645C217.104 149.211 222.67 145.28 226.285 139.771C227.204 138.394 227.978 136.931 228.609 135.467C227.798 135.419 227.63 134.771 227.456 134.095C227.317 133.553 227.172 132.994 226.687 132.713C226.399 132.542 226.083 132.47 225.774 132.401C225.254 132.283 224.755 132.17 224.449 131.594C223.872 130.522 224.69 129.108 225.239 128.159L225.31 128.036C225.941 127.003 226.773 125.597 226.085 124.392C225.597 123.56 224.564 123.216 223.674 123.015C223.307 122.927 222.931 122.861 222.555 122.796C221.578 122.625 220.601 122.455 219.772 121.896C219.371 121.637 219.026 121.293 218.797 120.863C218.223 119.772 217.477 119.399 216.243 119.313C214.063 119.17 212.37 119.859 210.447 120.691L210.427 120.699C210.396 120.712 210.368 120.724 210.342 120.736C210.328 120.743 210.314 120.75 210.3 120.756C210.232 120.789 210.173 120.817 210.103 120.834C211.165 121.637 212.198 122.498 213.202 123.416C215.038 125.081 216.501 127.232 216.731 129.757C217.219 135.439 210.562 137.82 206.144 138.939C200.348 140.402 194.265 140.029 188.641 138.05C188.613 141.036 188.557 143.994 188.501 146.979L188.498 147.145C188.469 147.661 188.469 148.178 188.469 148.694C195.642 150.645 203.246 152.31 210.648 150.645ZM228.753 134.721H228.839C230.474 130.36 230.761 125.626 229.786 120.949C229.183 118.08 228.437 114.895 226.716 112.456C225.396 110.62 223.703 109.042 222.01 107.578C219.858 105.742 217.993 104.566 215.354 103.533C213.862 102.93 212.398 102.528 210.792 102.528C208.496 102.557 205.627 102.815 203.906 104.508C202.098 106.287 201.524 109.242 201.668 111.681C201.811 114.522 203.59 116.358 205.857 117.879C207.062 118.653 208.238 119.486 209.386 120.346C209.885 120.246 210.412 119.966 210.861 119.727C211.056 119.623 211.237 119.527 211.394 119.457C212.198 119.084 213.03 118.854 213.919 118.711C215.21 118.51 216.817 118.424 218.051 118.912C218.715 119.168 219.006 119.679 219.303 120.201C219.572 120.672 219.846 121.152 220.403 121.465C221.155 121.874 222 122.013 222.848 122.152C223.489 122.257 224.131 122.362 224.736 122.584C227.462 123.589 227.261 125.999 225.998 128.179C225.936 128.286 225.866 128.399 225.793 128.517C225.294 129.328 224.637 130.395 225.138 131.221C225.423 131.648 225.851 131.744 226.3 131.844C226.574 131.906 226.856 131.969 227.117 132.11C227.462 132.282 227.691 132.483 227.863 132.827C227.935 132.962 227.979 133.204 228.027 133.472C228.133 134.056 228.26 134.761 228.753 134.721Z" fill="#1C2027"/>
    <path d="M106.077 119.311C106.106 119.34 106.106 119.34 106.135 119.34C106.163 119.34 106.163 119.369 106.192 119.369C106.622 119.656 107.024 120 107.397 120.315C107.799 120.659 108.172 121.348 108.631 121.577C109.004 121.749 109.291 121.606 109.636 121.491C110.181 121.29 110.698 120.975 111.214 120.631C110.899 121.549 110.612 122.552 111.788 122.725C112.649 122.868 112.535 122.696 112.391 123.528C112.334 123.987 112.42 124.388 112.821 124.646C113.137 124.847 113.969 124.503 114.084 124.589C114.228 124.704 114.429 125.822 114.601 126.08C115.003 126.769 115.749 127.887 116.524 128.146C116.811 128.232 117.04 128.088 117.126 127.887C117.155 127.859 117.184 127.801 117.184 127.773C118.274 124.962 119.795 122.294 120.57 119.369C121.087 117.418 121.517 114.321 119.681 112.887C117.959 111.538 115.462 112.714 113.769 113.518C111.013 114.837 108.574 116.673 106.077 118.394C105.79 118.652 105.848 119.082 106.077 119.311ZM112.133 115.669C113.769 114.694 117.155 112.428 118.992 113.833C121.03 115.382 119.595 119.225 118.906 121.147C118.188 123.097 117.241 124.904 116.466 126.797C116.265 126.568 116.065 126.281 115.978 126.166C115.462 125.507 115.404 124.962 115.146 124.216C115.06 123.958 115.003 123.757 114.716 123.614C114.486 123.499 113.769 123.671 113.682 123.556C113.539 123.356 113.912 122.839 113.883 122.495C113.855 122.094 113.625 121.807 113.252 121.663C113.108 121.606 112.248 121.663 112.104 121.663C112.19 121.549 112.535 120.545 112.535 120.602C112.621 120.229 112.649 119.856 112.678 119.455C112.707 119.053 112.219 118.795 111.874 118.996C111.186 119.397 110.497 119.799 109.808 120.201C108.947 120.688 109.234 120.602 108.574 119.971C108.201 119.598 107.77 119.254 107.34 118.91C108.89 117.791 110.468 116.673 112.133 115.669Z" fill="#1C2027"/>
    <path d="M132.336 143.728C132.537 138.535 132.823 133.341 132.623 128.147C132.479 124.79 132.221 121.432 131.905 118.075C131.446 112.91 130.385 105.995 125.765 102.867C122.896 100.916 118.822 100.543 115.436 100.112C111.878 99.6817 108.32 99.5095 104.734 99.4521C97.2162 99.3374 89.7275 99.7965 82.2388 100.485C76.5864 101.002 70.9627 101.662 65.339 102.436C62.1541 102.896 58.6537 103.297 55.8131 104.904C54.3211 105.736 53.3169 107.257 53.4317 108.979C52.1405 109.094 50.9067 109.639 49.8738 110.901C47.1767 114.173 47.7793 119.252 48.2957 123.125C48.927 127.774 50.0173 132.365 51.8536 136.698C51.911 136.813 51.9683 136.899 52.0257 136.956C51.2797 138.965 50.6485 141.002 50.1033 143.068C49.2426 146.368 48.6974 149.726 48.2096 153.083C47.6645 156.813 47.062 160.544 45.3117 163.901C45.283 163.93 45.283 163.987 45.2543 164.016C44.9387 164.59 44.6231 165.192 44.2788 165.737C43.8771 166.426 44.6518 166.971 45.2543 166.713C46.6889 166.11 48.181 165.565 49.5295 164.79C48.8696 166.397 48.0662 167.947 47.2054 169.496C46.9759 169.927 47.2628 170.644 47.8366 170.587C48.6687 170.472 49.5295 170.357 50.3329 170.185C50.3329 172.021 50.3903 173.829 51.1937 175.522C52.0831 177.359 53.5464 178.736 55.4114 179.597C57.4199 180.544 59.6005 180.946 61.7524 181.347C64.6504 181.893 67.5483 182.438 70.4462 182.954C75.8978 183.93 81.4641 185.164 87.0304 185.164C92.3672 185.164 97.5032 183.7 102.582 182.208C108.091 180.573 113.628 179.195 119.367 178.707C121.92 178.478 124.531 178.679 127.056 178.334C129.007 178.076 130.585 177.072 131.647 175.407C134.201 171.247 132.45 165.68 132.192 161.175C131.877 155.407 132.106 149.553 132.336 143.728ZM61.8098 104.072C62.5271 103.929 63.3018 103.842 64.0191 103.728C68.6386 103.039 73.2868 102.465 77.9349 101.977C84.7637 101.26 91.6212 100.743 98.4787 100.571C105.107 100.399 111.849 100.485 118.391 101.604C119.998 101.891 121.662 102.207 123.212 102.752C125.65 103.642 127.343 105.478 128.462 107.802C129.753 110.528 130.299 113.771 130.7 116.755C131.418 121.978 131.647 127.401 131.618 132.652C131.532 142.294 130.585 151.964 131.188 161.605C131.159 161.548 131.131 161.49 131.102 161.462C129.696 159.281 128.72 157.158 128.147 154.632C127.573 152.193 127.056 149.754 126.482 147.315C125.335 142.437 123.699 137.702 122.15 132.939C122.982 130.328 123.699 127.688 124.503 125.077C124.876 123.871 125.335 122.638 125.593 121.404C125.823 120.199 125.909 118.936 126.081 117.702C126.569 114.058 126.454 109.208 123.24 106.798C120.601 104.789 116.698 106.195 114.001 107.343C109.611 109.18 105.881 112.135 102.266 115.148C97.1302 112.021 91.3343 109.897 85.2515 109.954C79.6565 110.012 74.1476 111.791 69.3846 114.689C68.8108 115.033 68.2656 115.407 67.7205 115.78C65.5685 114 63.1871 112.164 60.6334 111.045C58.7684 110.213 56.5878 109.208 54.522 109.036C54.2924 105.622 59.2562 104.617 61.8098 104.072ZM131.217 162.064C131.217 162.036 131.217 162.007 131.217 162.007C131.217 162.007 131.217 162.007 131.217 161.978C131.217 162.007 131.217 162.036 131.217 162.064ZM126.54 154.03C125.507 153.284 124.216 152.968 122.953 153.14C121.633 153.312 120.141 154.202 118.822 153.628C116.985 152.853 117.186 150.414 118.334 149.209C119.682 147.803 121.605 146.684 121.576 144.532C121.576 143.47 121.031 142.839 120.514 141.949C119.424 140.055 120.4 138.219 122.006 137.157C123.212 140.83 124.359 144.503 125.22 148.262C125.679 150.185 126.109 152.107 126.54 154.03ZM50.046 124.991C49.4147 121.203 48.5253 116.497 50.3329 112.853C52.4848 108.52 57.7642 110.987 60.8917 112.709C62.8715 113.8 64.7938 115.206 66.5441 116.612C65.5112 117.386 64.5069 118.219 63.5601 119.108C62.1828 117.932 60.5187 117.071 58.9406 116.239C57.6781 115.579 56.1574 114.919 54.6941 115.033C48.3818 115.521 53.6899 127.257 55.0097 130.414C54.2064 131.935 53.4604 133.513 52.8004 135.12C51.5093 131.849 50.6198 128.463 50.046 124.991ZM62.7854 119.854C59.9735 122.609 57.6207 125.765 55.6697 129.209C54.8376 127.057 54.0629 124.876 53.4317 122.666C52.7143 120.199 51.911 115.234 56.1287 116.267C58.3954 116.87 60.9778 118.305 62.7854 119.854ZM56.2148 131.131C61.0638 122.006 69.3846 114.287 79.5991 112.049C79.0826 112.566 78.6523 113.197 78.3653 113.886C78.1071 114.46 77.935 115.091 77.8776 115.722C77.7628 116.784 78.4514 118.706 77.275 119.166C76.156 119.596 74.6353 119.223 73.7459 120.199C72.6842 121.375 73.2294 123.986 73.2581 125.421C73.2868 127.257 74.3197 130.586 72.1678 131.447C70.4749 132.107 68.3804 131.619 66.6015 131.791C65.1095 131.935 63.474 132.308 62.4698 133.542C61.4368 134.833 61.5803 136.526 61.2073 138.075C60.8343 139.596 59.9161 140.486 58.2807 140.486C57.3912 140.486 56.5304 140.055 55.641 140.141C54.2924 140.285 53.0873 141.232 51.9397 142.035C52.9439 138.305 54.3498 134.632 56.2148 131.131ZM49.1852 169.009C50.1607 167.172 51.0502 165.307 51.624 163.298C51.8249 162.552 50.9354 162.179 50.419 162.61C49.2713 163.556 47.9227 164.188 46.5455 164.733C46.5742 164.676 46.6029 164.647 46.6316 164.59C46.6603 164.532 46.6889 164.475 46.6889 164.389C49.3 159.195 49.4434 153.284 50.5624 147.688C50.8493 146.167 51.1937 144.647 51.5953 143.154C52.9439 142.294 54.4933 140.744 56.1287 140.916C57.6207 141.088 59.0841 141.634 60.4613 140.658C61.5803 139.883 61.8385 138.535 62.0107 137.272C62.1828 136.153 62.2402 134.833 63.0149 133.943C63.8183 133.025 65.1382 132.71 66.3145 132.566C68.5812 132.308 73.172 133.427 74.0041 130.414C74.4632 128.778 73.918 126.856 73.918 125.191C73.918 124.044 73.7459 122.781 73.918 121.662C74.1476 120.141 75.3526 120.227 76.5577 120.055C77.8776 119.854 78.7957 119.309 78.7383 117.874C78.681 116.64 78.4227 115.751 78.8531 114.546C79.2835 113.369 80.0869 112.336 81.1772 111.762C81.6363 111.676 82.0953 111.619 82.5544 111.561C89.3832 110.815 95.9251 112.939 101.692 116.497C101.95 116.784 102.381 116.899 102.754 116.612C106.053 113.828 109.41 111.074 113.313 109.208C115.952 107.946 120.228 106.195 122.609 108.147C125.765 110.729 124.79 116.153 124.359 119.625C124.072 121.834 123.298 123.9 122.695 126.024C122.064 128.233 121.433 130.414 120.715 132.595C120.687 132.71 120.658 132.824 120.687 132.939C120.658 133.054 120.658 133.169 120.715 133.283C121.06 134.316 121.404 135.378 121.748 136.411C119.883 137.559 118.563 139.768 119.654 141.949C119.998 142.667 120.572 143.154 120.744 143.987C121.002 145.249 120.371 146.167 119.539 147C118.707 147.86 117.588 148.606 116.957 149.668C116.096 151.16 116.784 153.657 118.449 154.317C119.539 154.747 120.687 154.432 121.748 154.145C123.527 153.657 125.507 153.772 126.741 155.264C126.769 155.35 126.798 155.465 126.798 155.551C127.257 157.502 128.003 159.195 128.95 160.859C128.003 160.544 127.056 160.228 126.109 159.884C125.679 159.74 125.191 160.142 125.191 160.572C125.249 162.552 126.138 164.876 127.401 166.656C126.081 166.598 124.646 166.77 123.642 167.258C122.666 167.717 121.777 168.492 121.031 169.295C117.617 172.509 113.112 174.547 108.779 176.297C104.418 178.047 99.8559 179.396 95.2365 180.314C90.3301 181.29 85.3089 181.778 80.3164 181.519C75.5822 181.29 70.4175 180.515 66.1137 178.42C63.7896 177.273 61.7524 175.551 59.6866 174.001C57.6781 172.509 55.4688 171.075 54.2637 168.808C54.2637 168.722 54.2637 168.635 54.2637 168.549C54.235 168.148 53.8907 167.775 53.403 167.947C53.3456 167.947 53.2882 167.976 53.2308 168.004C51.997 168.406 50.5911 168.779 49.1852 169.009ZM127.286 177.301C124.732 177.76 122.006 177.474 119.424 177.703C117.014 177.904 114.633 178.248 112.251 178.679C107.23 179.626 102.41 181.319 97.4458 182.61C92.1951 183.987 87.0304 184.446 81.6076 183.786C76.2708 183.126 70.9914 182.036 65.712 181.06C61.4655 180.257 55.3254 179.999 52.6857 175.981C51.4806 174.145 51.4232 172.108 51.4232 170.013C51.997 169.869 52.5709 169.726 53.1447 169.554C54.0342 171.247 55.4401 172.509 56.9608 173.686C59.0554 175.293 61.1499 176.928 63.3305 178.392C67.3762 181.118 72.4547 182.151 77.2176 182.696C87.5756 183.872 98.3352 181.835 108.005 178.162C112.71 176.354 117.674 174.231 121.519 170.845C121.605 170.816 121.691 170.759 121.777 170.673C121.892 170.558 122.006 170.415 122.121 170.3C122.207 170.242 122.265 170.156 122.351 170.099C122.408 170.07 122.437 170.013 122.466 169.955C122.896 169.554 123.326 169.152 123.814 168.836C125.048 168.033 127.601 167.947 129.007 168.291C129.667 168.435 130.241 167.602 129.696 167.086C128.347 165.852 127.142 163.614 126.769 161.634C127.946 162.036 129.093 162.437 130.27 162.81C130.815 162.983 131.159 162.523 131.131 162.064C131.188 163.011 131.274 163.958 131.36 164.905C131.905 169.066 133.082 176.268 127.286 177.301Z" fill="#1C2027"/>
    <path d="M61.6679 155.461C62.213 153.566 64.5653 151.672 66.5448 151.729C68.9546 151.815 70.3889 153.997 70.7906 156.121C70.9053 156.81 71.9668 156.523 71.8233 155.834C71.3356 153.193 69.4136 150.753 66.5448 150.638C64.049 150.552 61.3236 152.791 60.6351 155.145C60.4343 155.834 61.4671 156.121 61.6679 155.461Z" fill="#1C2027"/>
    <path d="M86.8235 156.157C87.34 153.946 89.7218 151.764 92.0463 151.822C94.5716 151.908 95.8056 154.664 96.6378 156.674C96.8961 157.306 97.8431 156.76 97.5561 156.129C96.4656 153.544 94.8012 150.53 91.5584 150.759C88.9183 150.96 86.3356 153.343 85.7617 155.87C85.6182 156.53 86.6513 156.818 86.8235 156.157Z" fill="#1C2027"/>
    <path d="M75.9056 164.821C76.967 164.764 77.5981 164.246 78.1719 163.528C78.4875 163.93 78.8891 164.246 79.4055 164.448C81.1554 165.108 83.0775 163.327 84.1677 162.149C84.6267 161.632 83.8808 160.886 83.3931 161.374C82.7046 162.121 81.2989 163.586 80.18 163.528C78.6883 163.471 78.4014 161.604 78.2866 160.426C78.5162 160.455 78.7457 160.426 78.9752 160.368C79.8932 160.11 83.1349 158.415 81.7579 157.094C81.2702 156.634 80.3235 156.778 79.6924 156.691C78.9178 156.577 78.2006 156.519 77.426 156.548C76.5654 156.577 73.4097 156.778 74.7294 158.358C74.7867 158.444 74.8728 158.501 74.9589 158.53C75.59 159.018 76.3646 159.708 77.1965 160.11C77.1965 160.139 77.1965 160.196 77.1965 160.225C77.2539 160.972 77.3686 161.776 77.6268 162.494C77.0531 163.299 76.6514 163.816 75.6187 163.729C74.7007 163.643 74.0122 162.781 73.4384 162.149C72.9794 161.632 72.2048 162.408 72.6638 162.925C73.5531 163.873 74.4712 164.878 75.9056 164.821ZM77.2252 158.817C76.7088 158.501 76.2211 158.128 75.7334 157.783C76.3072 157.582 77.7129 157.611 78.1432 157.611C78.3153 157.611 80.6104 157.668 80.6964 157.869C80.8686 158.214 79.4915 158.961 79.262 159.076C78.4588 159.392 77.9137 159.248 77.2252 158.817Z" fill="#1C2027"/>
    <path d="M23.5218 64.8294C21.1979 65.977 18.9027 67.096 16.5787 68.2436C17.2386 66.5795 18.1567 64.7146 18.8453 63.1653C19.8494 60.8414 20.8536 58.4888 21.8578 56.1648C22.0586 55.6771 21.7143 54.8451 21.0544 55.1033C18.1854 56.2509 15.3164 57.3985 12.476 58.5461C11.644 58.8904 11.9883 60.2676 12.849 59.9233C15.2016 58.9765 17.5542 58.0297 19.9068 57.0829C19.1035 58.9478 18.3002 60.8127 17.4968 62.6776C16.5501 64.8868 15.2877 67.1246 14.6565 69.4486C14.4844 70.0798 15.1729 70.5388 15.718 70.2519C18.5584 68.8461 21.4274 67.4402 24.2677 66.0344C25.0711 65.6614 24.3538 64.4277 23.5218 64.8294Z" fill="#1C2027"/>
    <path d="M28.2997 78.7413C30.1075 78.9422 31.944 79.1718 33.7518 79.3728C34.6701 79.4876 34.6701 78.0524 33.7518 77.9375C32.5466 77.794 31.3414 77.6505 30.1362 77.5357C32.1736 75.9856 34.1822 74.4356 36.2196 72.9143C36.65 72.5985 36.7361 71.7087 36.0474 71.5938C34.0962 71.2781 32.1736 70.991 30.251 70.6179C29.3614 70.4457 28.9597 71.8235 29.8779 71.9957C31.284 72.2541 32.6901 72.4837 34.1248 72.7133C32.0875 74.2921 30.0214 75.8421 27.984 77.4209C27.3527 77.8514 27.5536 78.6552 28.2997 78.7413Z" fill="#1C2027"/>
    <path d="M29.9812 88.8934C29.1778 89.6103 28.3457 90.2985 27.4848 90.9294C27.9726 89.2089 28.5465 87.4883 29.1204 85.7965C29.3212 85.2517 28.5752 84.5922 28.0587 84.9936C26.5379 86.1406 25.0171 87.3163 23.4964 88.4633C22.779 89.0081 23.4964 90.2698 24.2137 89.6963C25.1319 88.9794 26.0788 88.2912 26.997 87.5744C26.4805 89.1802 25.9927 90.8147 25.591 92.4491C25.4476 93.0226 26.1075 93.6248 26.6527 93.252C28.1735 92.2484 29.6369 91.1301 30.9568 89.8971C31.6742 89.2662 30.6412 88.2626 29.9812 88.8934Z" fill="#1C2027"/>
    <path d="M90.7574 164.416C92.4055 164.416 93.7414 163.258 93.7414 161.83C93.7414 160.401 92.4055 159.244 90.7574 159.244C89.1094 159.244 87.7734 160.401 87.7734 161.83C87.7734 163.258 89.1094 164.416 90.7574 164.416Z" fill="#F79899" stroke="#F79899" stroke-width="0.5" stroke-miterlimit="10"/>
    <path d="M65.5015 164.416C67.1505 164.416 68.4874 163.258 68.4874 161.83C68.4874 160.401 67.1505 159.244 65.5015 159.244C63.8524 159.244 62.5156 160.401 62.5156 161.83C62.5156 163.258 63.8524 164.416 65.5015 164.416Z" fill="#F79899" stroke="#F79899" stroke-width="0.5" stroke-miterlimit="10"/>
</svg>
