<svg width="36" height="36" viewBox="0 0 36 36" fill="none" xmlns="http://www.w3.org/2000/svg">
<path d="M26.0404 21.6386L23.2125 21.3158C22.88 21.2767 22.5429 21.3135 22.2267 21.4234C21.9104 21.5334 21.6232 21.7135 21.3866 21.9504L19.338 23.999C16.1774 22.3915 13.6085 19.8225 12.001 16.6619L14.0607 14.6022C14.5395 14.1235 14.7733 13.4555 14.6953 12.7763L14.3725 9.97065C14.3093 9.42752 14.0487 8.92658 13.6401 8.56319C13.2316 8.1998 12.7037 7.99935 12.1569 8H10.2308C8.97271 8 7.92616 9.04656 8.00409 10.3047C8.59417 19.8127 16.1984 27.4058 25.6953 27.9959C26.9533 28.0738 27.9999 27.0273 27.9999 25.7692V23.8431C28.011 22.7186 27.1649 21.7722 26.0404 21.6386Z" fill="#F52341"/>
</svg>
