<svg width="28" height="28" viewBox="0 0 28 28" fill="none" xmlns="http://www.w3.org/2000/svg">
<path d="M26.7806 23.3851L4.61498 1.21946C3.65909 0.263567 2.81738 0.93903 1.87891 1.8775C0.940436 2.81597 0.264972 3.65768 1.22086 4.61357L23.3865 26.7792C24.3424 27.7351 25.1841 27.0596 26.1226 26.1212C27.061 25.1827 27.7365 24.341 26.7806 23.3851Z" fill="white"/>
<path d="M23.3866 1.21926L1.22097 23.3849C0.265081 24.3408 0.940544 25.1825 1.87902 26.121C2.81749 27.0594 3.65919 27.7349 4.61509 26.779L26.7807 4.61338C27.7366 3.65748 27.0611 2.81578 26.1227 1.8773C25.1842 0.938833 24.3425 0.26337 23.3866 1.21926Z" fill="white"/>
</svg>
