<svg width="24" height="24" viewBox="0 0 24 24" fill="none" xmlns="http://www.w3.org/2000/svg">
    <path d="M13.6904 11.999L18.8454 6.85527C19.0712 6.62949 19.198 6.32327 19.198 6.00397C19.198 5.68467 19.0712 5.37845 18.8454 5.15267C18.6197 4.92689 18.3135 4.80005 17.9943 4.80005C17.675 4.80005 17.3688 4.92689 17.1431 5.15267L12 10.3084L6.85702 5.15267C6.63127 4.92689 6.3251 4.80005 6.00584 4.80005C5.68659 4.80005 5.38041 4.92689 5.15466 5.15267C4.92892 5.37845 4.80209 5.68467 4.80209 6.00397C4.80209 6.32327 4.92892 6.62949 5.15466 6.85527L10.3097 11.999L5.15466 17.1428C5.0423 17.2543 4.95311 17.3869 4.89225 17.533C4.83138 17.6791 4.80005 17.8358 4.80005 17.9941C4.80005 18.1524 4.83138 18.3091 4.89225 18.4552C4.95311 18.6013 5.0423 18.7339 5.15466 18.8454C5.26611 18.9578 5.39871 19.047 5.54479 19.1078C5.69088 19.1687 5.84758 19.2 6.00584 19.2C6.1641 19.2 6.3208 19.1687 6.46689 19.1078C6.61298 19.047 6.74557 18.9578 6.85702 18.8454L12 13.6896L17.1431 18.8454C17.2545 18.9578 17.3871 19.047 17.5332 19.1078C17.6793 19.1687 17.836 19.2 17.9943 19.2C18.1525 19.2 18.3092 19.1687 18.4553 19.1078C18.6014 19.047 18.734 18.9578 18.8454 18.8454C18.9578 18.7339 19.047 18.6013 19.1079 18.4552C19.1687 18.3091 19.2 18.1524 19.2 17.9941C19.2 17.8358 19.1687 17.6791 19.1079 17.533C19.047 17.3869 18.9578 17.2543 18.8454 17.1428L13.6904 11.999Z" fill="#7C909C"/>
</svg>
