<svg
    xmlns="http://www.w3.org/2000/svg"
    xml:space="preserve"
    width="210px"
    height="170px"
    version="1.0"
    style="shape-rendering:geometricPrecision; text-rendering:geometricPrecision; image-rendering:optimizeQuality; fill-rule:evenodd; clip-rule:evenodd"
    viewBox="0 0 8.69 7.04"
>
 <defs>
  <style type="text/css">
   <![CDATA[.fil0 {fill:#EBECEC;fill-rule:nonzero}]]>
  </style>
 </defs>
    <g id="Слой_x0020_1">
        <metadata id="CorelCorpID_0Corel-Layer"/>
        <path
            class="fil0"
            d="M3.21 1.57l0.01 0c0.39,0 0.76,0.04 1.08,0.12l2.19 -1.65c0.07,-0.06 0.18,-0.05 0.24,0.03 0.06,0.08 0.04,0.19 -0.03,0.25l-1.99 1.5c0.03,0.01 0.06,0.02 0.08,0.04 0.45,0.2 0.73,0.49 0.74,0.84l0 0 0 0 0 0.02 0.01 1.05 2.88 -1.85c0.08,-0.05 0.19,-0.03 0.24,0.06 0.05,0.08 0.03,0.19 -0.05,0.24l-3.07 1.97 0.01 0.62 0 0.02 0 0.04c-0.02,0.33 -0.29,0.61 -0.72,0.81 -0.4,0.19 -0.96,0.32 -1.58,0.32l0 0 0 0 -0.01 0c-0.17,0 -0.33,0 -0.49,-0.02l-1.6 1.03c-0.09,0.05 -0.19,0.03 -0.25,-0.05 -0.05,-0.08 -0.03,-0.19 0.06,-0.24l1.27 -0.82c-0.21,-0.05 -0.4,-0.11 -0.56,-0.18 -0.44,-0.2 -0.71,-0.48 -0.74,-0.8l0 -0.05 0 -0.01 0 -0.19 -0.65 0.49c-0.08,0.06 -0.19,0.04 -0.24,-0.03 -0.06,-0.08 -0.05,-0.19 0.03,-0.25l0.85 -0.64 -0.01 -1.5c0,-0.34 0.27,-0.64 0.72,-0.85 0.4,-0.19 0.96,-0.31 1.58,-0.32l0 0 0 0zm0 0.35l0 0 0 0c-0.56,0.01 -1.07,0.12 -1.43,0.29 -0.33,0.15 -0.52,0.34 -0.52,0.53 0,0.2 0.2,0.39 0.53,0.53 0.36,0.16 0.87,0.26 1.44,0.26 0.56,-0.01 1.07,-0.12 1.43,-0.29 0.32,-0.15 0.51,-0.33 0.52,-0.52l0 -0.02 0 0c0,-0.19 -0.2,-0.38 -0.53,-0.52 -0.36,-0.16 -0.87,-0.26 -1.42,-0.26l-0.02 0zm1.98 1.41c-0.11,0.08 -0.24,0.16 -0.38,0.23 -0.41,0.19 -0.96,0.31 -1.58,0.32 -0.61,0 -1.18,-0.11 -1.59,-0.29 -0.14,-0.06 -0.27,-0.14 -0.38,-0.22l0.02 1.52c0.02,0.19 0.22,0.37 0.53,0.51 0.23,0.1 0.53,0.18 0.85,0.22l2.53 -1.62 0 -0.67zm-2.03 -1.1l0 0 0 0 0.01 0c0.21,0 0.4,0.04 0.55,0.1 0.18,0.08 0.3,0.22 0.3,0.38 0,0.16 -0.11,0.3 -0.3,0.38 -0.14,0.07 -0.34,0.11 -0.55,0.12l0 0 0 0 -0.02 0c-0.21,0 -0.4,-0.04 -0.54,-0.11 -0.19,-0.08 -0.3,-0.21 -0.31,-0.37l0 -0.01 0 0 0 -0.02c0.01,-0.15 0.13,-0.27 0.3,-0.36 0.15,-0.07 0.34,-0.11 0.56,-0.11zm0.41 0.42c-0.1,-0.04 -0.24,-0.07 -0.39,-0.07l-0.02 0 0 0c-0.16,0 -0.31,0.03 -0.41,0.08 -0.05,0.03 -0.09,0.05 -0.1,0.06l0 0c0.01,0.02 0.04,0.04 0.1,0.06 0.1,0.05 0.24,0.08 0.4,0.08l0.02 -0.01 0 0.01c0.16,-0.01 0.3,-0.04 0.4,-0.08 0.07,-0.03 0.1,-0.06 0.1,-0.07 0,-0.01 -0.04,-0.03 -0.1,-0.06zm1.11 2.72c0.31,-0.15 0.51,-0.33 0.52,-0.52l0 -0.44 -1.94 1.24c0.56,-0.01 1.06,-0.11 1.42,-0.28z"
        />
    </g>
</svg>
