<svg width="18" height="10" viewBox="0 0 18 10" fill="none" xmlns="http://www.w3.org/2000/svg">
<path fill-rule="evenodd" clip-rule="evenodd" d="M12.7256 0.0995256C14.2428 0.439485 14.8232 1.29615 15.5509 2.47525H12.7256V0.0995256ZM3.85863 2.57426C4.1557 2.57426 4.37132 2.71272 4.37132 3.0363C4.37132 3.30923 4.14261 3.53058 3.8601 3.53135H0.762695C0.479511 3.53135 0.25 3.75309 0.25 4.0264C0.25 4.29984 0.479511 4.52145 0.762695 4.52145H5.37695C5.66281 4.52145 5.89165 4.74294 5.89165 5.0165C5.89165 5.28994 5.66214 5.51155 5.37896 5.51155H0.762695C0.479511 5.51155 0.25 5.73316 0.25 6.0066C0.25 6.28004 0.479511 6.50165 0.762695 6.50165H1.89062V7.9868C1.89062 8.26024 2.12014 8.48185 2.40332 8.48185H3.43392C3.61763 9.35566 4.41725 10 5.35986 10C6.30247 10 7.10209 9.35566 7.28581 8.48185H12.4915C12.6753 9.35566 13.4749 10 14.4175 10C15.3601 10 16.1597 9.35566 16.3434 8.48185H17.2373C17.5205 8.48185 17.75 8.26024 17.75 7.9868V5.0165C17.75 3.56397 16.1633 3.46754 16.1618 3.46535H12.2129C11.9297 3.46535 11.7002 3.24373 11.7002 2.9703V0H2.40332C2.12014 0 1.89062 0.221612 1.89062 0.49505V1.58416H1.27539C0.992207 1.58416 0.762695 1.80577 0.762695 2.07921C0.762695 2.35265 0.992207 2.57426 1.27539 2.57426H3.85863ZM15.0821 7.46055C15.4491 7.81495 15.4491 8.3898 15.0821 8.7442C14.4917 9.31428 13.4775 8.9087 13.4775 8.10231C13.4775 7.29605 14.4917 6.89047 15.0821 7.46055ZM6.0245 7.46055C6.39153 7.81495 6.39153 8.3898 6.0245 8.7442C5.4341 9.31428 4.41992 8.9087 4.41992 8.10231C4.41992 7.29605 5.4341 6.89047 6.0245 7.46055Z" fill="#203842"/>
</svg>
