<svg width="32" height="16" viewBox="0 0 32 16" fill="none" xmlns="http://www.w3.org/2000/svg">
    <path fill-rule="evenodd" clip-rule="evenodd" d="M21.9609 0.159241C24.3885 0.703177 25.3172 2.07384 26.4814 3.9604H21.9609V0.159241ZM7.7738 4.11881C8.24911 4.11881 8.59412 4.34035 8.59412 4.85809C8.59412 5.29476 8.22818 5.64893 7.77615 5.65017H2.82031C2.36722 5.65017 2 6.00495 2 6.44224C2 6.87974 2.36722 7.23432 2.82031 7.23432H10.2031C10.6605 7.23432 11.0266 7.5887 11.0266 8.0264C11.0266 8.4639 10.6594 8.81848 10.2063 8.81848H2.82031C2.36722 8.81848 2 9.17306 2 9.61056C2 10.0481 2.36722 10.4026 2.82031 10.4026H4.625V12.7789C4.625 13.2164 4.99222 13.571 5.44531 13.571H7.09427C7.38821 14.9691 8.6676 16 10.1758 16C11.684 16 12.9633 14.9691 13.2573 13.571H21.5865C21.8804 14.9691 23.1598 16 24.668 16C26.1761 16 27.4555 14.9691 27.7495 13.571H29.1797C29.6328 13.571 30 13.2164 30 12.7789V8.0264C30 5.70235 27.4613 5.54806 27.459 5.54455H21.1406C20.6875 5.54455 20.3203 5.18998 20.3203 4.75248V0H5.44531C4.99222 0 4.625 0.354579 4.625 0.792079V2.53465H3.64062C3.18753 2.53465 2.82031 2.88923 2.82031 3.32673C2.82031 3.76423 3.18753 4.11881 3.64062 4.11881H7.7738ZM25.7314 11.9369C26.3186 12.5039 26.3186 13.4237 25.7314 13.9907C24.7867 14.9028 23.1641 14.2539 23.1641 12.9637C23.1641 11.6737 24.7867 11.0248 25.7314 11.9369ZM11.2392 11.9369C11.8264 12.5039 11.8264 13.4237 11.2392 13.9907C10.2946 14.9028 8.67188 14.2539 8.67188 12.9637C8.67188 11.6737 10.2946 11.0248 11.2392 11.9369Z" fill="#F52341"/>
</svg>
