<svg width="16" height="16" viewBox="0 0 16 16" fill="none" xmlns="http://www.w3.org/2000/svg">
    <path d="M9.34186 3.50734L12.4907 6.65614L6.06026 13.0873C5.89645 13.2509 5.69912 13.377 5.48186 13.4569L5.34986 13.4993L2.10586 14.3841C2.04302 14.4015 1.9769 14.4032 1.91326 14.3891C1.84961 14.375 1.79037 14.3456 1.74069 14.3034C1.69101 14.2612 1.65239 14.2075 1.62819 14.147C1.60399 14.0865 1.59496 14.021 1.60186 13.9561L1.61466 13.8921L2.49946 10.6489C2.56026 10.4249 2.66906 10.2169 2.81786 10.0409L2.91146 9.93854L9.34186 3.50654V3.50734ZM10.5963 2.25374C11.0046 1.84617 11.5551 1.61299 12.1319 1.60334C12.7088 1.59369 13.2668 1.80832 13.6885 2.20202C14.1102 2.59571 14.3626 3.13773 14.3926 3.71386C14.4225 4.28999 14.2277 4.85525 13.8491 5.29054L13.7451 5.40254L13.0563 6.09054L9.90746 2.94174L10.5963 2.25374Z" fill="#203842"/>
</svg>
