<svg width="16" height="16" viewBox="0 0 16 16" fill="none" xmlns="http://www.w3.org/2000/svg">
    <path d="M9.77756 14.6667V8.66672L14.8753 3.55561C14.9511 3.47984 15.011 3.38971 15.0514 3.29049C15.0919 3.19127 15.1121 3.08497 15.1109 2.97783V2.22228C15.1109 2.1044 15.0641 1.99136 14.9807 1.90801C14.8974 1.82466 14.7843 1.77783 14.6664 1.77783H1.33312C1.21524 1.77783 1.1022 1.82466 1.01885 1.90801C0.935497 1.99136 0.888672 2.1044 0.888672 2.22228V2.9645C0.888755 3.06947 0.909611 3.17339 0.950039 3.27026C0.990467 3.36714 1.04967 3.45505 1.12423 3.52894L6.22201 8.70228V13.2356L9.77756 14.6667Z" fill="#2A0042"/>
    <path d="M14.8798 1.77783H1.10202C1.04386 1.78232 0.989542 1.80864 0.949974 1.8515C0.910407 1.89437 0.888513 1.95061 0.888686 2.00894V2.77339C0.888152 2.85174 0.903201 2.92942 0.932957 3.0019C0.962714 3.07439 1.00659 3.14023 1.06202 3.19561L6.39535 8.52894V12.9734L9.61757 14.5778V8.52005L14.9509 3.18672C15.0529 3.07666 15.11 2.93236 15.1109 2.78228V2.00894C15.1109 1.94765 15.0866 1.88886 15.0432 1.84552C14.9999 1.80218 14.9411 1.77783 14.8798 1.77783Z" fill="#2A0042"/>
</svg>