<svg width="80" height="80" viewBox="0 0 80 80" fill="none" xmlns="http://www.w3.org/2000/svg">
<path d="M72.5 40C72.5 55 60 72.5 40 72.5C20 72.5 7.5 55 7.5 40C7.5 25 20 7.5 40 7.5C52.5 7.5 62.5 15 67.5 22.5M67.5 22.5L55 24M67.5 22.5L70 9" stroke="#203842" stroke-width="4" stroke-linecap="round" stroke-linejoin="round"/>
<path d="M38.4608 25.0428C37.7688 24.3508 36.8302 23.962 35.8516 23.962C34.8729 23.962 33.9343 24.3508 33.2423 25.0428L25.4146 32.8705C24.7226 33.5625 24.3339 34.5011 24.3339 35.4798C24.3339 36.4584 24.7226 37.397 25.4146 38.089L41.07 53.7444C41.762 54.4364 42.7006 54.8252 43.6793 54.8252C44.6579 54.8252 45.5965 54.4364 46.2885 53.7444L54.1162 45.9167C54.8082 45.2247 55.197 44.2861 55.197 43.3075C55.197 42.3288 54.8082 41.3902 54.1162 40.6982L38.4608 25.0428ZM44.9839 47.2213C44.6379 46.8753 44.4435 46.406 44.4435 45.9167C44.4435 45.4274 44.6379 44.9581 44.9839 44.6121C45.3299 44.2661 45.7992 44.0717 46.2885 44.0717C46.7778 44.0717 47.2471 44.2661 47.5931 44.6121C47.9391 44.9581 48.1335 45.4274 48.1335 45.9167C48.1335 46.406 47.9391 46.8753 47.5931 47.2213C47.2471 47.5673 46.7778 47.7617 46.2885 47.7617C45.7992 47.7617 45.3299 47.5673 44.9839 47.2213Z" fill="#203842"/>
</svg>
