<svg width="325" height="94" viewBox="0 0 325 94" fill="none" xmlns="http://www.w3.org/2000/svg">
<g clip-path="url(#clip0_2288:16946)">
<rect x="0.5" width="324" height="94" rx="8" fill="#462369"/>
<mask id="path-2-inside-1_2288:16946" fill="white">
<path d="M164.035 51.1123C162.013 51.117 160.037 51.7086 158.359 52.8125C156.68 53.9164 155.373 55.4829 154.604 57.314C153.834 59.145 153.637 61.1583 154.036 63.0994C154.435 65.0404 155.413 66.8219 156.846 68.2187C158.279 69.6155 160.103 70.5648 162.088 70.9465C164.072 71.3282 166.127 71.1252 167.993 70.3632C169.86 69.6012 171.453 68.3144 172.573 66.6656C173.692 65.0167 174.287 63.0798 174.283 61.0998C174.302 59.7789 174.05 58.4677 173.541 57.2443C173.033 56.0208 172.278 54.91 171.322 53.9781C170.365 53.0462 169.228 52.3123 167.976 51.8199C166.724 51.3276 165.384 51.0869 164.035 51.1123ZM164.035 67.1628C162.795 67.2477 161.558 66.9655 160.485 66.353C159.412 65.7404 158.551 64.8258 158.016 63.7281C157.48 62.6304 157.294 61.4003 157.482 60.1978C157.67 58.9952 158.223 57.8758 159.069 56.985C159.915 56.0943 161.016 55.4734 162.227 55.2031C163.438 54.9328 164.705 55.0256 165.862 55.4694C167.018 55.9132 168.012 56.6875 168.713 57.6916C169.415 58.6957 169.792 59.8833 169.795 61.0998C169.833 61.8706 169.714 62.6412 169.444 63.3662C169.173 64.0911 168.757 64.7557 168.221 65.3208C167.684 65.8859 167.037 66.34 166.318 66.6564C165.599 66.9727 164.823 67.1449 164.035 67.1628ZM141.667 51.1123C139.645 51.117 137.669 51.7086 135.991 52.8125C134.312 53.9164 133.005 55.4829 132.236 57.314C131.466 59.145 131.269 61.1583 131.668 63.0994C132.067 65.0404 133.045 66.8219 134.478 68.2187C135.911 69.6155 137.735 70.5648 139.72 70.9465C141.704 71.3282 143.759 71.1252 145.625 70.3632C147.492 69.6012 149.085 68.3144 150.205 66.6656C151.324 65.0167 151.919 63.0798 151.915 61.0998C151.934 59.7789 151.682 58.4677 151.173 57.2443C150.665 56.0208 149.91 54.91 148.954 53.9781C147.997 53.0462 146.86 52.3123 145.608 51.8199C144.356 51.3276 143.016 51.0869 141.667 51.1123ZM141.667 67.1628C140.427 67.2477 139.19 66.9655 138.117 66.353C137.044 65.7404 136.183 64.8258 135.648 63.7281C135.112 62.6304 134.926 61.4003 135.114 60.1978C135.302 58.9952 135.855 57.8758 136.701 56.985C137.547 56.0943 138.648 55.4734 139.859 55.2031C141.07 54.9328 142.337 55.0256 143.494 55.4694C144.65 55.9132 145.644 56.6875 146.345 57.6916C147.047 58.6957 147.424 59.8833 147.427 61.0998C147.465 61.8706 147.346 62.6412 147.076 63.3662C146.805 64.0911 146.389 64.7557 145.853 65.3208C145.316 65.8859 144.669 66.34 143.95 66.6564C143.231 66.9727 142.455 67.1449 141.667 67.1628ZM115.075 54.1908V58.4208H125.443C125.28 60.4131 124.434 62.2931 123.043 63.7553C122.003 64.7929 120.752 65.6051 119.371 66.1394C117.99 66.6738 116.51 66.9183 115.027 66.8573C111.971 66.8573 109.041 65.6689 106.881 63.5535C104.72 61.4381 103.507 58.5689 103.507 55.5773C103.507 52.5857 104.72 49.7165 106.881 47.6011C109.041 45.4857 111.971 44.2973 115.027 44.2973C117.956 44.2546 120.784 45.3438 122.899 47.3288L125.947 44.3443C124.516 42.959 122.818 41.8671 120.951 41.1327C119.084 40.3983 117.086 40.0361 115.075 40.0673C112.941 39.986 110.813 40.3273 108.817 41.0707C106.821 41.8141 104.999 42.9443 103.46 44.3937C101.922 45.843 100.697 47.5816 99.8611 49.5054C99.0248 51.4291 98.5938 53.4983 98.5938 55.589C98.5938 57.6798 99.0248 59.749 99.8611 61.6727C100.697 63.5965 101.922 65.3351 103.46 66.7844C104.999 68.2338 106.821 69.364 108.817 70.1074C110.813 70.8508 112.941 71.1921 115.075 71.1108C117.128 71.1911 119.175 70.8452 121.082 70.096C122.988 69.3467 124.712 68.2109 126.139 66.7633C128.659 64.0524 130.002 60.4869 129.883 56.8228C129.891 55.9409 129.819 55.06 129.667 54.1908H115.075ZM223.819 57.4808C223.193 55.6777 222.022 54.1033 220.462 52.9661C218.902 51.8288 217.026 51.1824 215.083 51.1123C213.77 51.1098 212.47 51.371 211.265 51.8797C210.059 52.3884 208.973 53.1338 208.073 54.0699C207.173 55.0059 206.479 56.1127 206.034 57.3219C205.588 58.5311 205.401 59.8169 205.483 61.0998C205.462 63.245 206.151 65.3391 207.446 67.0694C208.741 68.7997 210.573 70.0733 212.669 70.6999C214.764 71.3265 217.01 71.2726 219.072 70.5461C221.133 69.8197 222.9 68.4597 224.107 66.6693L220.627 64.3193C220.108 65.166 219.372 65.8651 218.492 66.3474C217.612 66.8297 216.619 67.0784 215.611 67.0688C214.57 67.1109 213.542 66.8438 212.659 66.3028C211.777 65.7617 211.082 64.972 210.667 64.0373L224.323 58.5148L223.819 57.4808ZM209.899 60.8178C209.85 60.0878 209.951 59.3557 210.195 58.6643C210.438 57.9729 210.821 57.3361 211.319 56.7911C211.818 56.2462 212.422 55.8041 213.097 55.4908C213.772 55.1774 214.504 54.9991 215.251 54.9663C216.024 54.9201 216.794 55.0983 217.464 55.4788C218.135 55.8592 218.675 56.4248 219.019 57.1048L209.899 60.8178ZM198.811 70.4998H203.299V41.1248H198.811V70.4998ZM191.467 53.3448H191.299C190.628 52.5972 189.801 52.0001 188.873 51.5945C187.945 51.189 186.939 50.9844 185.923 50.9948C183.3 51.1193 180.827 52.2272 179.015 54.0888C177.204 55.9503 176.194 58.4229 176.194 60.9941C176.194 63.5652 177.204 66.0378 179.015 67.8993C180.827 69.7609 183.3 70.8688 185.923 70.9933C186.94 71.0133 187.95 70.813 188.879 70.4068C189.808 70.0005 190.635 69.3984 191.299 68.6433H191.467V70.0768C191.467 73.9073 189.379 75.9518 186.019 75.9518C184.896 75.9277 183.806 75.5774 182.888 74.9456C181.969 74.3138 181.263 73.4289 180.859 72.4033L176.971 73.9778C177.689 75.7456 178.939 77.2581 180.555 78.3155C182.17 79.3729 184.076 79.9254 186.019 79.8998C191.275 79.8998 195.619 76.8683 195.619 69.4893V51.6998H191.467V53.3448ZM186.307 67.1628C184.734 67.0668 183.258 66.3875 182.179 65.2632C181.101 64.1389 180.5 62.6542 180.5 61.1116C180.5 59.5689 181.101 58.0842 182.179 56.9599C183.258 55.8356 184.734 55.1563 186.307 55.0603C187.075 55.0928 187.829 55.2763 188.524 55.5999C189.219 55.9236 189.84 56.3808 190.35 56.9442C190.861 57.5077 191.25 58.166 191.496 58.8799C191.741 59.5938 191.837 60.3487 191.779 61.0998C191.844 61.8534 191.753 62.6122 191.51 63.3303C191.268 64.0484 190.879 64.7108 190.367 65.2776C189.856 65.8444 189.232 66.3036 188.534 66.6277C187.836 66.9517 187.079 67.1337 186.307 67.1628ZM244.843 41.1248H234.091V70.4998H238.579V59.3608H244.843C246.122 59.4508 247.406 59.2818 248.615 58.8643C249.825 58.4469 250.934 57.7899 251.872 56.9344C252.811 56.0789 253.56 55.0432 254.072 53.892C254.583 52.7407 254.848 51.4985 254.848 50.2428C254.848 48.9871 254.583 47.7449 254.072 46.5936C253.56 45.4424 252.811 44.4067 251.872 43.5512C250.934 42.6957 249.825 42.0387 248.615 41.6213C247.406 41.2038 246.122 41.0348 244.843 41.1248ZM244.843 55.2248H238.579V45.2138H244.939C245.613 45.2138 246.281 45.3439 246.904 45.5966C247.527 45.8493 248.093 46.2198 248.57 46.6868C249.047 47.1537 249.426 47.7081 249.684 48.3183C249.942 48.9284 250.075 49.5824 250.075 50.2428C250.075 50.9032 249.942 51.5572 249.684 52.1673C249.426 52.7775 249.047 53.3318 248.57 53.7988C248.093 54.2658 247.527 54.6363 246.904 54.889C246.281 55.1417 245.613 55.2718 244.939 55.2718L244.843 55.2248ZM272.539 51.0183C270.904 50.9196 269.276 51.2922 267.856 52.0899C266.435 52.8877 265.285 54.0756 264.547 55.5068L268.507 57.1283C268.907 56.4219 269.507 55.8441 270.236 55.4646C270.964 55.0851 271.789 54.9202 272.611 54.9898C273.18 54.9246 273.758 54.9712 274.309 55.1269C274.86 55.2825 275.374 55.544 275.821 55.8962C276.268 56.2484 276.638 56.6842 276.911 57.1782C277.184 57.6721 277.354 58.2144 277.411 58.7733V59.0553C275.967 58.3125 274.361 57.9253 272.731 57.9273C268.459 57.9273 264.091 60.2773 264.091 64.5543C264.133 65.4634 264.361 66.3549 264.762 67.1758C265.163 67.9968 265.729 68.7305 266.425 69.3333C267.121 69.9361 267.934 70.3958 268.815 70.685C269.696 70.9742 270.628 71.087 271.555 71.0168C272.681 71.0778 273.803 70.8444 274.807 70.3406C275.811 69.8368 276.66 69.0807 277.267 68.1498H277.411V70.4998H281.731V59.1963C281.731 54.0498 277.747 51.0653 272.635 51.0653L272.539 51.0183ZM271.987 67.1158C270.523 67.1158 268.483 66.3873 268.483 64.6248C268.483 62.2748 271.027 61.4758 273.283 61.4758C274.708 61.4414 276.117 61.7822 277.363 62.4628C277.212 63.739 276.594 64.9185 275.623 65.7827C274.652 66.6469 273.394 67.1372 272.083 67.1628L271.987 67.1158ZM297.475 51.6998L292.339 64.4368H292.195L286.867 51.6998H282.067L290.059 69.5128L285.499 79.4063H290.179L302.467 51.6998H297.475ZM257.155 70.4998H261.619V41.1248H257.155V70.4998Z"/>
</mask>
<path d="M164.035 51.1123C162.013 51.117 160.037 51.7086 158.359 52.8125C156.68 53.9164 155.373 55.4829 154.604 57.314C153.834 59.145 153.637 61.1583 154.036 63.0994C154.435 65.0404 155.413 66.8219 156.846 68.2187C158.279 69.6155 160.103 70.5648 162.088 70.9465C164.072 71.3282 166.127 71.1252 167.993 70.3632C169.86 69.6012 171.453 68.3144 172.573 66.6656C173.692 65.0167 174.287 63.0798 174.283 61.0998C174.302 59.7789 174.05 58.4677 173.541 57.2443C173.033 56.0208 172.278 54.91 171.322 53.9781C170.365 53.0462 169.228 52.3123 167.976 51.8199C166.724 51.3276 165.384 51.0869 164.035 51.1123ZM164.035 67.1628C162.795 67.2477 161.558 66.9655 160.485 66.353C159.412 65.7404 158.551 64.8258 158.016 63.7281C157.48 62.6304 157.294 61.4003 157.482 60.1978C157.67 58.9952 158.223 57.8758 159.069 56.985C159.915 56.0943 161.016 55.4734 162.227 55.2031C163.438 54.9328 164.705 55.0256 165.862 55.4694C167.018 55.9132 168.012 56.6875 168.713 57.6916C169.415 58.6957 169.792 59.8833 169.795 61.0998C169.833 61.8706 169.714 62.6412 169.444 63.3662C169.173 64.0911 168.757 64.7557 168.221 65.3208C167.684 65.8859 167.037 66.34 166.318 66.6564C165.599 66.9727 164.823 67.1449 164.035 67.1628ZM141.667 51.1123C139.645 51.117 137.669 51.7086 135.991 52.8125C134.312 53.9164 133.005 55.4829 132.236 57.314C131.466 59.145 131.269 61.1583 131.668 63.0994C132.067 65.0404 133.045 66.8219 134.478 68.2187C135.911 69.6155 137.735 70.5648 139.72 70.9465C141.704 71.3282 143.759 71.1252 145.625 70.3632C147.492 69.6012 149.085 68.3144 150.205 66.6656C151.324 65.0167 151.919 63.0798 151.915 61.0998C151.934 59.7789 151.682 58.4677 151.173 57.2443C150.665 56.0208 149.91 54.91 148.954 53.9781C147.997 53.0462 146.86 52.3123 145.608 51.8199C144.356 51.3276 143.016 51.0869 141.667 51.1123ZM141.667 67.1628C140.427 67.2477 139.19 66.9655 138.117 66.353C137.044 65.7404 136.183 64.8258 135.648 63.7281C135.112 62.6304 134.926 61.4003 135.114 60.1978C135.302 58.9952 135.855 57.8758 136.701 56.985C137.547 56.0943 138.648 55.4734 139.859 55.2031C141.07 54.9328 142.337 55.0256 143.494 55.4694C144.65 55.9132 145.644 56.6875 146.345 57.6916C147.047 58.6957 147.424 59.8833 147.427 61.0998C147.465 61.8706 147.346 62.6412 147.076 63.3662C146.805 64.0911 146.389 64.7557 145.853 65.3208C145.316 65.8859 144.669 66.34 143.95 66.6564C143.231 66.9727 142.455 67.1449 141.667 67.1628ZM115.075 54.1908V58.4208H125.443C125.28 60.4131 124.434 62.2931 123.043 63.7553C122.003 64.7929 120.752 65.6051 119.371 66.1394C117.99 66.6738 116.51 66.9183 115.027 66.8573C111.971 66.8573 109.041 65.6689 106.881 63.5535C104.72 61.4381 103.507 58.5689 103.507 55.5773C103.507 52.5857 104.72 49.7165 106.881 47.6011C109.041 45.4857 111.971 44.2973 115.027 44.2973C117.956 44.2546 120.784 45.3438 122.899 47.3288L125.947 44.3443C124.516 42.959 122.818 41.8671 120.951 41.1327C119.084 40.3983 117.086 40.0361 115.075 40.0673C112.941 39.986 110.813 40.3273 108.817 41.0707C106.821 41.8141 104.999 42.9443 103.46 44.3937C101.922 45.843 100.697 47.5816 99.8611 49.5054C99.0248 51.4291 98.5938 53.4983 98.5938 55.589C98.5938 57.6798 99.0248 59.749 99.8611 61.6727C100.697 63.5965 101.922 65.3351 103.46 66.7844C104.999 68.2338 106.821 69.364 108.817 70.1074C110.813 70.8508 112.941 71.1921 115.075 71.1108C117.128 71.1911 119.175 70.8452 121.082 70.096C122.988 69.3467 124.712 68.2109 126.139 66.7633C128.659 64.0524 130.002 60.4869 129.883 56.8228C129.891 55.9409 129.819 55.06 129.667 54.1908H115.075ZM223.819 57.4808C223.193 55.6777 222.022 54.1033 220.462 52.9661C218.902 51.8288 217.026 51.1824 215.083 51.1123C213.77 51.1098 212.47 51.371 211.265 51.8797C210.059 52.3884 208.973 53.1338 208.073 54.0699C207.173 55.0059 206.479 56.1127 206.034 57.3219C205.588 58.5311 205.401 59.8169 205.483 61.0998C205.462 63.245 206.151 65.3391 207.446 67.0694C208.741 68.7997 210.573 70.0733 212.669 70.6999C214.764 71.3265 217.01 71.2726 219.072 70.5461C221.133 69.8197 222.9 68.4597 224.107 66.6693L220.627 64.3193C220.108 65.166 219.372 65.8651 218.492 66.3474C217.612 66.8297 216.619 67.0784 215.611 67.0688C214.57 67.1109 213.542 66.8438 212.659 66.3028C211.777 65.7617 211.082 64.972 210.667 64.0373L224.323 58.5148L223.819 57.4808ZM209.899 60.8178C209.85 60.0878 209.951 59.3557 210.195 58.6643C210.438 57.9729 210.821 57.3361 211.319 56.7911C211.818 56.2462 212.422 55.8041 213.097 55.4908C213.772 55.1774 214.504 54.9991 215.251 54.9663C216.024 54.9201 216.794 55.0983 217.464 55.4788C218.135 55.8592 218.675 56.4248 219.019 57.1048L209.899 60.8178ZM198.811 70.4998H203.299V41.1248H198.811V70.4998ZM191.467 53.3448H191.299C190.628 52.5972 189.801 52.0001 188.873 51.5945C187.945 51.189 186.939 50.9844 185.923 50.9948C183.3 51.1193 180.827 52.2272 179.015 54.0888C177.204 55.9503 176.194 58.4229 176.194 60.9941C176.194 63.5652 177.204 66.0378 179.015 67.8993C180.827 69.7609 183.3 70.8688 185.923 70.9933C186.94 71.0133 187.95 70.813 188.879 70.4068C189.808 70.0005 190.635 69.3984 191.299 68.6433H191.467V70.0768C191.467 73.9073 189.379 75.9518 186.019 75.9518C184.896 75.9277 183.806 75.5774 182.888 74.9456C181.969 74.3138 181.263 73.4289 180.859 72.4033L176.971 73.9778C177.689 75.7456 178.939 77.2581 180.555 78.3155C182.17 79.3729 184.076 79.9254 186.019 79.8998C191.275 79.8998 195.619 76.8683 195.619 69.4893V51.6998H191.467V53.3448ZM186.307 67.1628C184.734 67.0668 183.258 66.3875 182.179 65.2632C181.101 64.1389 180.5 62.6542 180.5 61.1116C180.5 59.5689 181.101 58.0842 182.179 56.9599C183.258 55.8356 184.734 55.1563 186.307 55.0603C187.075 55.0928 187.829 55.2763 188.524 55.5999C189.219 55.9236 189.84 56.3808 190.35 56.9442C190.861 57.5077 191.25 58.166 191.496 58.8799C191.741 59.5938 191.837 60.3487 191.779 61.0998C191.844 61.8534 191.753 62.6122 191.51 63.3303C191.268 64.0484 190.879 64.7108 190.367 65.2776C189.856 65.8444 189.232 66.3036 188.534 66.6277C187.836 66.9517 187.079 67.1337 186.307 67.1628ZM244.843 41.1248H234.091V70.4998H238.579V59.3608H244.843C246.122 59.4508 247.406 59.2818 248.615 58.8643C249.825 58.4469 250.934 57.7899 251.872 56.9344C252.811 56.0789 253.56 55.0432 254.072 53.892C254.583 52.7407 254.848 51.4985 254.848 50.2428C254.848 48.9871 254.583 47.7449 254.072 46.5936C253.56 45.4424 252.811 44.4067 251.872 43.5512C250.934 42.6957 249.825 42.0387 248.615 41.6213C247.406 41.2038 246.122 41.0348 244.843 41.1248ZM244.843 55.2248H238.579V45.2138H244.939C245.613 45.2138 246.281 45.3439 246.904 45.5966C247.527 45.8493 248.093 46.2198 248.57 46.6868C249.047 47.1537 249.426 47.7081 249.684 48.3183C249.942 48.9284 250.075 49.5824 250.075 50.2428C250.075 50.9032 249.942 51.5572 249.684 52.1673C249.426 52.7775 249.047 53.3318 248.57 53.7988C248.093 54.2658 247.527 54.6363 246.904 54.889C246.281 55.1417 245.613 55.2718 244.939 55.2718L244.843 55.2248ZM272.539 51.0183C270.904 50.9196 269.276 51.2922 267.856 52.0899C266.435 52.8877 265.285 54.0756 264.547 55.5068L268.507 57.1283C268.907 56.4219 269.507 55.8441 270.236 55.4646C270.964 55.0851 271.789 54.9202 272.611 54.9898C273.18 54.9246 273.758 54.9712 274.309 55.1269C274.86 55.2825 275.374 55.544 275.821 55.8962C276.268 56.2484 276.638 56.6842 276.911 57.1782C277.184 57.6721 277.354 58.2144 277.411 58.7733V59.0553C275.967 58.3125 274.361 57.9253 272.731 57.9273C268.459 57.9273 264.091 60.2773 264.091 64.5543C264.133 65.4634 264.361 66.3549 264.762 67.1758C265.163 67.9968 265.729 68.7305 266.425 69.3333C267.121 69.9361 267.934 70.3958 268.815 70.685C269.696 70.9742 270.628 71.087 271.555 71.0168C272.681 71.0778 273.803 70.8444 274.807 70.3406C275.811 69.8368 276.66 69.0807 277.267 68.1498H277.411V70.4998H281.731V59.1963C281.731 54.0498 277.747 51.0653 272.635 51.0653L272.539 51.0183ZM271.987 67.1158C270.523 67.1158 268.483 66.3873 268.483 64.6248C268.483 62.2748 271.027 61.4758 273.283 61.4758C274.708 61.4414 276.117 61.7822 277.363 62.4628C277.212 63.739 276.594 64.9185 275.623 65.7827C274.652 66.6469 273.394 67.1372 272.083 67.1628L271.987 67.1158ZM297.475 51.6998L292.339 64.4368H292.195L286.867 51.6998H282.067L290.059 69.5128L285.499 79.4063H290.179L302.467 51.6998H297.475ZM257.155 70.4998H261.619V41.1248H257.155V70.4998Z" fill="white" stroke="white" stroke-width="2" mask="url(#path-2-inside-1_2288:16946)"/>
<path d="M25.5563 17.7195C24.7654 18.6351 24.3619 19.8121 24.4283 21.0095V72.9915C24.3466 74.1909 24.752 75.3733 25.5563 76.2815L25.7243 76.4695L55.4603 47.353V46.648L25.7243 17.555L25.5563 17.7195Z" fill="url(#paint0_linear_2288:16946)"/>
<path d="M65.3009 57.0585L55.4609 47.353V46.648L65.3009 36.9425L65.5169 37.0835L77.3009 43.6165C80.6609 45.473 80.6609 48.528 77.3009 50.408L65.5649 56.941L65.3009 57.0585Z" fill="url(#paint1_linear_2288:16946)"/>
<path d="M65.5906 56.917L55.4626 47L25.5586 76.281C26.2368 76.8721 27.1048 77.2121 28.0122 77.2422C28.9196 77.2722 29.8092 76.9904 30.5266 76.4455L65.5906 56.917Z" fill="url(#paint2_linear_2288:16946)"/>
<path d="M65.5906 37.083L30.5266 17.5779C29.8139 17.0255 28.925 16.7368 28.0164 16.7626C27.1077 16.7884 26.2375 17.127 25.5586 17.719L55.4626 46.9999L65.5906 37.083Z" fill="url(#paint3_linear_2288:16946)"/>
<path opacity="0.25" d="M30.5257 17.907L77.3017 43.945C77.9405 44.2235 78.5035 44.6451 78.9454 45.1757C79.3872 45.7064 79.6956 46.3312 79.8457 47C79.7715 46.2641 79.4961 45.5613 79.0484 44.9658C78.6007 44.3703 77.9973 43.904 77.3017 43.616L30.5257 17.578C27.1897 15.698 24.4297 17.249 24.4297 21.009V21.3615C24.5017 17.6015 27.1897 16.0505 30.5257 17.907Z" fill="white"/>
<path d="M101.564 33.5345H99.8125V28.8345H101.3C101.97 28.1228 102.473 27.2771 102.776 26.356C103.078 25.4349 103.173 24.4604 103.052 23.5V16.45H112.652V28.811H114.26V33.511H112.484V30.55H101.564V33.5345ZM104.9 23.5C105.008 25.3877 104.531 27.2632 103.532 28.8815H110.732V18.189H104.9V23.5Z" fill="white" stroke="white" stroke-width="0.2" stroke-miterlimit="10"/>
<path d="M128.683 28.7172C127.992 29.3957 127.171 29.9341 126.267 30.3015C125.363 30.6688 124.394 30.8579 123.415 30.8579C122.437 30.8579 121.467 30.6688 120.563 30.3015C119.659 29.9341 118.838 29.3957 118.147 28.7172C116.774 27.3131 116.008 25.4441 116.008 23.5002C116.008 21.5562 116.774 19.6873 118.147 18.2832C118.838 17.6046 119.659 17.0662 120.563 16.6989C121.467 16.3315 122.437 16.1425 123.415 16.1425C124.394 16.1425 125.363 16.3315 126.267 16.6989C127.171 17.0662 127.992 17.6046 128.683 18.2832C129.377 18.9694 129.923 19.7844 130.29 20.6804C130.656 21.5763 130.836 22.5351 130.819 23.5002C130.848 24.4667 130.673 25.4286 130.305 26.3261C129.938 27.2236 129.386 28.0375 128.683 28.7172ZM119.491 27.5422C119.997 28.0564 120.605 28.4636 121.278 28.7385C121.951 29.0134 122.674 29.1501 123.403 29.1402C124.133 29.1543 124.858 29.0196 125.531 28.7444C126.205 28.4693 126.812 28.0599 127.315 27.5422C128.351 26.4403 128.926 24.9976 128.926 23.5002C128.926 22.0027 128.351 20.56 127.315 19.4582C126.812 18.9405 126.205 18.531 125.531 18.2559C124.858 17.9808 124.133 17.846 123.403 17.8602C122.674 17.8503 121.951 17.987 121.278 18.2618C120.605 18.5367 119.997 18.9439 119.491 19.4582C118.471 20.5674 117.906 22.0073 117.906 23.5002C117.906 24.993 118.471 26.4329 119.491 27.5422Z" fill="white" stroke="white" stroke-width="0.2" stroke-miterlimit="10"/>
<path d="M140.132 30.8553C139.161 30.8702 138.197 30.6926 137.298 30.3331C136.398 29.9737 135.583 29.4399 134.9 28.7638C133.515 27.3467 132.742 25.4611 132.742 23.4998C132.742 21.5385 133.515 19.6528 134.9 18.2358C135.594 17.548 136.425 17.0074 137.342 16.6476C138.258 16.2878 139.241 16.1165 140.228 16.1443C141.233 16.1164 142.231 16.3137 143.146 16.7209C144.061 17.1282 144.869 17.7347 145.508 18.4943L144.236 19.7163C143.764 19.1227 143.154 18.6486 142.457 18.3337C141.76 18.0188 140.995 17.8724 140.228 17.9068C139.489 17.8883 138.754 18.0185 138.069 18.2894C137.384 18.5602 136.763 18.9659 136.244 19.4813C135.21 20.5933 134.637 22.043 134.637 23.5468C134.637 25.0505 135.21 26.5002 136.244 27.6123C136.763 28.1277 137.384 28.5333 138.069 28.8042C138.754 29.075 139.489 29.2052 140.228 29.1868C141.053 29.1638 141.862 28.9648 142.6 28.6035C143.338 28.2422 143.986 27.7275 144.5 27.0953L145.796 28.3408C145.138 29.1122 144.32 29.7372 143.396 30.1738C142.375 30.6408 141.259 30.8739 140.132 30.8553Z" fill="white" stroke="white" stroke-width="0.2" stroke-miterlimit="10"/>
<path d="M153.333 30.55H151.485V18.189H147.453V16.45H157.341V18.189H153.333V30.55Z" fill="white" stroke="white" stroke-width="0.2" stroke-miterlimit="10"/>
<path d="M170.061 16.45L164.613 28.341C164.481 28.8178 164.244 29.2607 163.92 29.6391C163.596 30.0175 163.191 30.3223 162.734 30.5324C162.278 30.7426 161.78 30.853 161.276 30.856C160.771 30.859 160.272 30.7546 159.813 30.55L160.293 28.8815C160.586 29.0431 160.916 29.1318 161.253 29.14C161.608 29.1575 161.96 29.0672 162.261 28.8815C162.552 28.644 162.776 28.3362 162.909 27.9885L163.437 26.8605L158.637 16.45H160.821L164.373 24.534L167.877 16.45H170.061Z" fill="white" stroke="white" stroke-width="0.2" stroke-miterlimit="10"/>
<path d="M172.148 30.55V16.45H182.564V30.55H180.716V18.189H173.996V30.55H172.148Z" fill="white" stroke="white" stroke-width="0.2" stroke-miterlimit="10"/>
<path d="M185.852 30.55V16.45H187.7V22.4895H194.9V16.45H196.772V30.55H194.9V24.1815H187.7V30.55H185.852Z" fill="white" stroke="white" stroke-width="0.2" stroke-miterlimit="10"/>
<path d="M211.844 28.7172C211.151 29.3965 210.328 29.9353 209.422 30.303C208.516 30.6707 207.545 30.8599 206.564 30.8599C205.583 30.8599 204.612 30.6707 203.706 30.303C202.8 29.9353 201.977 29.3965 201.284 28.7172C199.911 27.3131 199.145 25.4441 199.145 23.5002C199.145 21.5562 199.911 19.6873 201.284 18.2832C201.975 17.6046 202.796 17.0662 203.7 16.6989C204.604 16.3315 205.573 16.1425 206.552 16.1425C207.531 16.1425 208.5 16.3315 209.404 16.6989C210.308 17.0662 211.129 17.6046 211.82 18.2832C213.182 19.6927 213.941 21.5596 213.941 23.5002C213.941 25.4407 213.182 27.3076 211.82 28.7172H211.844ZM202.652 27.5422C203.155 28.0599 203.763 28.4693 204.436 28.7444C205.11 29.0196 205.834 29.1543 206.564 29.1402C207.293 29.1501 208.016 29.0134 208.689 28.7385C209.362 28.4636 209.97 28.0564 210.476 27.5422C211.496 26.4329 212.061 24.993 212.061 23.5002C212.061 22.0073 211.496 20.5674 210.476 19.4582C209.97 18.9439 209.362 18.5367 208.689 18.2618C208.016 17.987 207.293 17.8503 206.564 17.8602C205.834 17.846 205.11 17.9808 204.436 18.2559C203.763 18.531 203.155 18.9405 202.652 19.4582C201.616 20.56 201.042 22.0027 201.042 23.5002C201.042 24.9976 201.616 26.4403 202.652 27.5422Z" fill="white" stroke="white" stroke-width="0.2" stroke-miterlimit="10"/>
<path d="M221.516 30.5502V16.4502H226.724C227.803 16.4396 228.848 16.8253 229.652 17.5312C230.053 17.872 230.372 18.2949 230.588 18.77C230.804 19.2452 230.91 19.7609 230.9 20.2807C230.905 20.9138 230.722 21.5346 230.372 22.0667C230.017 22.5713 229.527 22.9699 228.956 23.2182C229.649 23.4502 230.257 23.8749 230.708 24.4402C231.149 25.0161 231.385 25.7178 231.38 26.4377C231.392 26.9795 231.282 27.5172 231.058 28.0127C230.834 28.5082 230.501 28.9494 230.084 29.3047C229.251 30.0637 228.149 30.4765 227.012 30.4562L221.516 30.5502ZM223.364 22.4897H226.724C227.038 22.5075 227.352 22.4555 227.643 22.3375C227.934 22.2194 228.194 22.0385 228.404 21.8082C228.811 21.4177 229.044 20.8856 229.052 20.3277C229.074 19.7681 228.877 19.2213 228.5 18.8002C228.298 18.5811 228.049 18.4084 227.771 18.2946C227.493 18.1809 227.193 18.1288 226.892 18.1422H223.436L223.364 22.4897ZM223.364 28.8112H227.108C227.433 28.8219 227.756 28.7621 228.055 28.6362C228.354 28.5103 228.62 28.3213 228.836 28.0827C229.25 27.6493 229.482 27.0784 229.484 26.4847C229.469 25.896 229.229 25.3341 228.812 24.9102C228.58 24.6724 228.301 24.4846 227.99 24.3591C227.68 24.2337 227.347 24.1732 227.012 24.1817H223.364V28.8112Z" fill="white" stroke="white" stroke-width="0.2" stroke-miterlimit="10"/>
</g>
<defs>
<linearGradient id="paint0_linear_2288:16946" x1="52.8203" y1="20.469" x2="13.396" y2="60.7321" gradientUnits="userSpaceOnUse">
<stop stop-color="#00A0FF"/>
<stop offset="0.01" stop-color="#00A1FF"/>
<stop offset="0.26" stop-color="#00BEFF"/>
<stop offset="0.51" stop-color="#00D2FF"/>
<stop offset="0.76" stop-color="#00DFFF"/>
<stop offset="1" stop-color="#00E3FF"/>
</linearGradient>
<linearGradient id="paint1_linear_2288:16946" x1="81.6929" y1="47.0005" x2="23.6369" y2="47.0005" gradientUnits="userSpaceOnUse">
<stop stop-color="#FFE000"/>
<stop offset="0.41" stop-color="#FFBD00"/>
<stop offset="0.78" stop-color="#FFA500"/>
<stop offset="1" stop-color="#FF9C00"/>
</linearGradient>
<linearGradient id="paint2_linear_2288:16946" x1="60.0946" y1="52.405" x2="6.61995" y2="106.993" gradientUnits="userSpaceOnUse">
<stop stop-color="#FF3A44"/>
<stop offset="1" stop-color="#C31162"/>
</linearGradient>
<linearGradient id="paint3_linear_2288:16946" x1="18.0226" y1="0.422954" x2="41.8933" y2="24.8016" gradientUnits="userSpaceOnUse">
<stop stop-color="#32A071"/>
<stop offset="0.07" stop-color="#2DA771"/>
<stop offset="0.48" stop-color="#15CF74"/>
<stop offset="0.8" stop-color="#06E775"/>
<stop offset="1" stop-color="#00F076"/>
</linearGradient>
<clipPath id="clip0_2288:16946">
<rect width="324" height="94" fill="white" transform="translate(0.5)"/>
</clipPath>
</defs>
</svg>
