<svg width="116" height="34" viewBox="0 0 116 34" fill="none" xmlns="http://www.w3.org/2000/svg">
<rect y="0.00012207" width="116" height="34" rx="4" fill="#462369"/>
<g clip-path="url(#clip0_4701_9069)">
<mask id="path-2-inside-1_4701_9069" fill="white">
<path d="M58.1932 18.4877C57.4658 18.4893 56.7553 18.7034 56.1515 19.1026C55.5476 19.5019 55.0776 20.0685 54.8008 20.7308C54.524 21.3931 54.4529 22.1213 54.5965 22.8234C54.7401 23.5255 55.0919 24.1699 55.6074 24.6751C56.123 25.1803 56.7791 25.5236 57.4928 25.6617C58.2066 25.7998 58.9459 25.7264 59.6172 25.4508C60.2886 25.1751 60.8619 24.7097 61.2645 24.1133C61.6672 23.5169 61.8813 22.8163 61.8796 22.1002C61.8866 21.6224 61.7959 21.1481 61.6129 20.7056C61.43 20.2631 61.1584 19.8613 60.8144 19.5242C60.4705 19.1872 60.0612 18.9217 59.6109 18.7436C59.1605 18.5655 58.6784 18.4785 58.1932 18.4877ZM58.1932 24.2932C57.7474 24.3239 57.3025 24.2218 56.9164 24.0002C56.5302 23.7787 56.2207 23.4479 56.0281 23.0508C55.8354 22.6538 55.7685 22.2089 55.8361 21.7739C55.9037 21.3389 56.1026 20.934 56.407 20.6118C56.7114 20.2897 57.1072 20.0651 57.543 19.9673C57.9787 19.8695 58.4342 19.9031 58.8504 20.0636C59.2665 20.2241 59.6239 20.5042 59.8762 20.8674C60.1286 21.2306 60.2641 21.6601 60.2652 22.1002C60.2791 22.379 60.2361 22.6577 60.1389 22.9199C60.0416 23.1821 59.8921 23.4225 59.699 23.6269C59.5058 23.8313 59.2731 23.9955 59.0145 24.11C58.7559 24.2244 58.4767 24.2867 58.1932 24.2932ZM50.1472 18.4877C49.4198 18.4893 48.7093 18.7034 48.1054 19.1026C47.5016 19.5019 47.0316 20.0685 46.7548 20.7308C46.478 21.3931 46.4069 22.1213 46.5505 22.8234C46.6941 23.5255 47.0459 24.1699 47.5614 24.6751C48.0769 25.1803 48.7331 25.5236 49.4468 25.6617C50.1605 25.7998 50.8998 25.7264 51.5712 25.4508C52.2425 25.1751 52.8158 24.7097 53.2185 24.1133C53.6212 23.5169 53.8352 22.8163 53.8335 22.1002C53.8405 21.6224 53.7499 21.1481 53.5669 20.7056C53.3839 20.2631 53.1124 19.8613 52.7684 19.5242C52.4244 19.1872 52.0151 18.9217 51.5648 18.7436C51.1145 18.5655 50.6324 18.4785 50.1472 18.4877ZM50.1472 24.2932C49.7013 24.3239 49.2564 24.2218 48.8703 24.0002C48.4842 23.7787 48.1747 23.4479 47.982 23.0508C47.7894 22.6538 47.7225 22.2089 47.7901 21.7739C47.8576 21.3389 48.0566 20.934 48.361 20.6118C48.6654 20.2897 49.0612 20.0651 49.4969 19.9673C49.9327 19.8695 50.3882 19.9031 50.8043 20.0636C51.2204 20.2241 51.5779 20.5042 51.8302 20.8674C52.0825 21.2306 52.218 21.6601 52.2191 22.1002C52.233 22.379 52.1901 22.6577 52.0928 22.9199C51.9956 23.1821 51.846 23.4225 51.6529 23.6269C51.4598 23.8313 51.2271 23.9955 50.9685 24.11C50.7099 24.2244 50.4306 24.2867 50.1472 24.2932ZM40.5817 19.6012V21.1312H44.3112C44.2527 21.8518 43.9485 22.5318 43.4479 23.0607C43.0738 23.4359 42.6238 23.7297 42.1271 23.923C41.6304 24.1163 41.0981 24.2047 40.5644 24.1827C39.4654 24.1827 38.4114 23.7528 37.6343 22.9877C36.8571 22.2225 36.4206 21.1847 36.4206 20.1027C36.4206 19.0206 36.8571 17.9828 37.6343 17.2177C38.4114 16.4525 39.4654 16.0227 40.5644 16.0227C41.6181 16.0072 42.6354 16.4012 43.3961 17.1192L44.4925 16.0397C43.978 15.5386 43.367 15.1437 42.6955 14.878C42.024 14.6124 41.3053 14.4814 40.5817 14.4927C39.8142 14.4632 39.0486 14.5867 38.3307 14.8556C37.6129 15.1245 36.9575 15.5333 36.4039 16.0575C35.8504 16.5817 35.41 17.2106 35.1092 17.9064C34.8084 18.6022 34.6533 19.3507 34.6533 20.1069C34.6533 20.8631 34.8084 21.6116 35.1092 22.3074C35.41 23.0032 35.8504 23.6321 36.4039 24.1563C36.9575 24.6805 37.6129 25.0893 38.3307 25.3582C39.0486 25.6271 39.8142 25.7506 40.5817 25.7212C41.3202 25.7502 42.0566 25.6251 42.7425 25.3541C43.4284 25.0831 44.0483 24.6723 44.5616 24.1487C45.4681 23.1681 45.9512 21.8785 45.9083 20.5532C45.9114 20.2342 45.8854 19.9156 45.8306 19.6012H40.5817ZM79.6983 20.7912C79.4731 20.139 79.0521 19.5695 78.4909 19.1582C77.9298 18.7468 77.2549 18.513 76.5558 18.4877C76.0836 18.4867 75.6162 18.5812 75.1825 18.7652C74.7488 18.9492 74.3581 19.2188 74.0344 19.5574C73.7108 19.896 73.4611 20.2963 73.3008 20.7337C73.1405 21.171 73.0731 21.6361 73.1026 22.1002C73.0952 22.8761 73.343 23.6335 73.8089 24.2594C74.2748 24.8852 74.9338 25.3459 75.6875 25.5725C76.4413 25.7992 77.2493 25.7797 77.9908 25.5169C78.7324 25.2541 79.3677 24.7622 79.8019 24.1147L78.5501 23.2647C78.3634 23.5709 78.0988 23.8238 77.7823 23.9982C77.4658 24.1727 77.1084 24.2626 76.7457 24.2592C76.3716 24.2744 76.0015 24.1778 75.6841 23.9821C75.3667 23.7864 75.1168 23.5007 74.9673 23.1627L79.8796 21.1652L79.6983 20.7912ZM74.6911 21.9982C74.6736 21.7341 74.7097 21.4693 74.7975 21.2192C74.8852 20.9691 75.0228 20.7388 75.2021 20.5417C75.3813 20.3446 75.5988 20.1847 75.8416 20.0714C76.0844 19.958 76.3478 19.8935 76.6162 19.8817C76.8944 19.8649 77.1714 19.9294 77.4125 20.067C77.6536 20.2046 77.8481 20.4092 77.9716 20.6552L74.6911 21.9982ZM70.7026 25.5002H72.317V14.8752H70.7026V25.5002ZM68.0608 19.2952H68.0004C67.7593 19.0247 67.4616 18.8088 67.1278 18.6621C66.7941 18.5154 66.4321 18.4414 66.0666 18.4452C65.1232 18.4902 64.2335 18.8909 63.582 19.5642C62.9305 20.2376 62.567 21.1319 62.567 22.0619C62.567 22.9919 62.9305 23.8862 63.582 24.5596C64.2335 25.2329 65.1232 25.6336 66.0666 25.6787C66.4326 25.6859 66.7957 25.6134 67.13 25.4665C67.4643 25.3196 67.7615 25.1018 68.0004 24.8287H68.0608V25.3472C68.0608 26.7327 67.3098 27.4722 66.1011 27.4722C65.6974 27.4634 65.3054 27.3368 64.9749 27.1082C64.6444 26.8797 64.3904 26.5596 64.245 26.1887L62.8465 26.7582C63.105 27.3976 63.5546 27.9447 64.1357 28.3271C64.7169 28.7096 65.4022 28.9094 66.1011 28.9002C67.9918 28.9002 69.5544 27.8037 69.5544 25.1347V18.7002H68.0608V19.2952ZM66.2047 24.2932C65.6391 24.2584 65.1082 24.0127 64.7201 23.6061C64.332 23.1994 64.116 22.6624 64.116 22.1044C64.116 21.5464 64.332 21.0094 64.7201 20.6027C65.1082 20.1961 65.6391 19.9504 66.2047 19.9157C66.4812 19.9274 66.7524 19.9938 67.0023 20.1108C67.2522 20.2279 67.4756 20.3933 67.6592 20.5971C67.8429 20.8009 67.983 21.039 68.0713 21.2972C68.1596 21.5554 68.1942 21.8285 68.1731 22.1002C68.1966 22.3727 68.1638 22.6472 68.0765 22.9069C67.9893 23.1667 67.8494 23.4063 67.6654 23.6113C67.4814 23.8163 67.2571 23.9824 67.006 24.0996C66.755 24.2168 66.4824 24.2826 66.2047 24.2932ZM87.2608 14.8752H83.3932V25.5002H85.0076V21.4712H87.2608C87.7209 21.5037 88.1829 21.4426 88.618 21.2916C89.053 21.1406 89.4518 20.903 89.7895 20.5935C90.1271 20.2841 90.3965 19.9095 90.5806 19.4931C90.7647 19.0766 90.8598 18.6273 90.8598 18.1732C90.8598 17.719 90.7647 17.2697 90.5806 16.8532C90.3965 16.4368 90.1271 16.0622 89.7895 15.7528C89.4518 15.4434 89.053 15.2057 88.618 15.0547C88.1829 14.9037 87.7209 14.8426 87.2608 14.8752ZM87.2608 19.9752H85.0076V16.3542H87.2954C87.538 16.3542 87.7782 16.4012 88.0024 16.4926C88.2265 16.584 88.4302 16.718 88.6017 16.8869C88.7733 17.0558 88.9094 17.2564 89.0022 17.4771C89.0951 17.6977 89.1429 17.9343 89.1429 18.1732C89.1429 18.412 89.0951 18.6486 89.0022 18.8693C88.9094 19.0899 88.7733 19.2905 88.6017 19.4594C88.4302 19.6283 88.2265 19.7623 88.0024 19.8537C87.7782 19.9451 87.538 19.9922 87.2954 19.9922L87.2608 19.9752ZM97.2234 18.4537C96.6355 18.418 96.0499 18.5527 95.5389 18.8413C95.028 19.1298 94.6142 19.5595 94.3486 20.0772L95.7731 20.6637C95.917 20.4081 96.133 20.1991 96.395 20.0619C96.6569 19.9246 96.9537 19.865 97.2493 19.8902C97.4543 19.8666 97.6619 19.8834 97.8602 19.9397C98.0584 19.996 98.2433 20.0906 98.404 20.218C98.5648 20.3454 98.6981 20.503 98.7963 20.6817C98.8945 20.8604 98.9556 21.0565 98.976 21.2587V21.3607C98.4568 21.092 97.879 20.9519 97.2925 20.9527C95.7558 20.9527 94.1846 21.8027 94.1846 23.3497C94.1998 23.6785 94.2819 24.0009 94.4262 24.2979C94.5704 24.5948 94.7738 24.8602 95.0243 25.0782C95.2747 25.2963 95.5671 25.4625 95.8841 25.5671C96.2011 25.6717 96.5362 25.7126 96.8695 25.6872C97.2746 25.7092 97.6784 25.6248 98.0394 25.4426C98.4005 25.2604 98.7058 24.9869 98.9242 24.6502H98.976V25.5002H100.53V21.4117C100.53 19.5502 99.0968 18.4707 97.258 18.4707L97.2234 18.4537ZM97.0249 24.2762C96.4983 24.2762 95.7644 24.0127 95.7644 23.3752C95.7644 22.5252 96.6796 22.2362 97.4911 22.2362C98.0039 22.2237 98.5107 22.347 98.9587 22.5932C98.9045 23.0548 98.6822 23.4814 98.333 23.794C97.9837 24.1065 97.5313 24.2839 97.0594 24.2932L97.0249 24.2762ZM106.193 18.7002L104.346 23.3072H104.294L102.377 18.7002H100.651L103.526 25.1432L101.885 28.7217H103.569L107.989 18.7002H106.193ZM91.6896 25.5002H93.2954V14.8752H91.6896V25.5002Z"/>
</mask>
<path d="M58.1932 18.4877C57.4658 18.4893 56.7553 18.7034 56.1515 19.1026C55.5476 19.5019 55.0776 20.0685 54.8008 20.7308C54.524 21.3931 54.4529 22.1213 54.5965 22.8234C54.7401 23.5255 55.0919 24.1699 55.6074 24.6751C56.123 25.1803 56.7791 25.5236 57.4928 25.6617C58.2066 25.7998 58.9459 25.7264 59.6172 25.4508C60.2886 25.1751 60.8619 24.7097 61.2645 24.1133C61.6672 23.5169 61.8813 22.8163 61.8796 22.1002C61.8866 21.6224 61.7959 21.1481 61.6129 20.7056C61.43 20.2631 61.1584 19.8613 60.8144 19.5242C60.4705 19.1872 60.0612 18.9217 59.6109 18.7436C59.1605 18.5655 58.6784 18.4785 58.1932 18.4877ZM58.1932 24.2932C57.7474 24.3239 57.3025 24.2218 56.9164 24.0002C56.5302 23.7787 56.2207 23.4479 56.0281 23.0508C55.8354 22.6538 55.7685 22.2089 55.8361 21.7739C55.9037 21.3389 56.1026 20.934 56.407 20.6118C56.7114 20.2897 57.1072 20.0651 57.543 19.9673C57.9787 19.8695 58.4342 19.9031 58.8504 20.0636C59.2665 20.2241 59.6239 20.5042 59.8762 20.8674C60.1286 21.2306 60.2641 21.6601 60.2652 22.1002C60.2791 22.379 60.2361 22.6577 60.1389 22.9199C60.0416 23.1821 59.8921 23.4225 59.699 23.6269C59.5058 23.8313 59.2731 23.9955 59.0145 24.11C58.7559 24.2244 58.4767 24.2867 58.1932 24.2932ZM50.1472 18.4877C49.4198 18.4893 48.7093 18.7034 48.1054 19.1026C47.5016 19.5019 47.0316 20.0685 46.7548 20.7308C46.478 21.3931 46.4069 22.1213 46.5505 22.8234C46.6941 23.5255 47.0459 24.1699 47.5614 24.6751C48.0769 25.1803 48.7331 25.5236 49.4468 25.6617C50.1605 25.7998 50.8998 25.7264 51.5712 25.4508C52.2425 25.1751 52.8158 24.7097 53.2185 24.1133C53.6212 23.5169 53.8352 22.8163 53.8335 22.1002C53.8405 21.6224 53.7499 21.1481 53.5669 20.7056C53.3839 20.2631 53.1124 19.8613 52.7684 19.5242C52.4244 19.1872 52.0151 18.9217 51.5648 18.7436C51.1145 18.5655 50.6324 18.4785 50.1472 18.4877ZM50.1472 24.2932C49.7013 24.3239 49.2564 24.2218 48.8703 24.0002C48.4842 23.7787 48.1747 23.4479 47.982 23.0508C47.7894 22.6538 47.7225 22.2089 47.7901 21.7739C47.8576 21.3389 48.0566 20.934 48.361 20.6118C48.6654 20.2897 49.0612 20.0651 49.4969 19.9673C49.9327 19.8695 50.3882 19.9031 50.8043 20.0636C51.2204 20.2241 51.5779 20.5042 51.8302 20.8674C52.0825 21.2306 52.218 21.6601 52.2191 22.1002C52.233 22.379 52.1901 22.6577 52.0928 22.9199C51.9956 23.1821 51.846 23.4225 51.6529 23.6269C51.4598 23.8313 51.2271 23.9955 50.9685 24.11C50.7099 24.2244 50.4306 24.2867 50.1472 24.2932ZM40.5817 19.6012V21.1312H44.3112C44.2527 21.8518 43.9485 22.5318 43.4479 23.0607C43.0738 23.4359 42.6238 23.7297 42.1271 23.923C41.6304 24.1163 41.0981 24.2047 40.5644 24.1827C39.4654 24.1827 38.4114 23.7528 37.6343 22.9877C36.8571 22.2225 36.4206 21.1847 36.4206 20.1027C36.4206 19.0206 36.8571 17.9828 37.6343 17.2177C38.4114 16.4525 39.4654 16.0227 40.5644 16.0227C41.6181 16.0072 42.6354 16.4012 43.3961 17.1192L44.4925 16.0397C43.978 15.5386 43.367 15.1437 42.6955 14.878C42.024 14.6124 41.3053 14.4814 40.5817 14.4927C39.8142 14.4632 39.0486 14.5867 38.3307 14.8556C37.6129 15.1245 36.9575 15.5333 36.4039 16.0575C35.8504 16.5817 35.41 17.2106 35.1092 17.9064C34.8084 18.6022 34.6533 19.3507 34.6533 20.1069C34.6533 20.8631 34.8084 21.6116 35.1092 22.3074C35.41 23.0032 35.8504 23.6321 36.4039 24.1563C36.9575 24.6805 37.6129 25.0893 38.3307 25.3582C39.0486 25.6271 39.8142 25.7506 40.5817 25.7212C41.3202 25.7502 42.0566 25.6251 42.7425 25.3541C43.4284 25.0831 44.0483 24.6723 44.5616 24.1487C45.4681 23.1681 45.9512 21.8785 45.9083 20.5532C45.9114 20.2342 45.8854 19.9156 45.8306 19.6012H40.5817ZM79.6983 20.7912C79.4731 20.139 79.0521 19.5695 78.4909 19.1582C77.9298 18.7468 77.2549 18.513 76.5558 18.4877C76.0836 18.4867 75.6162 18.5812 75.1825 18.7652C74.7488 18.9492 74.3581 19.2188 74.0344 19.5574C73.7108 19.896 73.4611 20.2963 73.3008 20.7337C73.1405 21.171 73.0731 21.6361 73.1026 22.1002C73.0952 22.8761 73.343 23.6335 73.8089 24.2594C74.2748 24.8852 74.9338 25.3459 75.6875 25.5725C76.4413 25.7992 77.2493 25.7797 77.9908 25.5169C78.7324 25.2541 79.3677 24.7622 79.8019 24.1147L78.5501 23.2647C78.3634 23.5709 78.0988 23.8238 77.7823 23.9982C77.4658 24.1727 77.1084 24.2626 76.7457 24.2592C76.3716 24.2744 76.0015 24.1778 75.6841 23.9821C75.3667 23.7864 75.1168 23.5007 74.9673 23.1627L79.8796 21.1652L79.6983 20.7912ZM74.6911 21.9982C74.6736 21.7341 74.7097 21.4693 74.7975 21.2192C74.8852 20.9691 75.0228 20.7388 75.2021 20.5417C75.3813 20.3446 75.5988 20.1847 75.8416 20.0714C76.0844 19.958 76.3478 19.8935 76.6162 19.8817C76.8944 19.8649 77.1714 19.9294 77.4125 20.067C77.6536 20.2046 77.8481 20.4092 77.9716 20.6552L74.6911 21.9982ZM70.7026 25.5002H72.317V14.8752H70.7026V25.5002ZM68.0608 19.2952H68.0004C67.7593 19.0247 67.4616 18.8088 67.1278 18.6621C66.7941 18.5154 66.4321 18.4414 66.0666 18.4452C65.1232 18.4902 64.2335 18.8909 63.582 19.5642C62.9305 20.2376 62.567 21.1319 62.567 22.0619C62.567 22.9919 62.9305 23.8862 63.582 24.5596C64.2335 25.2329 65.1232 25.6336 66.0666 25.6787C66.4326 25.6859 66.7957 25.6134 67.13 25.4665C67.4643 25.3196 67.7615 25.1018 68.0004 24.8287H68.0608V25.3472C68.0608 26.7327 67.3098 27.4722 66.1011 27.4722C65.6974 27.4634 65.3054 27.3368 64.9749 27.1082C64.6444 26.8797 64.3904 26.5596 64.245 26.1887L62.8465 26.7582C63.105 27.3976 63.5546 27.9447 64.1357 28.3271C64.7169 28.7096 65.4022 28.9094 66.1011 28.9002C67.9918 28.9002 69.5544 27.8037 69.5544 25.1347V18.7002H68.0608V19.2952ZM66.2047 24.2932C65.6391 24.2584 65.1082 24.0127 64.7201 23.6061C64.332 23.1994 64.116 22.6624 64.116 22.1044C64.116 21.5464 64.332 21.0094 64.7201 20.6027C65.1082 20.1961 65.6391 19.9504 66.2047 19.9157C66.4812 19.9274 66.7524 19.9938 67.0023 20.1108C67.2522 20.2279 67.4756 20.3933 67.6592 20.5971C67.8429 20.8009 67.983 21.039 68.0713 21.2972C68.1596 21.5554 68.1942 21.8285 68.1731 22.1002C68.1966 22.3727 68.1638 22.6472 68.0765 22.9069C67.9893 23.1667 67.8494 23.4063 67.6654 23.6113C67.4814 23.8163 67.2571 23.9824 67.006 24.0996C66.755 24.2168 66.4824 24.2826 66.2047 24.2932ZM87.2608 14.8752H83.3932V25.5002H85.0076V21.4712H87.2608C87.7209 21.5037 88.1829 21.4426 88.618 21.2916C89.053 21.1406 89.4518 20.903 89.7895 20.5935C90.1271 20.2841 90.3965 19.9095 90.5806 19.4931C90.7647 19.0766 90.8598 18.6273 90.8598 18.1732C90.8598 17.719 90.7647 17.2697 90.5806 16.8532C90.3965 16.4368 90.1271 16.0622 89.7895 15.7528C89.4518 15.4434 89.053 15.2057 88.618 15.0547C88.1829 14.9037 87.7209 14.8426 87.2608 14.8752ZM87.2608 19.9752H85.0076V16.3542H87.2954C87.538 16.3542 87.7782 16.4012 88.0024 16.4926C88.2265 16.584 88.4302 16.718 88.6017 16.8869C88.7733 17.0558 88.9094 17.2564 89.0022 17.4771C89.0951 17.6977 89.1429 17.9343 89.1429 18.1732C89.1429 18.412 89.0951 18.6486 89.0022 18.8693C88.9094 19.0899 88.7733 19.2905 88.6017 19.4594C88.4302 19.6283 88.2265 19.7623 88.0024 19.8537C87.7782 19.9451 87.538 19.9922 87.2954 19.9922L87.2608 19.9752ZM97.2234 18.4537C96.6355 18.418 96.0499 18.5527 95.5389 18.8413C95.028 19.1298 94.6142 19.5595 94.3486 20.0772L95.7731 20.6637C95.917 20.4081 96.133 20.1991 96.395 20.0619C96.6569 19.9246 96.9537 19.865 97.2493 19.8902C97.4543 19.8666 97.6619 19.8834 97.8602 19.9397C98.0584 19.996 98.2433 20.0906 98.404 20.218C98.5648 20.3454 98.6981 20.503 98.7963 20.6817C98.8945 20.8604 98.9556 21.0565 98.976 21.2587V21.3607C98.4568 21.092 97.879 20.9519 97.2925 20.9527C95.7558 20.9527 94.1846 21.8027 94.1846 23.3497C94.1998 23.6785 94.2819 24.0009 94.4262 24.2979C94.5704 24.5948 94.7738 24.8602 95.0243 25.0782C95.2747 25.2963 95.5671 25.4625 95.8841 25.5671C96.2011 25.6717 96.5362 25.7126 96.8695 25.6872C97.2746 25.7092 97.6784 25.6248 98.0394 25.4426C98.4005 25.2604 98.7058 24.9869 98.9242 24.6502H98.976V25.5002H100.53V21.4117C100.53 19.5502 99.0968 18.4707 97.258 18.4707L97.2234 18.4537ZM97.0249 24.2762C96.4983 24.2762 95.7644 24.0127 95.7644 23.3752C95.7644 22.5252 96.6796 22.2362 97.4911 22.2362C98.0039 22.2237 98.5107 22.347 98.9587 22.5932C98.9045 23.0548 98.6822 23.4814 98.333 23.794C97.9837 24.1065 97.5313 24.2839 97.0594 24.2932L97.0249 24.2762ZM106.193 18.7002L104.346 23.3072H104.294L102.377 18.7002H100.651L103.526 25.1432L101.885 28.7217H103.569L107.989 18.7002H106.193ZM91.6896 25.5002H93.2954V14.8752H91.6896V25.5002Z" fill="white" stroke="white" stroke-width="2" mask="url(#path-2-inside-1_4701_9069)"/>
<path d="M8.38017 6.40948C8.09569 6.74065 7.95053 7.16637 7.97442 7.59948V26.4015C7.94504 26.8353 8.09087 27.263 8.38017 27.5915L8.4406 27.6595L19.137 17.128V16.873L8.4406 6.34998L8.38017 6.40948Z" fill="url(#paint0_linear_4701_9069)"/>
<path d="M22.6763 20.6384L19.1367 17.1279V16.8729L22.6763 13.3624L22.754 13.4134L26.9928 15.7764C28.2015 16.4479 28.2015 17.5529 26.9928 18.2329L22.7713 20.5959L22.6763 20.6384Z" fill="url(#paint1_linear_4701_9069)"/>
<path d="M22.7799 20.5874L19.1367 17.0004L8.37988 27.5914C8.62383 27.8052 8.93608 27.9282 9.26249 27.939C9.5889 27.9499 9.90887 27.8479 10.1669 27.6509L22.7799 20.5874Z" fill="url(#paint2_linear_4701_9069)"/>
<path d="M22.7799 13.4134L10.1669 6.35836C9.91055 6.15854 9.59082 6.05411 9.26397 6.06344C8.93712 6.07277 8.62408 6.19526 8.37988 6.40936L19.1367 17.0004L22.7799 13.4134Z" fill="url(#paint3_linear_4701_9069)"/>
<path opacity="0.2" d="M22.6763 20.5106L10.1669 27.5231C9.91825 27.7079 9.61518 27.8079 9.30362 27.8079C8.99207 27.8079 8.689 27.7079 8.44031 27.5231L8.37988 27.5826L8.44031 27.6506C8.689 27.8354 8.99207 27.9354 9.30362 27.9354C9.61518 27.9354 9.91825 27.8354 10.1669 27.6506L22.7799 20.5871L22.6763 20.5106Z" fill="black"/>
<path opacity="0.12" d="M8.37993 27.4725C8.10263 27.1354 7.96673 26.7066 8.00007 26.274V26.4015C7.9707 26.8354 8.11652 27.2631 8.40582 27.5915L8.46626 27.532L8.37993 27.4725Z" fill="black"/>
<path opacity="0.12" d="M26.9923 18.1054L22.6758 20.5109L22.7535 20.5874L26.9923 18.2244C27.2425 18.1202 27.4596 17.9515 27.6206 17.7361C27.7817 17.5207 27.8808 17.2665 27.9074 17.0004C27.8535 17.2422 27.7425 17.4683 27.5836 17.6602C27.4246 17.8521 27.2221 18.0046 26.9923 18.1054Z" fill="black"/>
<path opacity="0.25" d="M10.1674 6.47725L26.9933 15.8953C27.2231 15.996 27.4256 16.1485 27.5846 16.3404C27.7435 16.5324 27.8545 16.7584 27.9084 17.0002C27.8818 16.7341 27.7827 16.4799 27.6216 16.2645C27.4606 16.0491 27.2435 15.8804 26.9933 15.7762L10.1674 6.35825C8.96742 5.67825 7.97461 6.23925 7.97461 7.59925V7.72675C8.00051 6.36675 8.96742 5.80575 10.1674 6.47725Z" fill="white"/>
<path d="M35.7201 12.1298H35.0898V10.4298H35.6251C35.8659 10.1724 36.047 9.86651 36.1558 9.53334C36.2647 9.20017 36.2986 8.84769 36.2553 8.50032V5.95032H39.7085V10.4213H40.287V12.1213H39.6481V11.0503H35.7201V12.1298ZM36.9201 8.50032C36.9586 9.18311 36.7871 9.86147 36.428 10.4468H39.0179V6.57932H36.9201V8.50032Z" fill="white" stroke="white" stroke-width="0.2" stroke-miterlimit="10"/>
<path d="M45.4755 10.3873C45.2269 10.6327 44.9316 10.8275 44.6064 10.9603C44.2812 11.0932 43.9326 11.1616 43.5806 11.1616C43.2285 11.1616 42.8799 11.0932 42.5547 10.9603C42.2296 10.8275 41.9342 10.6327 41.6856 10.3873C41.1917 9.87942 40.916 9.20343 40.916 8.50029C40.916 7.79715 41.1917 7.12116 41.6856 6.61329C41.9342 6.36785 42.2296 6.17312 42.5547 6.04025C42.8799 5.90738 43.2285 5.83899 43.5806 5.83899C43.9326 5.83899 44.2812 5.90738 44.6064 6.04025C44.9316 6.17312 45.2269 6.36785 45.4755 6.61329C45.7249 6.86149 45.9214 7.15629 46.0533 7.48036C46.1853 7.80442 46.2501 8.1512 46.2439 8.50029C46.2541 8.84989 46.1911 9.19781 46.059 9.52244C45.9268 9.84707 45.7282 10.1414 45.4755 10.3873ZM42.1691 9.96229C42.351 10.1483 42.5697 10.2956 42.8118 10.395C43.0538 10.4944 43.314 10.5439 43.5763 10.5403C43.8387 10.5454 44.0994 10.4967 44.3417 10.3972C44.5839 10.2976 44.8025 10.1495 44.9834 9.96229C45.356 9.56375 45.5627 9.04191 45.5627 8.50029C45.5627 7.95867 45.356 7.43683 44.9834 7.03829C44.8025 6.85104 44.5839 6.70294 44.3417 6.60343C44.0994 6.50391 43.8387 6.45517 43.5763 6.46029C43.314 6.45671 43.0538 6.50616 42.8118 6.60558C42.5697 6.705 42.351 6.85228 42.1691 7.03829C41.802 7.4395 41.5989 7.96033 41.5989 8.50029C41.5989 9.04025 41.802 9.56108 42.1691 9.96229Z" fill="white" stroke="white" stroke-width="0.2" stroke-miterlimit="10"/>
<path d="M49.5937 11.1608C49.2444 11.1662 48.8976 11.102 48.5742 10.9719C48.2508 10.8419 47.9574 10.6488 47.7117 10.4043C47.2136 9.89174 46.9355 9.2097 46.9355 8.5003C46.9355 7.79089 47.2136 7.10885 47.7117 6.5963C47.9614 6.34754 48.2604 6.15201 48.5901 6.02187C48.9198 5.89172 49.2732 5.82975 49.6283 5.8398C49.9897 5.82973 50.3487 5.90107 50.6778 6.04838C51.007 6.19569 51.2976 6.41507 51.5275 6.6898L51.07 7.1318C50.9004 6.9171 50.6809 6.74561 50.4301 6.63172C50.1792 6.51784 49.9042 6.46488 49.6283 6.4773C49.3625 6.47062 49.0982 6.51772 48.8517 6.61568C48.6052 6.71364 48.3817 6.86038 48.1952 7.0468C47.8233 7.44903 47.6172 7.97338 47.6172 8.5173C47.6172 9.06121 47.8233 9.58557 48.1952 9.9878C48.3817 10.1742 48.6052 10.321 48.8517 10.4189C49.0982 10.5169 49.3625 10.564 49.6283 10.5573C49.9249 10.549 50.2161 10.477 50.4816 10.3463C50.747 10.2157 50.9802 10.0295 51.165 9.8008L51.6311 10.2513C51.3946 10.5303 51.1003 10.7564 50.7678 10.9143C50.4006 11.0832 49.999 11.1675 49.5937 11.1608Z" fill="white" stroke="white" stroke-width="0.2" stroke-miterlimit="10"/>
<path d="M54.3426 11.0503H53.6779V6.57932H52.2275V5.95032H55.7844V6.57932H54.3426V11.0503Z" fill="white" stroke="white" stroke-width="0.2" stroke-miterlimit="10"/>
<path d="M60.3594 5.95032L58.3996 10.2513C58.3521 10.4238 58.2671 10.584 58.1504 10.7208C58.0337 10.8577 57.8882 10.968 57.724 11.044C57.5598 11.12 57.3807 11.1599 57.1992 11.161C57.0177 11.1621 56.8382 11.1243 56.673 11.0503L56.8457 10.4468C56.9513 10.5053 57.0699 10.5374 57.191 10.5403C57.3188 10.5466 57.4454 10.514 57.5536 10.4468C57.6585 10.3609 57.7388 10.2496 57.7867 10.1238L57.9766 9.71582L56.25 5.95032H57.0356L58.3133 8.87432L59.5737 5.95032H60.3594Z" fill="white" stroke="white" stroke-width="0.2" stroke-miterlimit="10"/>
<path d="M61.1113 11.0503V5.95032H64.8581V11.0503H64.1933V6.57932H61.7761V11.0503H61.1113Z" fill="white" stroke="white" stroke-width="0.2" stroke-miterlimit="10"/>
<path d="M66.04 11.0503V5.95032H66.7048V8.13482H69.2947V5.95032H69.9681V11.0503H69.2947V8.74682H66.7048V11.0503H66.04Z" fill="white" stroke="white" stroke-width="0.2" stroke-miterlimit="10"/>
<path d="M75.3904 10.3873C75.1411 10.633 74.845 10.8279 74.5191 10.9609C74.1932 11.0939 73.8439 11.1623 73.4911 11.1623C73.1384 11.1623 72.7891 11.0939 72.4632 10.9609C72.1373 10.8279 71.8412 10.633 71.5919 10.3873C71.098 9.87942 70.8223 9.20343 70.8223 8.50029C70.8223 7.79715 71.098 7.12116 71.5919 6.61329C71.8405 6.36785 72.1358 6.17312 72.461 6.04025C72.7862 5.90738 73.1348 5.83899 73.4868 5.83899C73.8389 5.83899 74.1875 5.90738 74.5127 6.04025C74.8378 6.17312 75.1332 6.36785 75.3818 6.61329C75.8718 7.12313 76.1448 7.79838 76.1448 8.50029C76.1448 9.2022 75.8718 9.87745 75.3818 10.3873H75.3904ZM72.0839 9.96229C72.2649 10.1495 72.4835 10.2976 72.7257 10.3972C72.968 10.4967 73.2287 10.5454 73.4911 10.5403C73.7534 10.5439 74.0136 10.4944 74.2556 10.395C74.4977 10.2956 74.7164 10.1483 74.8983 9.96229C75.2654 9.56108 75.4685 9.04025 75.4685 8.50029C75.4685 7.96033 75.2654 7.4395 74.8983 7.03829C74.7164 6.85228 74.4977 6.705 74.2556 6.60558C74.0136 6.50616 73.7534 6.45671 73.4911 6.46029C73.2287 6.45517 72.968 6.50391 72.7257 6.60343C72.4835 6.70294 72.2649 6.85104 72.0839 7.03829C71.7114 7.43683 71.5047 7.95867 71.5047 8.50029C71.5047 9.04191 71.7114 9.56375 72.0839 9.96229Z" fill="white" stroke="white" stroke-width="0.2" stroke-miterlimit="10"/>
<path d="M78.8691 11.0504V5.95039H80.7425C81.1309 5.94656 81.5067 6.08605 81.7958 6.34139C81.94 6.46466 82.055 6.61763 82.1326 6.78948C82.2102 6.96133 82.2484 7.14787 82.2447 7.33589C82.2468 7.56486 82.1807 7.78943 82.0548 7.98189C81.9273 8.1644 81.751 8.30856 81.5454 8.39839C81.7946 8.48231 82.0136 8.6359 82.1756 8.84039C82.3343 9.0487 82.4192 9.30251 82.4173 9.56289C82.4217 9.75885 82.3823 9.95335 82.3017 10.1326C82.2211 10.3118 82.1014 10.4714 81.9512 10.5999C81.6515 10.8744 81.2554 11.0237 80.8461 11.0164L78.8691 11.0504ZM79.5339 8.13489H80.7425C80.8556 8.14134 80.9687 8.12251 81.0734 8.07982C81.178 8.03713 81.2715 7.97169 81.3468 7.8884C81.4932 7.74715 81.577 7.55468 81.5799 7.35289C81.5881 7.15048 81.517 6.95271 81.3814 6.80039C81.3088 6.72113 81.2193 6.65867 81.1193 6.61752C81.0193 6.57637 80.9112 6.55754 80.803 6.56239H79.5598L79.5339 8.13489ZM79.5339 10.4214H80.8807C80.9976 10.4253 81.1139 10.4036 81.2214 10.3581C81.3288 10.3125 81.4247 10.2442 81.5022 10.1579C81.6513 10.0011 81.7346 9.79463 81.7353 9.57989C81.7301 9.36695 81.6438 9.1637 81.4936 9.01039C81.4104 8.92436 81.3098 8.85645 81.1982 8.81107C81.0867 8.76568 80.9668 8.74382 80.8461 8.7469H79.5339V10.4214Z" fill="white" stroke="white" stroke-width="0.2" stroke-miterlimit="10"/>
</g>
<defs>
<linearGradient id="paint0_linear_4701_9069" x1="18.1874" y1="7.40398" x2="3.92609" y2="21.8886" gradientUnits="userSpaceOnUse">
<stop stop-color="#00A0FF"/>
<stop offset="0.01" stop-color="#00A1FF"/>
<stop offset="0.26" stop-color="#00BEFF"/>
<stop offset="0.51" stop-color="#00D2FF"/>
<stop offset="0.76" stop-color="#00DFFF"/>
<stop offset="1" stop-color="#00E3FF"/>
</linearGradient>
<linearGradient id="paint1_linear_4701_9069" x1="28.5727" y1="17.0004" x2="7.68924" y2="17.0004" gradientUnits="userSpaceOnUse">
<stop stop-color="#FFE000"/>
<stop offset="0.41" stop-color="#FFBD00"/>
<stop offset="0.78" stop-color="#FFA500"/>
<stop offset="1" stop-color="#FF9C00"/>
</linearGradient>
<linearGradient id="paint2_linear_4701_9069" x1="20.8029" y1="18.9554" x2="1.45911" y2="38.5934" gradientUnits="userSpaceOnUse">
<stop stop-color="#FF3A44"/>
<stop offset="1" stop-color="#C31162"/>
</linearGradient>
<linearGradient id="paint3_linear_4701_9069" x1="5.66909" y1="0.153365" x2="14.304" y2="8.92353" gradientUnits="userSpaceOnUse">
<stop stop-color="#32A071"/>
<stop offset="0.07" stop-color="#2DA771"/>
<stop offset="0.48" stop-color="#15CF74"/>
<stop offset="0.8" stop-color="#06E775"/>
<stop offset="1" stop-color="#00F076"/>
</linearGradient>
<clipPath id="clip0_4701_9069">
<rect width="100" height="26" fill="white" transform="translate(8 4.00012)"/>
</clipPath>
</defs>
</svg>
