<svg width="24" height="24" viewBox="0 0 24 24" fill="none" xmlns="http://www.w3.org/2000/svg">
    <path d="M10.1771 18.3H10.1663C7.4792 16.1002 4.73115 13.7829 3.51428 11.0877L3.51434 11.0877L3.50992 11.0782C3.11839 10.2372 2.9102 9.3228 2.9 8.39446C2.89926 7.79759 3.01754 7.20656 3.24792 6.65592C3.47877 6.10414 3.81755 5.60404 4.24435 5.185C4.67115 4.76596 5.17738 4.43641 5.7333 4.21572C6.28922 3.99503 6.88364 3.88763 7.48164 3.89984L7.49012 3.90001L7.49859 3.90002C8.50622 3.90161 9.49216 4.1927 10.3391 4.73862C10.7046 4.97598 11.0353 5.26303 11.3217 5.5915L11.9961 6.365L12.675 5.59537C12.9654 5.26614 13.2974 4.97779 13.6636 4.73755C14.5097 4.19221 15.4947 3.90149 16.5013 3.90002L16.5099 3.90001L16.5184 3.89984C17.1164 3.88763 17.7108 3.99503 18.2667 4.21572C18.8226 4.43641 19.3289 4.76596 19.7557 5.185C20.1825 5.60404 20.5213 6.10414 20.7521 6.65592C20.9825 7.20668 21.1008 7.79785 21.1 8.39484C21.0906 9.32407 20.8827 10.2406 20.4902 11.0829L20.4902 11.0829L20.4857 11.0927C19.2319 13.8697 16.3532 16.2449 13.5904 18.5L13.5838 18.5052L13.5838 18.5052L13.5775 18.5103C13.0337 18.9534 12.5025 19.387 12.0037 19.8123C11.5549 19.4308 11.0796 19.0407 10.5938 18.6421C10.538 18.5963 10.4821 18.5504 10.4261 18.5044L10.1771 18.3Z" stroke="#7C909C" stroke-width="1.8"/>
</svg>
