<svg width="28" height="28" viewBox="0 0 28 28" fill="none" xmlns="http://www.w3.org/2000/svg">
<circle cx="14" cy="14" r="14" fill="url(#paint0_linear_4232_25552)"/>
<path d="M21.4829 11.458L16.6864 10.7508L14.5422 6.34113C14.4837 6.2204 14.3873 6.12266 14.2683 6.06325C13.9698 5.91377 13.6071 6.03834 13.4579 6.34113L11.3137 10.7508L6.51721 11.458C6.38497 11.4772 6.26407 11.5404 6.1715 11.6362C6.05959 11.7529 5.99793 11.9099 6.00005 12.0727C6.00218 12.2355 6.06792 12.3907 6.18284 12.5044L9.65316 15.9367L8.83328 20.7833C8.81405 20.8961 8.82635 21.012 8.86878 21.118C8.91121 21.224 8.98207 21.3159 9.07333 21.3831C9.16459 21.4504 9.27259 21.4903 9.38509 21.4984C9.4976 21.5066 9.6101 21.4826 9.70983 21.4292L14 19.1409L18.2902 21.4292C18.4074 21.4924 18.5434 21.5135 18.6737 21.4905C19.0024 21.433 19.2235 21.1168 19.1668 20.7833L18.3469 15.9367L21.8172 12.5044C21.9117 12.4105 21.974 12.2878 21.9929 12.1537C22.0439 11.8183 21.8135 11.5078 21.4829 11.458Z" fill="white"/>
<defs>
<linearGradient id="paint0_linear_4232_25552" x1="14" y1="0" x2="14" y2="28" gradientUnits="userSpaceOnUse">
<stop stop-color="#712FFC"/>
<stop offset="1" stop-color="#9C1EFF"/>
</linearGradient>
</defs>
</svg>
