<svg width="28" height="28" viewBox="0 0 28 28" fill="none" xmlns="http://www.w3.org/2000/svg">
<circle cx="14" cy="14" r="14" fill="url(#paint0_linear_4232_25530)"/>
<path d="M9.52941 13.844C9.52941 14.0415 9.27361 14.1195 9.16343 13.9556L7.23591 11.0884C7.19876 11.0331 7.13653 11 7.06993 11H6.2C6.08954 11 6 11.0895 6 11.2V16.8C6 16.9105 6.08954 17 6.2 17H6.97647C7.08693 17 7.17647 16.9105 7.17647 16.8V14.1453C7.17647 13.9488 7.43027 13.8701 7.54142 14.0322L9.51689 16.9131C9.55418 16.9675 9.61589 17 9.68183 17H10.5059C10.6163 17 10.7059 16.9105 10.7059 16.8V11.2C10.7059 11.0895 10.6163 11 10.5059 11H9.72941C9.61895 11 9.52941 11.0895 9.52941 11.2V13.844ZM11.6471 16.8C11.6471 16.9105 11.7366 17 11.8471 17H15.2118C15.3222 17 15.4118 16.9105 15.4118 16.8V15.95C15.4118 15.8395 15.3222 15.75 15.2118 15.75H13.2588C13.1484 15.75 13.0588 15.6605 13.0588 15.55V14.84C13.0588 14.7295 13.1484 14.64 13.2588 14.64H15.2118C15.3222 14.64 15.4118 14.5505 15.4118 14.44V13.58C15.4118 13.4695 15.3222 13.38 15.2118 13.38H13.2588C13.1484 13.38 13.0588 13.2905 13.0588 13.18V12.46C13.0588 12.3495 13.1484 12.26 13.2588 12.26H15.2118C15.3222 12.26 15.4118 12.1705 15.4118 12.06V11.2C15.4118 11.0895 15.3222 11 15.2118 11H11.8471C11.7366 11 11.6471 11.0895 11.6471 11.2V16.8ZM21.0235 11C20.9131 11 20.8235 11.0895 20.8235 11.2V15.3C20.8235 15.4105 20.734 15.5 20.6235 15.5H19.9694C19.859 15.5 19.7694 15.4105 19.7694 15.3V12.19C19.7694 12.0795 19.6799 11.99 19.5694 11.99H18.7929C18.6825 11.99 18.5929 12.0795 18.5929 12.19V15.31C18.5929 15.4205 18.5034 15.51 18.3929 15.51H17.7294C17.619 15.51 17.5294 15.4205 17.5294 15.31V11.2C17.5294 11.0895 17.4399 11 17.3294 11H16.5529C16.4425 11 16.3529 11.0895 16.3529 11.2V16C16.3529 16.55 16.7765 17 17.2941 17H21.0588C21.5765 17 22 16.55 22 16V11.2C22 11.0895 21.9105 11 21.8 11H21.0235Z" fill="white"/>
<defs>
<linearGradient id="paint0_linear_4232_25530" x1="14" y1="0" x2="14" y2="28" gradientUnits="userSpaceOnUse">
<stop stop-color="#44C568"/>
<stop offset="1" stop-color="#8FDB53"/>
</linearGradient>
</defs>
</svg>
