<svg width="28" height="28" viewBox="0 0 28 28" fill="none" xmlns="http://www.w3.org/2000/svg">
<circle cx="14" cy="14" r="14" fill="url(#paint0_linear_4232_25519)"/>
<path d="M6.8586 21.5941C6.78281 21.6882 6.78931 21.8118 6.8716 21.9004C6.93007 21.9668 7.02102 22 7.11198 22C7.14879 22 7.18561 21.9945 7.22026 21.9834C7.27223 21.9668 12.3159 20.2379 10.3279 13.6119C8.49796 7.50819 10.5011 6.50074 10.5141 6.49336C10.6592 6.43616 10.7242 6.29223 10.6679 6.16676C10.6401 6.10608 10.5868 6.05639 10.5183 6.02739C10.4498 5.99839 10.3711 5.99216 10.2976 6.00993C10.2066 6.03207 8.06267 6.58192 6.83045 8.52302C5.79747 10.1541 5.72817 12.2428 6.62255 14.7356C8.37019 19.5902 6.87376 21.5756 6.8586 21.5941ZM12.4632 21.5941C12.3874 21.6882 12.3939 21.8118 12.4761 21.9004C12.5346 21.9668 12.6234 22 12.7165 22C12.7533 22 12.7902 21.9945 12.827 21.9834C12.8789 21.9668 17.9204 20.2379 15.9324 13.6119C14.1003 7.50819 16.1057 6.50074 16.1187 6.4952C16.2638 6.43616 16.3287 6.29223 16.2724 6.16676C16.2446 6.10608 16.1913 6.05639 16.1228 6.02739C16.0544 5.99839 15.9757 5.99216 15.9021 6.00993C15.8112 6.03207 13.6672 6.58192 12.435 8.52302C11.402 10.1541 11.3327 12.2428 12.2271 14.7356C13.9747 19.5902 12.4783 21.5756 12.4632 21.5941ZM18.0655 21.5941C17.9897 21.6882 17.9962 21.8118 18.0785 21.9004C18.137 21.9668 18.2258 22 18.3189 22C18.3557 22 18.3925 21.9945 18.4294 21.9834C18.4813 21.9668 23.5228 20.2379 21.537 13.6119C19.7027 7.51003 21.7081 6.50258 21.7211 6.4952C21.864 6.438 21.9311 6.29408 21.8748 6.16861C21.8185 6.04314 21.6582 5.97487 21.5045 6.01177C21.4135 6.03391 19.2696 6.58377 18.0374 8.52487C17.0044 10.156 16.9351 12.2447 17.8295 14.7375C19.5706 19.5718 18.0915 21.5627 18.0655 21.5941Z" fill="#F52341"/>
<defs>
<linearGradient id="paint0_linear_4232_25519" x1="14" y1="0" x2="14" y2="28" gradientUnits="userSpaceOnUse">
<stop stop-color="#C8D2D9"/>
<stop offset="1" stop-color="#C5E5F9"/>
</linearGradient>
</defs>
</svg>
