<svg width="28" height="28" viewBox="0 0 28 28" fill="none" xmlns="http://www.w3.org/2000/svg">
<circle cx="14" cy="14" r="14" fill="url(#paint0_linear_4231_25416)"/>
<path d="M21.7703 7.68243L20.2166 7.21341C20.1275 7.18648 20.0309 7.19968 19.9519 7.24907C19.8729 7.29846 19.819 7.37942 19.804 7.47133C19.5681 8.92087 19.1337 10.0248 18.8483 10.6372C17.8592 10.2878 16.7717 10.4677 15.8672 11.6104C15.4598 12.1251 13.8201 16.2061 11.8369 17.0799C9.67469 18.0327 7.5694 17.5665 6.43114 17.1639C6.29851 17.117 6.1508 17.1612 6.06579 17.2733C5.98078 17.3854 5.97783 17.5397 6.05882 17.6547C6.76038 18.6505 8.29165 20.2138 11.1933 20.7012C15.1202 21.3607 18.7996 18.6021 20.3327 16.0759C21.1906 14.6623 21.5313 13.0172 20.5057 11.7989C21.3215 10.541 21.8164 8.76852 21.9903 8.06989C22.032 7.90258 21.9354 7.73227 21.7703 7.68243Z" fill="white"/>
<defs>
<linearGradient id="paint0_linear_4231_25416" x1="14" y1="0" x2="14" y2="28" gradientUnits="userSpaceOnUse">
<stop stop-color="#F52341"/>
<stop offset="1" stop-color="#F5236F"/>
</linearGradient>
</defs>
</svg>
