<svg width="24" height="24" viewBox="0 0 24 24" fill="none" xmlns="http://www.w3.org/2000/svg">
<path fill-rule="evenodd" clip-rule="evenodd" d="M11.474 21.85L12 21L11.474 21.85ZM12 21L12.525 21.85C12.203 22.05 11.795 22.05 11.474 21.85L11.471 21.849L11.465 21.845L11.445 21.832C11.3397 21.7658 11.2361 21.6971 11.134 21.626C10.8477 21.429 10.5672 21.2235 10.293 21.01C9.38542 20.305 8.53876 19.525 7.762 18.678C5.933 16.677 4 13.695 4 10C4 5.461 7.592 2 12 2C16.408 2 20 5.461 20 10C20 13.695 18.067 16.677 16.238 18.678C15.4616 19.5249 14.6152 20.305 13.708 21.01C13.3562 21.2829 12.9943 21.5424 12.623 21.788C12.6004 21.8028 12.5777 21.8175 12.555 21.832L12.535 21.845L12.529 21.849H12.527C12.527 21.85 12.525 21.851 12 21ZM9 10C9 9.20435 9.31607 8.44129 9.87868 7.87868C10.4413 7.31607 11.2044 7 12 7C12.7957 7 13.5587 7.31607 14.1213 7.87868C14.6839 8.44129 15 9.20435 15 10C15 10.7957 14.6839 11.5587 14.1213 12.1213C13.5587 12.6839 12.7957 13 12 13C11.2044 13 10.4413 12.6839 9.87868 12.1213C9.31607 11.5587 9 10.7957 9 10Z" fill="#F52341"/>
</svg>
