<svg width="164" height="148" viewBox="0 0 164 148" fill="none" xmlns="http://www.w3.org/2000/svg">
<path fill-rule="evenodd" clip-rule="evenodd" d="M0 124.63H17.036V119.247H6.45782V114.403H14.4889V109.019H6.45782V104.351H16.5416V98.9672H0.0599347V124.63H0ZM9.99388 96.9538H14.6387V91.9277H9.99388V96.9538ZM2.29245 96.9538H6.93728V91.9277H2.30743V96.9538H2.29245ZM17.7028 113.6C17.7028 120.385 21.1265 125.082 27.9814 125.082C33.9747 125.082 37.788 121.209 37.788 116.11C37.788 111.157 34.6939 107.641 29.6071 107.641C27.6017 107.594 25.6385 108.205 24.0333 109.377H23.9583C24.0707 106.721 26.6479 105.729 29.0826 104.927L36.2372 102.739L34.4242 97.7489L28.281 99.7404C20.8718 102.221 17.7028 106.058 17.7028 113.6ZM24.0333 116.197C24.0333 113.79 25.7264 112.28 27.7192 112.28C29.7119 112.28 31.4051 113.79 31.4051 116.197C31.4372 116.688 31.3657 117.18 31.195 117.642C31.0243 118.105 30.758 118.529 30.4126 118.887C30.0672 119.245 29.65 119.531 29.1867 119.727C28.7235 119.922 28.224 120.023 27.7192 120.023C27.2143 120.023 26.7149 119.922 26.2516 119.727C25.7883 119.531 25.3711 119.245 25.0257 118.887C24.6803 118.529 24.414 118.105 24.2433 117.642C24.0726 117.18 24.0011 116.688 24.0333 116.197ZM39.556 124.63H45.7591L51.0032 116.518C51.3843 115.928 51.7296 115.317 52.0371 114.687H52.1045C52.0371 115.417 52.0371 116.146 52.0371 116.555V124.63H58.0304V106.145H51.8348L46.5907 114.293C46.2031 114.879 45.8601 115.491 45.5643 116.124H45.4894C45.4894 115.658 45.5643 114.943 45.5643 114.293V106.145H39.571V124.63H39.556ZM67.7921 119.713C69.0158 117.233 69.5971 114.498 69.4852 111.748V111.062H72.7665V119.713H67.7921ZM59.1617 119.713V128.919H65.0651V124.63H76.1977V128.919H81.8764V119.713H79.1419V106.145H63.4844V110.595C63.4844 114.33 62.7876 117.634 61.529 119.713H59.1617ZM81.9438 115.439C81.9438 121.223 86.7385 125.06 92.7093 125.06C98.6802 125.06 103.475 121.223 103.475 115.439C103.475 109.654 98.6802 105.715 92.6719 105.715C86.6636 105.715 81.9438 109.625 81.9438 115.439ZM88.4016 115.439C88.4016 112.645 90.3869 110.879 92.7093 110.879C95.0318 110.879 97.0245 112.645 97.0245 115.439C97.0673 116.016 96.9876 116.595 96.7903 117.14C96.593 117.686 96.2824 118.186 95.8779 118.609C95.4734 119.032 94.9836 119.37 94.439 119.601C93.8945 119.832 93.307 119.951 92.7131 119.951C92.1192 119.951 91.5316 119.832 90.9871 119.601C90.4426 119.37 89.9528 119.032 89.5483 118.609C89.1437 118.186 88.8331 117.686 88.6358 117.14C88.4386 116.595 88.3588 116.016 88.4016 115.439ZM104.067 115.373C104.067 120.29 107.715 125.06 114.495 125.06C117.439 125.084 120.304 124.13 122.616 122.354L120.256 117.977C118.733 119.085 116.91 119.734 115.012 119.845C113.99 119.907 112.979 119.606 112.166 118.999C111.354 118.391 110.794 117.518 110.592 116.54H122.579C122.666 115.897 122.716 115.249 122.728 114.6C122.728 109.493 119.559 105.664 113.956 105.664C107.835 105.664 104.074 109.895 104.074 115.322L104.067 115.373ZM110.734 113.039C111.071 111.58 111.955 110.274 113.798 110.274C114.16 110.276 114.518 110.351 114.85 110.493C115.181 110.636 115.478 110.843 115.724 111.102C115.969 111.362 116.157 111.668 116.275 112.001C116.394 112.334 116.441 112.687 116.413 113.039H110.734ZM115.379 103.993H120.024V98.9672H115.379V103.993ZM107.678 103.993H112.323V98.9672H107.678V103.993ZM123.672 113.6C123.672 120.385 127.096 125.082 133.958 125.082C139.952 125.082 143.765 121.209 143.765 116.11C143.765 111.157 140.663 107.641 135.577 107.641C133.572 107.606 131.612 108.225 130.01 109.399H129.935C130.048 106.743 132.625 105.751 135.06 104.949L142.214 102.76L140.409 97.7708L134.228 99.7404C126.819 102.199 123.672 106.036 123.672 113.6ZM130.01 116.219C130.01 113.812 131.711 112.302 133.696 112.302C135.682 112.302 137.382 113.812 137.382 116.219C137.414 116.71 137.343 117.202 137.172 117.664C137.001 118.127 136.735 118.55 136.39 118.909C136.044 119.267 135.627 119.553 135.164 119.748C134.701 119.944 134.201 120.045 133.696 120.045C133.191 120.045 132.692 119.944 132.229 119.748C131.765 119.553 131.348 119.267 131.003 118.909C130.657 118.55 130.391 118.127 130.22 117.664C130.05 117.202 129.978 116.71 130.01 116.219ZM145.533 124.652H151.729L156.973 116.54C157.36 115.953 157.705 115.342 158.007 114.709H158.082C158.025 115.33 158 115.953 158.007 116.577V124.63H164V106.145H157.804L152.56 114.293C152.167 114.877 151.822 115.489 151.526 116.124H151.451C151.489 115.658 151.526 114.943 151.526 114.293V106.145H145.533V124.652Z" fill="#203842"/>
<path fill-rule="evenodd" clip-rule="evenodd" d="M19.8688 146.303L20.618 145.326C21.0824 145.755 21.6198 146.103 22.2062 146.354C22.7953 146.612 23.4334 146.746 24.0792 146.748C24.7829 146.778 25.4742 146.56 26.027 146.135C26.429 145.796 26.6891 145.325 26.7582 144.811C26.8272 144.298 26.7003 143.777 26.4016 143.349C26.1492 143.007 25.828 142.719 25.4576 142.502C25.0408 142.258 24.6078 142.042 24.1616 141.853C23.6821 141.649 23.2101 141.437 22.7381 141.211C22.2843 141.007 21.8505 140.763 21.4421 140.482C21.0485 140.211 20.7232 139.857 20.4906 139.446C20.2396 138.999 20.1131 138.496 20.1236 137.987C20.1071 137.503 20.207 137.023 20.4151 136.583C20.6232 136.144 20.9338 135.758 21.3222 135.456C22.1744 134.804 23.2362 134.468 24.3189 134.507C25.623 134.459 26.8949 134.909 27.8624 135.762L27.2107 136.834C26.3964 136.135 25.3522 135.742 24.2664 135.726C23.5557 135.703 22.8573 135.911 22.2812 136.317C22.0218 136.498 21.8123 136.738 21.6711 137.017C21.53 137.295 21.4616 137.604 21.4721 137.914C21.4661 138.315 21.595 138.707 21.8392 139.03C22.0998 139.374 22.4348 139.658 22.8206 139.862C23.2101 140.066 23.6371 140.27 24.1166 140.467C24.5961 140.664 25.068 140.876 25.54 141.102C25.9937 141.307 26.4275 141.551 26.8361 141.831C27.2269 142.112 27.5492 142.473 27.78 142.889C28.0328 143.354 28.1592 143.874 28.1471 144.399C28.1599 144.879 28.0669 145.356 27.8743 145.797C27.6817 146.239 27.3941 146.635 27.0309 146.96C26.2084 147.669 25.1313 148.034 24.0342 147.974C23.2549 147.988 22.4807 147.848 21.7592 147.56C21.0378 147.273 20.3842 146.845 19.8389 146.303H19.8688ZM32.1327 144.363V138.439H33.4512V144.027C33.4138 144.727 33.5526 145.426 33.8558 146.062C34.0357 146.323 34.2868 146.529 34.5806 146.658C34.8745 146.787 35.1994 146.833 35.5189 146.792C36.0077 146.806 36.4932 146.71 36.9376 146.511C37.382 146.312 37.7734 146.017 38.0811 145.647C38.7341 144.876 39.0799 143.902 39.055 142.904V138.439H40.351V147.747H39.0775V146.288L39.1524 145.559H39.1149C38.8267 146.215 38.3638 146.784 37.7739 147.208C37.0838 147.737 36.2247 148.013 35.3466 147.988C34.8972 148.025 34.445 147.965 34.0226 147.811C33.6002 147.657 33.2182 147.414 32.9043 147.098C32.3388 146.303 32.074 145.341 32.1552 144.377L32.1327 144.363ZM44.2617 146.617L44.9509 145.734C45.3244 146.107 45.774 146.4 46.2708 146.593C46.7676 146.787 47.3005 146.877 47.8352 146.857C48.3266 146.877 48.8108 146.738 49.2137 146.464C49.3908 146.338 49.5333 146.172 49.6287 145.979C49.7241 145.787 49.7694 145.575 49.7606 145.362C49.7589 145.171 49.7104 144.984 49.6192 144.815C49.528 144.646 49.3967 144.501 49.2362 144.392C48.8501 144.105 48.4204 143.879 47.9626 143.721C47.4606 143.546 46.9587 143.349 46.4642 143.137C45.9751 142.936 45.5394 142.63 45.1907 142.24C44.8358 141.834 44.6512 141.313 44.6737 140.781C44.6569 140.413 44.7328 140.046 44.8947 139.713C45.0566 139.38 45.2996 139.09 45.6027 138.87C46.2772 138.397 47.0943 138.155 47.9251 138.184C49.0064 138.133 50.0646 138.5 50.8693 139.205L50.255 140.175C49.9489 139.895 49.5832 139.683 49.1837 139.555C48.7584 139.406 48.3098 139.33 47.8577 139.329C47.3741 139.311 46.8962 139.436 46.4867 139.687C46.3068 139.805 46.1617 139.966 46.0657 140.156C45.9698 140.345 45.9264 140.556 45.9398 140.766C45.9407 140.958 45.9879 141.148 46.0777 141.319C46.1675 141.49 46.2973 141.638 46.4567 141.751C46.8469 142.042 47.2818 142.271 47.7453 142.43C48.2473 142.605 48.7567 142.802 49.2436 143.013C49.7354 143.209 50.172 143.517 50.5172 143.91C50.8788 144.313 51.0667 144.835 51.0417 145.369C51.0498 145.732 50.9716 146.091 50.813 146.419C50.6544 146.747 50.4198 147.034 50.1277 147.259C49.4715 147.765 48.6494 148.024 47.8127 147.988C47.1552 148.015 46.4993 147.906 45.8876 147.67C45.2758 147.434 44.7219 147.075 44.2617 146.617ZM55.1246 147.747V134.755H56.4207V139.862L56.3607 140.591H56.3982C56.6943 139.942 57.1654 139.382 57.7617 138.972C58.4649 138.446 59.3329 138.173 60.2189 138.199C60.6752 138.156 61.1353 138.217 61.5639 138.375C61.9925 138.533 62.3782 138.784 62.6912 139.11C63.2462 139.902 63.5102 140.853 63.4404 141.809V147.733H62.1518V142.16C62.189 141.458 62.0447 140.758 61.7323 140.124C61.5499 139.865 61.2973 139.659 61.0025 139.53C60.7077 139.402 60.3821 139.355 60.0616 139.395C59.5775 139.388 59.0973 139.481 58.653 139.669C58.2087 139.856 57.8104 140.133 57.4845 140.482C56.7717 141.232 56.392 142.225 56.4282 143.247V147.74L55.1246 147.747ZM68.0627 136.309V134.755H69.4711V136.331L68.0627 136.309ZM68.1226 147.747V138.439H69.4112V147.747H68.1226ZM78.5435 144.158C78.537 143.401 78.7641 142.659 79.1953 142.028C79.6083 141.399 80.242 140.938 80.9783 140.73C80.3873 140.504 79.8878 140.098 79.5553 139.571C79.2228 139.045 79.0754 138.427 79.1354 137.812C79.1156 137.358 79.2033 136.905 79.3916 136.489C79.58 136.073 79.8639 135.704 80.2217 135.412C81.0471 134.78 82.0799 134.461 83.1284 134.515C83.635 134.518 84.1388 134.587 84.6268 134.719L84.2672 135.769C83.9067 135.684 83.5368 135.642 83.1659 135.645C82.4673 135.618 81.7809 135.83 81.2256 136.244C80.9778 136.441 80.7811 136.693 80.651 136.978C80.5209 137.263 80.4611 137.573 80.4764 137.885C80.4772 138.132 80.5125 138.377 80.5813 138.614C80.672 138.874 80.8007 139.12 80.9634 139.344C81.1863 139.638 81.4979 139.857 81.8549 139.971C82.3356 140.137 82.8433 140.216 83.3532 140.205H86.215V138.403H87.526V140.234H89.354V141.379H87.526V143.29C87.6189 144.558 87.1965 145.81 86.3499 146.777C85.923 147.186 85.4134 147.503 84.8536 147.709C84.2938 147.915 83.696 148.005 83.0985 147.974C81.9158 148.018 80.7587 147.63 79.8546 146.887C79.4491 146.552 79.1252 146.133 78.9063 145.661C78.6873 145.189 78.5788 144.676 78.5885 144.158H78.5435ZM79.9145 144.085C79.9064 144.445 79.9786 144.802 80.1261 145.132C80.2735 145.462 80.4927 145.757 80.7686 145.997C81.3882 146.525 82.1928 146.802 83.0161 146.77C85.0938 146.77 86.1326 145.598 86.1326 143.254V141.379H83.3157C82.3999 141.319 81.4919 141.577 80.7536 142.109C80.4624 142.353 80.2322 142.658 80.0803 143.002C79.9285 143.346 79.8589 143.719 79.8771 144.093L79.9145 144.085ZM98.4189 147.733V134.755H102.472C103.306 134.717 104.139 134.844 104.922 135.127C105.562 135.405 106.099 135.869 106.458 136.455C106.818 137.042 106.982 137.722 106.929 138.403C106.949 139.22 106.703 140.021 106.225 140.693C105.791 141.328 105.137 141.789 104.382 141.992C104.521 142.151 104.642 142.325 104.742 142.51L107.656 147.747H106.158L103.161 142.269H99.7899V147.747L98.4189 147.733ZM99.73 141.109H102.906C103.262 141.126 103.617 141.069 103.949 140.944C104.28 140.818 104.581 140.626 104.832 140.38C105.336 139.844 105.605 139.137 105.581 138.41C105.591 137.926 105.464 137.449 105.214 137.031C104.977 136.634 104.622 136.316 104.195 136.12C103.635 135.929 103.042 135.848 102.449 135.879H99.7824V141.124L99.73 141.109ZM110.481 143.035C110.468 142.391 110.595 141.751 110.853 141.158C111.111 140.565 111.495 140.031 111.979 139.592C112.943 138.697 114.224 138.198 115.556 138.198C116.888 138.198 118.169 138.697 119.133 139.592C119.617 140.031 120.001 140.565 120.259 141.158C120.517 141.751 120.644 142.391 120.632 143.035C120.632 144.339 120.1 145.59 119.153 146.512C118.206 147.434 116.922 147.952 115.582 147.952C114.243 147.952 112.959 147.434 112.012 146.512C111.065 145.59 110.533 144.339 110.533 143.035H110.481ZM111.814 143.035C111.799 143.532 111.886 144.026 112.07 144.49C112.254 144.953 112.531 145.376 112.885 145.734C113.587 146.413 114.537 146.795 115.526 146.795C116.516 146.795 117.465 146.413 118.167 145.734C118.524 145.378 118.803 144.955 118.988 144.491C119.174 144.028 119.261 143.532 119.246 143.035C119.257 142.547 119.167 142.062 118.981 141.608C118.796 141.155 118.519 140.742 118.167 140.394C117.465 139.715 116.516 139.334 115.526 139.334C114.537 139.334 113.587 139.715 112.885 140.394C112.535 140.742 112.259 141.155 112.075 141.609C111.891 142.063 111.802 142.547 111.814 143.035ZM124.692 145.53V134.755H125.988V145.267C125.988 146.208 126.348 146.675 127.067 146.675C127.169 146.684 127.272 146.684 127.374 146.675V147.806C127.215 147.821 127.054 147.821 126.895 147.806C126.718 147.821 126.54 147.821 126.363 147.806C126.166 147.774 125.974 147.715 125.793 147.631C125.587 147.541 125.401 147.412 125.247 147.251C125.069 147.054 124.936 146.823 124.857 146.573C124.739 146.25 124.683 145.909 124.692 145.566V145.53ZM131.068 145.53V134.755H132.364V145.267C132.364 146.208 132.723 146.675 133.442 146.675C133.545 146.684 133.647 146.684 133.75 146.675V147.806C133.593 147.821 133.435 147.821 133.278 147.806C133.101 147.821 132.923 147.821 132.746 147.806C132.546 147.774 132.352 147.715 132.169 147.631C131.962 147.541 131.776 147.412 131.622 147.251C131.447 147.053 131.315 146.822 131.232 146.573C131.118 146.249 131.063 145.909 131.068 145.566V145.53ZM136.611 146.602L137.293 145.719C137.669 146.092 138.12 146.384 138.618 146.578C139.115 146.771 139.649 146.861 140.185 146.843C140.676 146.862 141.161 146.724 141.563 146.449C141.738 146.322 141.879 146.155 141.973 145.963C142.066 145.771 142.111 145.56 142.103 145.347C142.103 145.156 142.055 144.968 141.964 144.799C141.873 144.63 141.74 144.485 141.578 144.377C141.193 144.089 140.763 143.862 140.305 143.706C139.81 143.531 139.308 143.334 138.806 143.123C138.316 142.924 137.88 142.616 137.533 142.225C137.173 141.822 136.985 141.3 137.008 140.766C136.993 140.398 137.069 140.032 137.231 139.699C137.393 139.366 137.635 139.077 137.937 138.855C138.612 138.382 139.429 138.141 140.26 138.169C141.341 138.119 142.399 138.486 143.204 139.191L142.597 140.132C142.294 139.851 141.931 139.639 141.533 139.512C141.106 139.362 140.655 139.285 140.2 139.285C139.719 139.268 139.244 139.393 138.836 139.643C138.669 139.761 138.533 139.917 138.439 140.096C138.346 140.275 138.297 140.474 138.297 140.675C138.297 140.876 138.346 141.075 138.439 141.254C138.533 141.434 138.669 141.589 138.836 141.707C139.225 141.997 139.657 142.226 140.118 142.386C140.627 142.561 141.129 142.758 141.616 142.969C142.108 143.166 142.544 143.473 142.889 143.867C143.251 144.269 143.439 144.792 143.414 145.326C143.42 145.688 143.341 146.046 143.183 146.374C143.024 146.701 142.791 146.989 142.5 147.215C141.841 147.723 141.017 147.982 140.177 147.944C139.526 147.976 138.874 147.874 138.265 147.645C137.656 147.416 137.103 147.066 136.641 146.617L136.611 146.602Z" fill="#203842"/>
<path fill-rule="evenodd" clip-rule="evenodd" d="M108.306 39.0552C104.904 64.2439 73.6191 48.9177 61.0556 57.8246C65.5506 61.6543 71.2517 61.7127 78.9457 61.7856C89.5239 61.8804 103.758 61.2166 108.44 61.2166C105.863 73.8584 98.2067 77.0681 86.1077 77.3672C80.1144 77.5204 73.3044 77.6444 69.4987 77.0389C57.1899 75.0766 53.4366 61.3114 55.6766 51.0988C56.7778 44.9493 61.3328 41.2655 68.3375 39.5804C75.3422 37.8953 99.4878 39.0552 108.306 39.0552Z" fill="#F52341"/>
<path fill-rule="evenodd" clip-rule="evenodd" d="M108.095 18.6153C104.057 45.7154 66.3366 23.5612 57.3091 41.9148C53.863 28.6019 57.3915 21.7229 68.1646 19.1333C75.2142 17.4482 98.9478 18.6153 108.095 18.6153Z" fill="#F52341"/>
<path fill-rule="evenodd" clip-rule="evenodd" d="M71.6259 14.5895C72.6097 14.5895 73.5839 14.4008 74.4929 14.0342C75.4018 13.6676 76.2277 13.1303 76.9233 12.4529C77.619 11.7755 78.1708 10.9714 78.5473 10.0863C78.9238 9.20129 79.1176 8.25271 79.1176 7.29475C79.1176 5.36006 78.3283 3.50461 76.9233 2.13658C75.5184 0.768551 73.6128 0 71.6259 0C69.639 0 67.7335 0.768551 66.3285 2.13658C64.9236 3.50461 64.1343 5.36006 64.1343 7.29475C64.1232 8.25569 64.3095 9.2091 64.682 10.099C65.0546 10.9889 65.606 11.7973 66.3039 12.4769C67.0018 13.1564 67.8321 13.6933 68.746 14.0561C69.6599 14.4189 70.639 14.6002 71.6259 14.5895Z" fill="#203842"/>
<path fill-rule="evenodd" clip-rule="evenodd" d="M91.0214 14.5895C92.0052 14.5895 92.9794 14.4008 93.8884 14.0342C94.7973 13.6676 95.6232 13.1303 96.3188 12.4529C97.0145 11.7755 97.5663 10.9714 97.9428 10.0863C98.3193 9.20129 98.5131 8.25271 98.5131 7.29475C98.5131 5.36006 97.7238 3.50461 96.3188 2.13658C94.9139 0.768551 93.0083 0 91.0214 0C89.0345 0 87.129 0.768551 85.724 2.13658C84.3191 3.50461 83.5298 5.36006 83.5298 7.29475C83.5187 8.25569 83.705 9.2091 84.0775 10.099C84.4501 10.9889 85.0015 11.7973 85.6994 12.4769C86.3973 13.1564 87.2276 13.6933 88.1415 14.0561C89.0554 14.4189 90.0345 14.6002 91.0214 14.5895Z" fill="#203842"/>
</svg>
