<svg width="148" height="48" viewBox="0 0 148 48" fill="none" xmlns="http://www.w3.org/2000/svg">
<path fill-rule="evenodd" clip-rule="evenodd" d="M32.2784 24.208C30.2164 39.7972 11.2491 30.3119 3.63224 35.8243C6.35742 38.1945 9.81385 38.2306 14.4785 38.2758C20.8917 38.3344 29.5215 37.9236 32.3602 37.9236C30.7977 45.7475 26.1559 47.734 18.8206 47.9191C15.187 48.0139 11.0584 48.0907 8.75103 47.7159C1.28858 46.5015 -0.986945 37.9823 0.371104 31.6618C1.03877 27.8559 3.80029 25.576 8.04703 24.5331C12.2938 23.4902 26.9325 24.208 32.2784 24.208Z" fill="#F52341"/>
<path fill-rule="evenodd" clip-rule="evenodd" d="M32.1516 11.5579C29.7035 28.3299 6.8347 14.6188 1.36163 25.9778C-0.727677 17.7385 1.41159 13.4811 7.94294 11.8784C12.2169 10.8355 26.6059 11.5579 32.1516 11.5579Z" fill="#F52341"/>
<path fill-rule="evenodd" clip-rule="evenodd" d="M48.5625 28.4966H58.8909V25.1648H52.4777V22.167H57.3467V18.8352H52.4777V15.9458H58.5912V12.614H48.5988V28.4966H48.5625ZM54.6215 11.3679H57.4375V8.25733H54.6215V11.3679ZM49.9523 11.3679H52.7684V8.25733H49.9614V11.3679H49.9523ZM59.2952 21.6704C59.2952 25.8691 61.3709 28.7765 65.5268 28.7765C69.1603 28.7765 71.4722 26.3792 71.4722 23.2235C71.4722 20.158 69.5964 17.9819 66.5124 17.9819C65.2966 17.953 64.1063 18.3315 63.1331 19.0564H63.0877C63.1558 17.4131 64.7183 16.7991 66.1944 16.3025L70.532 14.9481L69.4328 11.86L65.7084 13.0925C61.2164 14.6275 59.2952 17.0023 59.2952 21.6704ZM63.1331 23.2776C63.1331 21.7878 64.1596 20.8533 65.3678 20.8533C66.5759 20.8533 67.6024 21.7878 67.6024 23.2776C67.6219 23.5813 67.5786 23.8856 67.4751 24.1719C67.3716 24.4582 67.2102 24.7204 67.0008 24.9422C66.7913 25.1641 66.5384 25.3409 66.2575 25.4618C65.9767 25.5827 65.6738 25.6451 65.3678 25.6451C65.0617 25.6451 64.7589 25.5827 64.478 25.4618C64.1972 25.3409 63.9442 25.1641 63.7348 24.9422C63.5254 24.7204 63.364 24.4582 63.2605 24.1719C63.157 23.8856 63.1137 23.5813 63.1331 23.2776ZM72.5441 28.4966H76.3048L79.4842 23.4763C79.7153 23.1111 79.9246 22.7327 80.111 22.3431H80.1519C80.111 22.7946 80.111 23.246 80.111 23.4989V28.4966H83.7446V17.0564H79.9884L76.809 22.0993C76.574 22.4614 76.3661 22.8402 76.1868 23.2325H76.1413C76.1413 22.9436 76.1868 22.5011 76.1868 22.0993V17.0564H72.5532V28.4966H72.5441ZM89.6628 25.4537C90.4047 23.9183 90.7571 22.2257 90.6893 20.5237V20.0993H92.6786V25.4537H89.6628ZM84.4304 25.4537V31.1512H88.0095V28.4966H94.7589V31.1512H98.2017V25.4537H96.5439V17.0564H87.0511V19.8104C87.0511 22.1219 86.6287 24.167 85.8657 25.4537H84.4304ZM98.2426 22.8081C98.2426 26.3883 101.149 28.763 104.769 28.763C108.389 28.763 111.296 26.3883 111.296 22.8081C111.296 19.228 108.389 16.7901 104.747 16.7901C101.104 16.7901 98.2426 19.2099 98.2426 22.8081ZM102.158 22.8081C102.158 21.079 103.361 19.9865 104.769 19.9865C106.177 19.9865 107.386 21.079 107.386 22.8081C107.411 23.1651 107.363 23.5236 107.244 23.8611C107.124 24.1987 106.936 24.5082 106.69 24.7702C106.445 25.0322 106.148 25.2412 105.818 25.3841C105.488 25.527 105.132 25.6008 104.772 25.6008C104.412 25.6008 104.055 25.527 103.725 25.3841C103.395 25.2412 103.098 25.0322 102.853 24.7702C102.608 24.5082 102.419 24.1987 102.3 23.8611C102.18 23.5236 102.132 23.1651 102.158 22.8081ZM111.655 22.7675C111.655 25.8104 113.867 28.763 117.977 28.763C119.763 28.7778 121.499 28.187 122.901 27.088L121.47 24.3792C120.547 25.0647 119.441 25.4664 118.291 25.535C117.671 25.5733 117.058 25.3874 116.565 25.0114C116.073 24.6355 115.734 24.095 115.611 23.4898H122.878C122.931 23.0915 122.961 22.6906 122.969 22.2889C122.969 19.1287 121.048 16.7585 117.65 16.7585C113.94 16.7585 111.66 19.377 111.66 22.7359L111.655 22.7675ZM115.697 21.3228C115.902 20.4199 116.438 19.6117 117.555 19.6117C117.775 19.6129 117.991 19.6591 118.192 19.7473C118.393 19.8355 118.573 19.9639 118.722 20.1244C118.871 20.2849 118.985 20.4742 119.057 20.6803C119.129 20.8865 119.157 21.1052 119.14 21.3228H115.697ZM118.513 15.7246H121.329V12.614H118.513V15.7246ZM113.844 15.7246H116.66V12.614H113.844V15.7246ZM123.541 21.6704C123.541 25.8691 125.617 28.7765 129.777 28.7765C133.411 28.7765 135.723 26.3792 135.723 23.2235C135.723 20.158 133.843 17.9819 130.759 17.9819C129.543 17.9604 128.355 18.3433 127.384 19.07H127.338C127.407 17.4266 128.969 16.8126 130.445 16.316L134.783 14.9616L133.688 11.8736L129.941 13.0925C125.449 14.614 123.541 16.9887 123.541 21.6704ZM127.384 23.2912C127.384 21.8013 128.415 20.8668 129.618 20.8668C130.822 20.8668 131.853 21.8013 131.853 23.2912C131.873 23.5948 131.829 23.8991 131.726 24.1855C131.622 24.4718 131.461 24.7339 131.251 24.9558C131.042 25.1777 130.789 25.3545 130.508 25.4754C130.227 25.5962 129.925 25.6586 129.618 25.6586C129.312 25.6586 129.01 25.5962 128.729 25.4754C128.448 25.3545 128.195 25.1777 127.986 24.9558C127.776 24.7339 127.615 24.4718 127.511 24.1855C127.408 23.8991 127.364 23.5948 127.384 23.2912ZM136.795 28.5102H140.551L143.73 23.4898C143.965 23.1266 144.174 22.748 144.357 22.3567H144.403C144.368 22.7409 144.353 23.1266 144.357 23.5124V28.4966H147.991V17.0564H144.235L141.055 22.0993C140.817 22.4603 140.607 22.8391 140.428 23.2325H140.383C140.406 22.9436 140.428 22.5011 140.428 22.0993V17.0564H136.795V28.5102Z" fill="white"/>
<path fill-rule="evenodd" clip-rule="evenodd" d="M60.608 41.91L61.0622 41.3051C61.3438 41.571 61.6696 41.7863 62.0251 41.9416C62.3822 42.1011 62.7691 42.1842 63.1606 42.1854C63.5873 42.2039 64.0064 42.0693 64.3415 41.8062C64.5852 41.5962 64.7429 41.3047 64.7848 40.9868C64.8267 40.6689 64.7497 40.3468 64.5686 40.0816C64.4156 39.8702 64.2209 39.6921 63.9963 39.5579C63.7436 39.4069 63.4811 39.2726 63.2106 39.1561C62.9199 39.0297 62.6337 38.8988 62.3476 38.7588C62.0724 38.6323 61.8094 38.4812 61.5618 38.3073C61.3232 38.1398 61.126 37.9206 60.985 37.6662C60.8328 37.3897 60.7561 37.0784 60.7624 36.7633C60.7525 36.464 60.813 36.1665 60.9392 35.8945C61.0653 35.6225 61.2537 35.3836 61.4892 35.1967C62.0058 34.7935 62.6496 34.5856 63.3059 34.6098C64.0966 34.5799 64.8677 34.8586 65.4543 35.3863L65.0591 36.05C64.5655 35.6171 63.9324 35.3737 63.2741 35.3638C62.8432 35.3496 62.4198 35.4783 62.0705 35.7295C61.9133 35.8415 61.7862 35.9903 61.7007 36.1627C61.6151 36.3352 61.5737 36.526 61.58 36.7182C61.5764 36.9664 61.6545 37.209 61.8026 37.4089C61.9606 37.6217 62.1637 37.7974 62.3976 37.9236C62.6337 38.05 62.8926 38.1764 63.1833 38.2983C63.474 38.4202 63.7601 38.5511 64.0463 38.6911C64.3214 38.8177 64.5844 38.9688 64.832 39.1425C65.069 39.3162 65.2644 39.5397 65.4043 39.7972C65.5576 40.0847 65.6342 40.4064 65.6269 40.7317C65.6346 41.0286 65.5782 41.3237 65.4615 41.597C65.3447 41.8704 65.1704 42.1157 64.9501 42.3164C64.4515 42.7556 63.7985 42.9811 63.1333 42.9439C62.6609 42.9531 62.1915 42.8661 61.7541 42.6883C61.3167 42.5105 60.9205 42.2456 60.5898 41.91H60.608ZM68.0432 40.7091V37.0432H68.8426V40.5015C68.8199 40.9349 68.9041 41.3673 69.0879 41.7611C69.197 41.9222 69.3492 42.0498 69.5273 42.1296C69.7055 42.2093 69.9025 42.2381 70.0962 42.2125C70.3925 42.2212 70.6869 42.1617 70.9563 42.0388C71.2257 41.9159 71.463 41.7327 71.6495 41.5037C72.0454 41.0269 72.2551 40.4242 72.24 39.8062V37.0432H73.0257V42.8039H72.2536V41.901L72.299 41.4495H72.2763C72.1016 41.8556 71.8209 42.2078 71.4633 42.4699C71.0449 42.7974 70.5241 42.9684 69.9917 42.9529C69.7193 42.976 69.4451 42.9385 69.189 42.8433C68.9329 42.748 68.7013 42.5973 68.511 42.4021C68.1682 41.91 68.0076 41.3148 68.0568 40.7182L68.0432 40.7091ZM75.3967 42.1042L75.8145 41.5579C76.0409 41.7888 76.3135 41.97 76.6147 42.0898C76.9159 42.2095 77.239 42.2652 77.5632 42.2532C77.8611 42.265 78.1547 42.1793 78.3989 42.0094C78.5063 41.9316 78.5927 41.8287 78.6505 41.7098C78.7083 41.5908 78.7358 41.4596 78.7305 41.3276C78.7294 41.2096 78.7001 41.0935 78.6448 40.9891C78.5895 40.8846 78.5098 40.7948 78.4125 40.7272C78.1784 40.5497 77.9179 40.4095 77.6404 40.3118C77.3361 40.2035 77.0318 40.0816 76.732 39.9507C76.4354 39.8265 76.1713 39.6365 75.9599 39.3954C75.7447 39.1444 75.6328 38.8219 75.6465 38.4924C75.6363 38.2646 75.6823 38.0377 75.7804 37.8316C75.8786 37.6254 76.0259 37.4462 76.2097 37.3096C76.6186 37.0167 77.114 36.8674 77.6177 36.8852C78.2732 36.8537 78.9148 37.0809 79.4027 37.5173L79.0302 38.1177C78.8446 37.944 78.6229 37.813 78.3807 37.734C78.1229 37.6417 77.8509 37.5943 77.5768 37.594C77.2836 37.5827 76.9939 37.6598 76.7456 37.8152C76.6365 37.8882 76.5486 37.9883 76.4904 38.1055C76.4322 38.2227 76.4059 38.353 76.4141 38.4834C76.4146 38.6023 76.4432 38.7194 76.4977 38.8253C76.5521 38.9312 76.6308 39.0228 76.7274 39.0929C76.964 39.2728 77.2276 39.4145 77.5087 39.5127C77.813 39.6211 78.1218 39.743 78.4171 39.8739C78.7152 39.9954 78.9799 40.1857 79.1892 40.4292C79.4084 40.6782 79.5223 41.0017 79.5071 41.3322C79.5121 41.5564 79.4646 41.7787 79.3685 41.9816C79.2723 42.1845 79.1301 42.3625 78.953 42.5015C78.5552 42.8151 78.0568 42.9754 77.5495 42.9529C77.1509 42.9693 76.7533 42.9021 76.3824 42.7559C76.0115 42.6097 75.6757 42.3877 75.3967 42.1042ZM81.9825 42.8039V34.7633H82.7683V37.9236L82.7319 38.3751H82.7546C82.9342 37.973 83.2198 37.6266 83.5813 37.3728C84.0076 37.0476 84.5338 36.8786 85.071 36.8942C85.3477 36.8681 85.6266 36.9054 85.8865 37.0032C86.1463 37.1011 86.3801 37.2568 86.5699 37.4586C86.9064 37.9486 87.0664 38.5372 87.0241 39.129V42.7949H86.2429V39.3457C86.2654 38.9113 86.178 38.4782 85.9885 38.0861C85.8779 37.9254 85.7248 37.7982 85.5461 37.7185C85.3674 37.6388 85.1699 37.6098 84.9757 37.6346C84.6821 37.6303 84.3911 37.688 84.1217 37.804C83.8523 37.92 83.6108 38.0915 83.4132 38.3073C82.9811 38.7714 82.7509 39.3864 82.7728 40.0184V42.7994L81.9825 42.8039ZM89.8265 35.7249V34.7633H90.6804V35.7385L89.8265 35.7249ZM89.8628 42.8039V37.0432H90.644V42.8039H89.8628ZM96.1807 40.5827C96.1768 40.1139 96.3144 39.6547 96.5758 39.2644C96.8262 38.8751 97.2104 38.5895 97.6568 38.4608C97.2985 38.3213 96.9957 38.0696 96.7941 37.7438C96.5925 37.418 96.5031 37.0358 96.5395 36.655C96.5275 36.3738 96.5807 36.0936 96.6948 35.8361C96.809 35.5786 96.9812 35.3506 97.1981 35.1696C97.6985 34.7786 98.3247 34.5813 98.9604 34.6143C99.2675 34.6163 99.5729 34.6588 99.8688 34.7407L99.6507 35.3909C99.4322 35.338 99.208 35.3122 98.9831 35.3141C98.5595 35.2973 98.1434 35.4283 97.8067 35.6843C97.6565 35.8067 97.5372 35.9623 97.4584 36.1386C97.3795 36.315 97.3432 36.5073 97.3525 36.7001C97.353 36.8528 97.3744 37.0046 97.4161 37.1516C97.4711 37.3123 97.5491 37.4644 97.6477 37.603C97.7829 37.7852 97.9718 37.9209 98.1882 37.9913C98.4797 38.0938 98.7875 38.1428 99.0966 38.1358H100.832V37.0207H101.627V38.1538H102.735V38.8626H101.627V40.0455C101.683 40.8299 101.427 41.605 100.913 42.2035C100.655 42.4562 100.346 42.6526 100.006 42.7801C99.6669 42.9076 99.3045 42.9634 98.9422 42.9439C98.2252 42.9715 97.5237 42.7315 96.9755 42.2712C96.7297 42.0639 96.5333 41.8048 96.4006 41.5128C96.2678 41.2208 96.202 40.9031 96.2079 40.5827H96.1807ZM97.0119 40.5376C97.007 40.7602 97.0507 40.9813 97.1401 41.1855C97.2295 41.3897 97.3624 41.5722 97.5297 41.7204C97.9053 42.0477 98.3931 42.219 98.8922 42.199C100.152 42.199 100.782 41.4736 100.782 40.0229V38.8626H99.0739C98.5187 38.8254 97.9682 38.9854 97.5206 39.3141C97.344 39.4653 97.2045 39.6544 97.1124 39.8672C97.0203 40.0799 96.9782 40.3107 96.9892 40.5421L97.0119 40.5376ZM108.231 42.7949V34.7633H110.688C111.193 34.7398 111.699 34.8181 112.173 34.9936C112.561 35.1655 112.887 35.4525 113.105 35.8154C113.323 36.1783 113.422 36.5993 113.39 37.0207C113.402 37.5262 113.253 38.0224 112.963 38.4383C112.7 38.8308 112.303 39.1161 111.846 39.2419C111.93 39.3404 112.003 39.4479 112.064 39.5624L113.831 42.8039H112.922L111.106 39.4134H109.062V42.8039L108.231 42.7949ZM109.025 38.6956H110.951C111.167 38.7058 111.382 38.6709 111.583 38.5932C111.784 38.5154 111.967 38.3965 112.118 38.2441C112.424 37.9125 112.587 37.4749 112.573 37.0252C112.579 36.7258 112.502 36.4305 112.35 36.1719C112.206 35.9259 111.991 35.7291 111.732 35.6076C111.393 35.4899 111.033 35.4393 110.674 35.4586H109.057V38.7046L109.025 38.6956ZM115.543 39.8875C115.536 39.4888 115.612 39.093 115.769 38.7258C115.925 38.3587 116.158 38.0284 116.451 37.7565C117.036 37.2026 117.813 36.8936 118.62 36.8936C119.428 36.8936 120.205 37.2026 120.789 37.7565C121.083 38.0284 121.315 38.3587 121.472 38.7258C121.628 39.093 121.705 39.4888 121.697 39.8875C121.697 40.6945 121.375 41.4685 120.801 42.0391C120.227 42.6098 119.448 42.9304 118.636 42.9304C117.824 42.9304 117.046 42.6098 116.472 42.0391C115.897 41.4685 115.575 40.6945 115.575 39.8875H115.543ZM116.352 39.8875C116.343 40.1948 116.395 40.5009 116.507 40.7877C116.618 41.0746 116.786 41.3364 117.001 41.5579C117.427 41.9783 118.002 42.2143 118.602 42.2143C119.202 42.2143 119.778 41.9783 120.203 41.5579C120.419 41.3374 120.589 41.0758 120.701 40.7888C120.814 40.5018 120.867 40.1953 120.857 39.8875C120.864 39.5854 120.809 39.2851 120.697 39.0044C120.585 38.7237 120.417 38.4682 120.203 38.2532C119.778 37.8327 119.202 37.5967 118.602 37.5967C118.002 37.5967 117.427 37.8327 117.001 38.2532C116.788 38.4686 116.621 38.7242 116.51 39.0049C116.398 39.2856 116.344 39.5857 116.352 39.8875ZM124.159 41.4315V34.7633H124.945V41.269C124.945 41.8514 125.163 42.1403 125.599 42.1403C125.661 42.146 125.723 42.146 125.785 42.1403V42.8401C125.689 42.8494 125.591 42.8494 125.495 42.8401C125.387 42.8496 125.279 42.8496 125.172 42.8401C125.052 42.8203 124.936 42.7838 124.827 42.7317C124.702 42.6762 124.589 42.5964 124.495 42.4969C124.388 42.3751 124.307 42.232 124.259 42.0771C124.188 41.8772 124.154 41.6661 124.159 41.4541V41.4315ZM128.024 41.4315V34.7633H128.81V41.269C128.81 41.8514 129.028 42.1403 129.464 42.1403C129.526 42.146 129.589 42.146 129.65 42.1403V42.8401C129.555 42.8494 129.459 42.8494 129.364 42.8401C129.257 42.8496 129.149 42.8496 129.042 42.8401C128.921 42.8203 128.803 42.7838 128.692 42.7317C128.567 42.6762 128.454 42.5964 128.361 42.4969C128.255 42.374 128.174 42.2312 128.124 42.0771C128.055 41.8767 128.021 41.6659 128.024 41.4541V41.4315ZM131.385 42.0951L131.799 41.5489C132.026 41.7795 132.3 41.9604 132.602 42.0801C132.904 42.1998 133.227 42.2557 133.552 42.2441C133.85 42.2559 134.143 42.1703 134.388 42.0003C134.494 41.9215 134.579 41.8183 134.636 41.6995C134.693 41.5808 134.72 41.4501 134.715 41.3186C134.715 41.2004 134.686 41.0839 134.631 40.9793C134.575 40.8746 134.495 40.785 134.397 40.7182C134.163 40.5397 133.903 40.3995 133.625 40.3028C133.325 40.1945 133.021 40.0726 132.716 39.9416C132.419 39.8186 132.155 39.6285 131.944 39.3863C131.726 39.1369 131.612 38.8137 131.626 38.4834C131.617 38.2557 131.663 38.0291 131.761 37.823C131.859 37.617 132.006 37.4377 132.189 37.3006C132.598 37.0077 133.094 36.8584 133.597 36.8762C134.253 36.8447 134.895 37.0719 135.382 37.5082L135.015 38.0906C134.831 37.9169 134.61 37.7859 134.37 37.7069C134.11 37.6141 133.837 37.5668 133.561 37.5669C133.269 37.5562 132.981 37.6333 132.734 37.7881C132.633 37.8614 132.551 37.9575 132.494 38.0686C132.437 38.1796 132.407 38.3024 132.407 38.427C132.407 38.5515 132.437 38.6744 132.494 38.7854C132.551 38.8964 132.633 38.9925 132.734 39.0658C132.97 39.2448 133.232 39.3865 133.511 39.4857C133.82 39.594 134.124 39.7159 134.42 39.8468C134.718 39.9683 134.982 40.1586 135.192 40.4021C135.411 40.6511 135.525 40.9746 135.51 41.3051C135.513 41.5291 135.466 41.7511 135.369 41.9539C135.273 42.1566 135.132 42.3347 134.955 42.4744C134.556 42.7887 134.056 42.949 133.547 42.9258C133.152 42.9452 132.757 42.8821 132.388 42.7406C132.019 42.5991 131.683 42.3823 131.404 42.1042L131.385 42.0951Z" fill="white"/>
<path fill-rule="evenodd" clip-rule="evenodd" d="M10.0422 9.06558C10.6387 9.06558 11.2293 8.9488 11.7804 8.72192C12.3314 8.49504 12.8321 8.16249 13.2539 7.74326C13.6757 7.32403 14.0102 6.82634 14.2385 6.2786C14.4667 5.73085 14.5842 5.14378 14.5842 4.55091C14.5842 3.35354 14.1057 2.20521 13.2539 1.35855C12.4021 0.511884 11.2469 0.036232 10.0422 0.036232C8.83764 0.036232 7.68238 0.511884 6.83059 1.35855C5.97881 2.20521 5.50028 3.35354 5.50028 4.55091C5.49359 5.14563 5.6065 5.73569 5.83238 6.28644C6.05827 6.83719 6.39258 7.33753 6.81568 7.75809C7.23878 8.17864 7.74215 8.51094 8.29622 8.73547C8.8503 8.96 9.44393 9.07223 10.0422 9.06558Z" fill="white"/>
<path fill-rule="evenodd" clip-rule="evenodd" d="M21.8001 9.06558C22.3965 9.06558 22.9871 8.9488 23.5382 8.72192C24.0892 8.49504 24.59 8.16249 25.0117 7.74326C25.4335 7.32403 25.768 6.82634 25.9963 6.2786C26.2245 5.73085 26.342 5.14378 26.342 4.55091C26.342 3.35354 25.8635 2.20521 25.0117 1.35855C24.1599 0.511884 23.0047 0.036232 21.8001 0.036232C20.5955 0.036232 19.4402 0.511884 18.5884 1.35855C17.7366 2.20521 17.2581 3.35354 17.2581 4.55091C17.2514 5.14563 17.3643 5.73569 17.5902 6.28644C17.8161 6.83719 18.1504 7.33753 18.5735 7.75809C18.9966 8.17864 19.5 8.51094 20.054 8.73547C20.6081 8.96 21.2017 9.07223 21.8001 9.06558Z" fill="white"/>
</svg>
