<svg width="124" height="39" viewBox="0 0 124 39" fill="none" xmlns="http://www.w3.org/2000/svg">
<path fill-rule="evenodd" clip-rule="evenodd" d="M27.0451 19.6688C25.3174 32.335 9.42591 24.6282 3.0442 29.107C5.32746 31.0328 8.22339 31.0622 12.1316 31.0989C17.5048 31.1465 24.7352 30.8127 27.1136 30.8127C25.8045 37.1697 21.9153 38.7837 15.7696 38.9341C12.7252 39.0111 9.26608 39.0735 7.33292 38.769C1.0806 37.7823 -0.825923 30.8604 0.311901 25.725C0.8713 22.6327 3.185 20.7803 6.74308 19.9329C10.3012 19.0856 22.5661 19.6688 27.0451 19.6688Z" fill="#F52341"/>
<path fill-rule="evenodd" clip-rule="evenodd" d="M26.9383 9.39058C24.8872 23.0178 5.72681 11.8776 1.14126 21.1067C-0.60924 14.4123 1.18312 10.9532 6.65533 9.65102C10.2362 8.80367 22.2919 9.39058 26.9383 9.39058Z" fill="#F52341"/>
<path class="logo-color-control"  fill-rule="evenodd" clip-rule="evenodd" d="M40.6875 23.1536H49.3411V20.4465H43.9678V18.0109H48.0472V15.3038H43.9678V12.9561H49.0899V10.249H40.7179V23.1536H40.6875ZM45.7639 9.2366H48.1233V6.70923H45.7639V9.2366ZM41.852 9.2366H44.2113V6.70923H41.8596V9.2366H41.852ZM49.6797 17.6074C49.6797 21.0188 51.4188 23.3811 54.9008 23.3811C57.9451 23.3811 59.8821 21.4333 59.8821 18.8692C59.8821 16.3785 58.3105 14.6105 55.7266 14.6105C54.7079 14.587 53.7107 14.8945 52.8953 15.4835H52.8573C52.9144 14.1483 54.2234 13.6494 55.4602 13.2459L59.0944 12.1455L58.1735 9.63643L55.053 10.6378C51.2894 11.885 49.6797 13.8145 49.6797 17.6074ZM52.8953 18.9132C52.8953 17.7027 53.7554 16.9434 54.7676 16.9434C55.7798 16.9434 56.6399 17.7027 56.6399 18.9132C56.6562 19.1599 56.6199 19.4072 56.5332 19.6398C56.4465 19.8724 56.3112 20.0855 56.1358 20.2657C55.9603 20.446 55.7484 20.5897 55.5131 20.6879C55.2777 20.7861 55.024 20.8368 54.7676 20.8368C54.5112 20.8368 54.2575 20.7861 54.0221 20.6879C53.7868 20.5897 53.5749 20.446 53.3994 20.2657C53.224 20.0855 53.0887 19.8724 53.002 19.6398C52.9153 19.4072 52.879 19.1599 52.8953 18.9132ZM60.7802 23.1536H63.9311L66.5949 19.0746C66.7885 18.7779 66.9638 18.4705 67.12 18.1539H67.1543C67.12 18.5207 67.12 18.8876 67.12 19.093V23.1536H70.1644V13.8585H67.0173L64.3535 17.9558C64.1566 18.2501 63.9824 18.5578 63.8321 18.8766H63.7941C63.7941 18.6418 63.8321 18.2823 63.8321 17.9558V13.8585H60.7878V23.1536H60.7802ZM75.1229 20.6813C75.7445 19.4338 76.0397 18.0585 75.9829 16.6756V16.3308H77.6497V20.6813H75.1229ZM70.739 20.6813V25.3105H73.7377V23.1536H79.3926V25.3105H82.2771V20.6813H80.8881V13.8585H72.9347V16.0961C72.9347 17.9742 72.5808 19.6359 71.9415 20.6813H70.739ZM82.3113 18.5317C82.3113 21.4406 84.7468 23.3701 87.7797 23.3701C90.8127 23.3701 93.2481 21.4406 93.2481 18.5317C93.2481 15.6229 90.8127 13.6421 87.7607 13.6421C84.7087 13.6421 82.3113 15.6082 82.3113 18.5317ZM85.5916 18.5317C85.5916 17.1268 86.6 16.2391 87.7797 16.2391C88.9594 16.2391 89.9717 17.1268 89.9717 18.5317C89.9934 18.8218 89.9529 19.113 89.8527 19.3873C89.7525 19.6616 89.5947 19.913 89.3892 20.1259C89.1837 20.3389 88.9349 20.5087 88.6583 20.6248C88.3818 20.7409 88.0833 20.8008 87.7816 20.8008C87.48 20.8008 87.1815 20.7409 86.9049 20.6248C86.6283 20.5087 86.3795 20.3389 86.174 20.1259C85.9686 19.913 85.8108 19.6616 85.7106 19.3873C85.6104 19.113 85.5699 18.8218 85.5916 18.5317ZM93.5488 18.4987C93.5488 20.9711 95.402 23.3701 98.8459 23.3701C100.342 23.3821 101.797 22.9021 102.971 22.0092L101.772 19.8083C100.998 20.3652 100.072 20.6916 99.1085 20.7473C98.5892 20.7785 98.0757 20.6274 97.663 20.3219C97.2502 20.0165 96.9662 19.5773 96.8633 19.0856H102.952C102.996 18.762 103.022 18.4363 103.028 18.1099C103.028 15.5422 101.418 13.6164 98.5719 13.6164C95.4629 13.6164 93.5526 15.7439 93.5526 18.4731L93.5488 18.4987ZM96.9356 17.3249C97.1068 16.5913 97.5559 15.9347 98.492 15.9347C98.676 15.9357 98.8577 15.9732 99.026 16.0448C99.1942 16.1165 99.3453 16.2208 99.4699 16.3512C99.5945 16.4816 99.6899 16.6354 99.7502 16.8029C99.8104 16.9704 99.8342 17.1481 99.8201 17.3249H96.9356ZM99.295 12.7764H101.654V10.249H99.295V12.7764ZM95.383 12.7764H97.7424V10.249H95.383V12.7764ZM103.508 17.6074C103.508 21.0188 105.247 23.3811 108.732 23.3811C111.777 23.3811 113.714 21.4333 113.714 18.8692C113.714 16.3785 112.138 14.6105 109.554 14.6105C108.536 14.5929 107.541 14.9041 106.727 15.4945H106.689C106.746 14.1593 108.055 13.6604 109.292 13.2569L112.926 12.1565L112.009 9.64743L108.869 10.6378C105.106 11.874 103.508 13.8035 103.508 17.6074ZM106.727 18.9242C106.727 17.7137 107.591 16.9544 108.599 16.9544C109.608 16.9544 110.472 17.7137 110.472 18.9242C110.488 19.1709 110.452 19.4182 110.365 19.6508C110.278 19.8835 110.143 20.0965 109.967 20.2767C109.792 20.457 109.58 20.6007 109.345 20.6989C109.109 20.7971 108.856 20.8478 108.599 20.8478C108.343 20.8478 108.089 20.7971 107.854 20.6989C107.618 20.6007 107.407 20.457 107.231 20.2767C107.056 20.0965 106.92 19.8835 106.834 19.6508C106.747 19.4182 106.711 19.1709 106.727 18.9242ZM114.612 23.1646H117.759L120.423 19.0856C120.619 18.7905 120.795 18.4829 120.948 18.1649H120.986C120.957 18.4771 120.944 18.7905 120.948 19.104V23.1536H123.992V13.8585H120.845L118.181 17.9558C117.982 18.2491 117.806 18.5569 117.656 18.8766H117.618C117.637 18.6418 117.656 18.2823 117.656 17.9558V13.8585H114.612V23.1646Z" fill="#203842"/>
<path class="logo-color-control"  fill-rule="evenodd" clip-rule="evenodd" d="M50.7799 34.0516L51.1604 33.5601C51.3963 33.7761 51.6693 33.9511 51.9672 34.0773C52.2664 34.2069 52.5905 34.2743 52.9185 34.2754C53.276 34.2904 53.6271 34.181 53.9079 33.9672C54.1121 33.7966 54.2443 33.5598 54.2793 33.3015C54.3144 33.0432 54.25 32.7815 54.0982 32.566C53.97 32.3943 53.8068 32.2495 53.6187 32.1405C53.407 32.0178 53.1871 31.9087 52.9604 31.814C52.7168 31.7113 52.4771 31.6049 52.2374 31.4912C52.0068 31.3885 51.7865 31.2657 51.579 31.1244C51.3791 30.9883 51.2139 30.8102 51.0957 30.6035C50.9682 30.3789 50.9039 30.1259 50.9093 29.8699C50.9009 29.6267 50.9516 29.385 51.0573 29.164C51.163 28.943 51.3208 28.7489 51.5181 28.597C51.951 28.2695 52.4904 28.1005 53.0403 28.1202C53.7027 28.0958 54.3488 28.3223 54.8403 28.7511L54.5092 29.2903C54.0956 28.9386 53.5652 28.7408 53.0137 28.7328C52.6526 28.7213 52.2979 28.8258 52.0052 29.0299C51.8735 29.1209 51.767 29.2418 51.6954 29.3819C51.6237 29.5221 51.5889 29.6771 51.5942 29.8332C51.5912 30.0349 51.6567 30.232 51.7807 30.3944C51.9131 30.5673 52.0833 30.7101 52.2792 30.8126C52.4771 30.9153 52.694 31.018 52.9376 31.1171C53.1811 31.2161 53.4208 31.3225 53.6606 31.4362C53.8911 31.5391 54.1114 31.6619 54.3189 31.803C54.5174 31.9441 54.6812 32.1257 54.7984 32.3349C54.9268 32.5685 54.991 32.8299 54.9849 33.0942C54.9914 33.3354 54.9441 33.5752 54.8463 33.7973C54.7485 34.0194 54.6024 34.2187 54.4179 34.3818C54.0001 34.7386 53.453 34.9219 52.8957 34.8916C52.4998 34.8991 52.1066 34.8284 51.7401 34.6839C51.3736 34.5395 51.0417 34.3243 50.7646 34.0516H50.7799ZM57.0094 33.0759V30.0973H57.6791V32.9071C57.6601 33.2593 57.7306 33.6107 57.8846 33.9306C57.976 34.0615 58.1035 34.1652 58.2528 34.23C58.4021 34.2948 58.5671 34.3181 58.7294 34.2974C58.9777 34.3044 59.2243 34.2561 59.4501 34.1562C59.6758 34.0563 59.8746 33.9076 60.0309 33.7215C60.3626 33.3341 60.5382 32.8444 60.5256 32.3422V30.0973H61.1839V34.7779H60.537V34.0443L60.5751 33.6775H60.556C60.4096 34.0074 60.1745 34.2936 59.8749 34.5065C59.5243 34.7726 59.0879 34.9115 58.6419 34.899C58.4136 34.9177 58.1839 34.8873 57.9693 34.8099C57.7548 34.7325 57.5608 34.61 57.4013 34.4514C57.1141 34.0516 56.9796 33.568 57.0208 33.0832L57.0094 33.0759ZM63.1704 34.2093L63.5205 33.7655C63.7101 33.9531 63.9385 34.1003 64.1909 34.1976C64.4432 34.2949 64.714 34.3402 64.9856 34.3304C65.2351 34.34 65.4811 34.2704 65.6858 34.1323C65.7757 34.0691 65.8481 33.9855 65.8966 33.8889C65.945 33.7923 65.968 33.6856 65.9635 33.5784C65.9627 33.4825 65.9381 33.3882 65.8917 33.3033C65.8454 33.2185 65.7787 33.1455 65.6972 33.0906C65.5011 32.9463 65.2828 32.8324 65.0502 32.7531C64.7953 32.665 64.5403 32.566 64.2892 32.4596C64.0407 32.3587 63.8194 32.2044 63.6422 32.0084C63.462 31.8045 63.3682 31.5425 63.3797 31.2748C63.3711 31.0897 63.4096 30.9053 63.4919 30.7378C63.5741 30.5703 63.6976 30.4248 63.8515 30.3137C64.1942 30.0758 64.6092 29.9545 65.0312 29.9689C65.5805 29.9434 66.118 30.1279 66.5268 30.4825L66.2147 30.9704C66.0592 30.8292 65.8734 30.7228 65.6705 30.6586C65.4545 30.5836 65.2266 30.5451 64.997 30.5448C64.7513 30.5356 64.5086 30.5983 64.3006 30.7246C64.2092 30.7839 64.1355 30.8652 64.0867 30.9604C64.038 31.0556 64.016 31.1615 64.0228 31.2675C64.0232 31.3641 64.0472 31.4592 64.0928 31.5452C64.1384 31.6313 64.2044 31.7057 64.2853 31.7627C64.4835 31.9089 64.7044 32.024 64.9399 32.1038C65.1948 32.1919 65.4536 32.2909 65.701 32.3973C65.9508 32.4959 66.1725 32.6506 66.3479 32.8485C66.5316 33.0507 66.627 33.3136 66.6143 33.5821C66.6184 33.7643 66.5787 33.9449 66.4981 34.1098C66.4175 34.2746 66.2984 34.4192 66.15 34.5321C65.8167 34.787 65.3991 34.9172 64.9741 34.899C64.6401 34.9122 64.307 34.8577 63.9962 34.7389C63.6855 34.6201 63.4041 34.4397 63.1704 34.2093ZM68.6882 34.7779V28.2449H69.3466V30.8126L69.3161 31.1794H69.3352C69.4856 30.8527 69.7249 30.5713 70.0278 30.3651C70.385 30.1009 70.8258 29.9635 71.2759 29.9763C71.5077 29.9551 71.7414 29.9853 71.9591 30.0648C72.1768 30.1443 72.3727 30.2709 72.5317 30.4348C72.8136 30.8329 72.9477 31.3112 72.9123 31.792V34.7706H72.2577V31.9681C72.2766 31.6151 72.2033 31.2633 72.0446 30.9447C71.952 30.8141 71.8237 30.7107 71.6739 30.646C71.5242 30.5813 71.3588 30.5577 71.196 30.5779C70.9501 30.5743 70.7062 30.6212 70.4805 30.7155C70.2548 30.8097 70.0525 30.9491 69.8869 31.1244C69.5249 31.5015 69.332 32.0012 69.3504 32.5147V34.7742L68.6882 34.7779ZM75.2602 29.0262V28.2449H75.9756V29.0372L75.2602 29.0262ZM75.2907 34.7779V30.0973H75.9452V34.7779H75.2907ZM80.584 32.9732C80.5807 32.5922 80.696 32.2191 80.9151 31.9021C81.1249 31.5858 81.4467 31.3537 81.8208 31.2491C81.5206 31.1358 81.2668 30.9313 81.0979 30.6665C80.929 30.4018 80.8542 30.0913 80.8846 29.7819C80.8746 29.5534 80.9191 29.3258 81.0148 29.1165C81.1105 28.9073 81.2547 28.722 81.4364 28.575C81.8557 28.2573 82.3803 28.097 82.9129 28.1239C83.1702 28.1254 83.4262 28.16 83.674 28.2266L83.4914 28.7548C83.3083 28.7118 83.1204 28.6909 82.932 28.6924C82.5771 28.6788 82.2284 28.7852 81.9464 28.9932C81.8205 29.0926 81.7206 29.219 81.6545 29.3624C81.5884 29.5057 81.558 29.6619 81.5658 29.8185C81.5662 29.9426 81.5842 30.066 81.6191 30.1854C81.6652 30.316 81.7306 30.4395 81.8132 30.5522C81.9264 30.7002 82.0847 30.8104 82.266 30.8676C82.5102 30.951 82.7681 30.9907 83.0271 30.985H84.4808V30.079H85.1467V30.9997H86.0753V31.5756H85.1467V32.5367C85.1939 33.174 84.9793 33.8038 84.5493 34.29C84.3324 34.4954 84.0736 34.655 83.7892 34.7585C83.5049 34.8621 83.2013 34.9074 82.8977 34.8916C82.297 34.914 81.7092 34.7191 81.25 34.3451C81.044 34.1766 80.8795 33.9661 80.7683 33.7289C80.657 33.4916 80.6019 33.2335 80.6069 32.9732H80.584ZM81.2804 32.9365C81.2763 33.1174 81.313 33.297 81.3879 33.4629C81.4628 33.6289 81.5741 33.7771 81.7142 33.8976C82.029 34.1634 82.4377 34.3026 82.8559 34.2864C83.9112 34.2864 84.4389 33.697 84.4389 32.5183V31.5756H83.0081C82.5429 31.5454 82.0816 31.6754 81.7066 31.9424C81.5587 32.0653 81.4418 32.2189 81.3646 32.3918C81.2875 32.5647 81.2522 32.7522 81.2614 32.9402L81.2804 32.9365ZM90.6798 34.7706V28.2449H92.7386C93.1622 28.2258 93.5855 28.2894 93.9829 28.432C94.3083 28.5717 94.581 28.8049 94.7636 29.0997C94.9461 29.3946 95.0297 29.7366 95.0028 30.079C95.0128 30.4897 94.8876 30.8929 94.6451 31.2308C94.4245 31.5498 94.0922 31.7815 93.709 31.8837C93.7796 31.9638 93.8409 32.0511 93.8916 32.1442L95.3719 34.7779H94.6108L93.0887 32.0231H91.3762V34.7779L90.6798 34.7706ZM91.3458 31.4399H92.9593C93.1399 31.4482 93.3202 31.4199 93.4887 31.3567C93.6572 31.2935 93.81 31.1968 93.9373 31.0731C94.1936 30.8036 94.3302 30.4481 94.3178 30.0827C94.3231 29.8394 94.2586 29.5995 94.1314 29.3894C94.011 29.1895 93.8305 29.0296 93.6138 28.9309C93.3293 28.8352 93.0281 28.7941 92.7271 28.8098H91.3724V31.4472L91.3458 31.4399ZM96.8066 32.4083C96.8002 32.0843 96.8647 31.7628 96.9958 31.4645C97.127 31.1661 97.3218 30.8978 97.5677 30.6769C98.0574 30.2268 98.7081 29.9758 99.3848 29.9758C100.061 29.9758 100.712 30.2268 101.202 30.6769C101.448 30.8978 101.643 31.1661 101.774 31.4645C101.905 31.7628 101.969 32.0843 101.963 32.4083C101.963 33.064 101.693 33.6928 101.212 34.1565C100.731 34.6201 100.078 34.8806 99.3981 34.8806C98.7178 34.8806 98.0655 34.6201 97.5844 34.1565C97.1034 33.6928 96.8332 33.064 96.8332 32.4083H96.8066ZM97.4839 32.4083C97.4764 32.658 97.5207 32.9067 97.6141 33.1397C97.7076 33.3728 97.8483 33.5855 98.0281 33.7655C98.3846 34.1071 98.8669 34.2988 99.3695 34.2988C99.8722 34.2988 100.354 34.1071 100.711 33.7655C100.892 33.5863 101.034 33.3738 101.128 33.1406C101.222 32.9074 101.267 32.6584 101.259 32.4083C101.264 32.1629 101.219 31.9189 101.125 31.6908C101.031 31.4627 100.89 31.2551 100.711 31.0804C100.354 30.7388 99.8722 30.5471 99.3695 30.5471C98.8669 30.5471 98.3846 30.7388 98.0281 31.0804C97.8499 31.2554 97.71 31.4631 97.6165 31.6912C97.523 31.9193 97.4779 32.1631 97.4839 32.4083ZM104.025 33.6628V28.2449H104.684V33.5307C104.684 34.0039 104.866 34.2387 105.232 34.2387C105.284 34.2433 105.336 34.2433 105.388 34.2387V34.8073C105.307 34.8148 105.225 34.8148 105.144 34.8073C105.054 34.815 104.964 34.815 104.874 34.8073C104.774 34.7912 104.677 34.7615 104.585 34.7192C104.48 34.6742 104.386 34.6093 104.307 34.5285C104.217 34.4295 104.149 34.3132 104.109 34.1873C104.049 34.025 104.021 33.8534 104.025 33.6811V33.6628ZM107.264 33.6628V28.2449H107.922V33.5307C107.922 34.0039 108.105 34.2387 108.47 34.2387C108.522 34.2433 108.574 34.2433 108.626 34.2387V34.8073C108.547 34.8148 108.466 34.8148 108.387 34.8073C108.297 34.815 108.206 34.815 108.116 34.8073C108.015 34.7912 107.916 34.7616 107.823 34.7192C107.718 34.6742 107.624 34.6093 107.545 34.5285C107.457 34.4286 107.389 34.3126 107.348 34.1873C107.29 34.0245 107.261 33.8532 107.264 33.6811V33.6628ZM110.08 34.202L110.426 33.7582C110.617 33.9455 110.846 34.0925 111.099 34.1898C111.352 34.287 111.623 34.3324 111.895 34.3231C112.145 34.3326 112.391 34.2631 112.595 34.125C112.684 34.0609 112.755 33.9771 112.803 33.8806C112.851 33.7841 112.874 33.6779 112.869 33.5711C112.869 33.475 112.845 33.3804 112.799 33.2953C112.752 33.2103 112.685 33.1375 112.603 33.0832C112.407 32.9382 112.189 32.8243 111.956 32.7457C111.705 32.6577 111.45 32.5587 111.195 32.4523C110.946 32.3523 110.724 32.1978 110.548 32.0011C110.365 31.7985 110.27 31.5359 110.282 31.2675C110.274 31.0824 110.313 30.8983 110.395 30.7309C110.477 30.5635 110.6 30.4179 110.753 30.3064C111.096 30.0685 111.511 29.9472 111.933 29.9616C112.482 29.936 113.02 30.1206 113.429 30.4751L113.12 30.9483C112.966 30.8072 112.782 30.7007 112.58 30.6365C112.363 30.5612 112.134 30.5227 111.903 30.5228C111.658 30.5141 111.417 30.5768 111.21 30.7026C111.125 30.7621 111.056 30.8402 111.008 30.9304C110.961 31.0206 110.936 31.1204 110.936 31.2216C110.936 31.3228 110.961 31.4226 111.008 31.5128C111.056 31.603 111.125 31.6811 111.21 31.7407C111.407 31.8861 111.627 32.0012 111.861 32.0818C112.12 32.1698 112.375 32.2689 112.622 32.3753C112.872 32.4739 113.094 32.6286 113.269 32.8264C113.453 33.0287 113.548 33.2916 113.535 33.5601C113.539 33.7421 113.498 33.9225 113.418 34.0872C113.337 34.2519 113.219 34.3966 113.071 34.5101C112.737 34.7655 112.318 34.8958 111.891 34.877C111.56 34.8927 111.229 34.8415 110.92 34.7265C110.611 34.6115 110.33 34.4353 110.095 34.2093L110.08 34.202Z" fill="#203842"/>
<path class="logo-color-control"  fill-rule="evenodd" clip-rule="evenodd" d="M8.41358 7.36637C8.91331 7.36637 9.40816 7.27149 9.86985 7.08715C10.3315 6.90281 10.7511 6.63261 11.1044 6.29199C11.4578 5.95137 11.7381 5.54699 11.9293 5.10195C12.1206 4.65691 12.219 4.17991 12.219 3.6982C12.219 2.72534 11.8181 1.79233 11.1044 1.10441C10.3908 0.416496 9.42284 0.0300293 8.41358 0.0300293C7.40431 0.0300293 6.43639 0.416496 5.72273 1.10441C5.00907 1.79233 4.60815 2.72534 4.60815 3.6982C4.60254 4.18141 4.69714 4.66084 4.88639 5.10832C5.07565 5.5558 5.35574 5.96233 5.71023 6.30404C6.06472 6.64574 6.48646 6.91573 6.95069 7.09816C7.41492 7.28059 7.91228 7.37178 8.41358 7.36637Z" fill="#203842"/>
<path class="logo-color-control"  fill-rule="evenodd" clip-rule="evenodd" d="M18.2661 7.36637C18.7659 7.36637 19.2607 7.27149 19.7224 7.08715C20.1841 6.90281 20.6036 6.63261 20.957 6.29199C21.3103 5.95137 21.5906 5.54699 21.7819 5.10195C21.9731 4.65691 22.0715 4.17991 22.0715 3.6982C22.0715 2.72534 21.6706 1.79233 20.957 1.10441C20.2433 0.416496 19.2754 0.0300293 18.2661 0.0300293C17.2569 0.0300293 16.2889 0.416496 15.5753 1.10441C14.8616 1.79233 14.4607 2.72534 14.4607 3.6982C14.4551 4.18141 14.5497 4.66084 14.7389 5.10832C14.9282 5.5558 15.2083 5.96233 15.5628 6.30404C15.9173 6.64574 16.339 6.91573 16.8032 7.09816C17.2675 7.28059 17.7648 7.37178 18.2661 7.36637Z" fill="#203842"/>
</svg>
