<svg width="16" height="16" viewBox="0 0 16 16" fill="none" xmlns="http://www.w3.org/2000/svg">
    <path d="M14.3337 5.65867V11.25C14.3337 12.2167 13.5503 13 12.5837 13H3.41699C2.95286 13 2.50774 12.8156 2.17956 12.4874C1.85137 12.1592 1.66699 11.7141 1.66699 11.25V5.65867L7.79966 9.032C7.92466 9.10067 8.07633 9.10067 8.20099 9.032L14.3337 5.65833V5.65867ZM12.5837 3C13.0405 3.00004 13.4792 3.17872 13.8061 3.49786C14.1329 3.817 14.322 4.2513 14.333 4.708L8.00033 8.19133L1.66766 4.70767L1.66833 4.67767C1.68699 4.22642 1.87939 3.79986 2.2053 3.48719C2.5312 3.17452 2.96536 2.99996 3.41699 3H12.5837Z" fill="#203842"/>
</svg>
