<svg width="24" height="16" viewBox="0 0 24 16" fill="none" xmlns="http://www.w3.org/2000/svg">
<path d="M22.9714 6.4H1.02857C0.0822855 6.4 0 7.1152 0 8C0 8.8848 0.0822855 9.6 1.02857 9.6H22.9714C23.9177 9.6 24 8.8848 24 8C24 7.1152 23.9177 6.4 22.9714 6.4ZM22.9714 12.8H1.02857C0.0822855 12.8 0 13.5152 0 14.4C0 15.2848 0.0822855 16 1.02857 16H22.9714C23.9177 16 24 15.2848 24 14.4C24 13.5152 23.9177 12.8 22.9714 12.8ZM1.02857 3.2H22.9714C23.9177 3.2 24 2.4848 24 1.6C24 0.7152 23.9177 0 22.9714 0H1.02857C0.0822855 0 0 0.7152 0 1.6C0 2.4848 0.0822855 3.2 1.02857 3.2Z" fill="#203842"/>
</svg>
