<svg width="16" height="16" viewBox="0 0 16 16" fill="none" xmlns="http://www.w3.org/2000/svg">
    <path d="M8 10C9.10457 10 10 9.10457 10 8C10 6.89543 9.10457 6 8 6C6.89543 6 6 6.89543 6 8C6 9.10457 6.89543 10 8 10Z" fill="#F52341"/>
    <path d="M13.333 2.66659H11.2197L10.393 1.76659C10.2688 1.63018 10.1174 1.52119 9.9487 1.44658C9.77996 1.37196 9.59751 1.33337 9.41301 1.33325H6.58634C6.21301 1.33325 5.85301 1.49325 5.59967 1.76659L4.77967 2.66659H2.66634C1.93301 2.66659 1.33301 3.26659 1.33301 3.99992V11.9999C1.33301 12.7333 1.93301 13.3333 2.66634 13.3333H13.333C14.0663 13.3333 14.6663 12.7333 14.6663 11.9999V3.99992C14.6663 3.26659 14.0663 2.66659 13.333 2.66659ZM7.99967 11.3333C6.15967 11.3333 4.66634 9.83992 4.66634 7.99992C4.66634 6.15992 6.15967 4.66659 7.99967 4.66659C9.83967 4.66659 11.333 6.15992 11.333 7.99992C11.333 9.83992 9.83967 11.3333 7.99967 11.3333Z" fill="#F52341"/>
</svg>
