<svg width="16" height="16" viewBox="0 0 16 16" fill="none" xmlns="http://www.w3.org/2000/svg">
    <path d="M7.33333 11.9999C7.33333 12.3681 7.63181 12.6665 8 12.6665C8.36819 12.6665 8.66667 12.3681 8.66667 11.9999H7.33333ZM8.66667 3.99988C8.66667 3.63169 8.36819 3.33321 8 3.33321C7.63181 3.33321 7.33333 3.63169 7.33333 3.99988H8.66667ZM12 8.66654C12.3682 8.66654 12.6667 8.36807 12.6667 7.99988C12.6667 7.63169 12.3682 7.33321 12 7.33321V8.66654ZM4 7.33321C3.63181 7.33321 3.33333 7.63169 3.33333 7.99988C3.33333 8.36807 3.63181 8.66654 4 8.66654V7.33321ZM8.66667 11.9999V7.99988H7.33333V11.9999H8.66667ZM8.66667 7.99988V3.99988H7.33333V7.99988H8.66667ZM8 8.66654H12V7.33321H8V8.66654ZM8 7.33321H4V8.66654H8V7.33321Z" fill="#7C909C"/>
</svg>
