<svg width="32" height="40" viewBox="0 0 32 40" fill="none" xmlns="http://www.w3.org/2000/svg">
<path fill-rule="evenodd" clip-rule="evenodd" d="M14.948 39.6996L16 37.9996L14.948 39.6996ZM16 37.9996L17.05 39.6996C16.406 40.0996 15.59 40.0996 14.948 39.6996L14.942 39.6976L14.93 39.6896L14.89 39.6636C14.6795 39.5311 14.4721 39.3937 14.268 39.2516C13.6954 38.8575 13.1345 38.4467 12.586 38.0196C10.7708 36.6097 9.07752 35.0495 7.524 33.3556C3.866 29.3536 0 23.3896 0 15.9996C0 6.92158 7.184 -0.000419617 16 -0.000419617C24.816 -0.000419617 32 6.92158 32 15.9996C32 23.3896 28.134 29.3536 24.476 33.3556C22.9231 35.0494 21.2305 36.6096 19.416 38.0196C18.7125 38.5653 17.9886 39.0844 17.246 39.5756C17.2008 39.6051 17.1555 39.6345 17.11 39.6636L17.07 39.6896L17.058 39.6976H17.054C17.054 39.6996 17.05 39.7016 16 37.9996ZM10 15.9996C10 14.4083 10.6321 12.8822 11.7574 11.7569C12.8826 10.6317 14.4087 9.99958 16 9.99958C17.5913 9.99958 19.1174 10.6317 20.2426 11.7569C21.3679 12.8822 22 14.4083 22 15.9996C22 17.5909 21.3679 19.117 20.2426 20.2422C19.1174 21.3674 17.5913 21.9996 16 21.9996C14.4087 21.9996 12.8826 21.3674 11.7574 20.2422C10.6321 19.117 10 17.5909 10 15.9996Z" fill="white"/>
</svg>
