<svg width="12" height="14" viewBox="0 0 12 14" fill="none" xmlns="http://www.w3.org/2000/svg">
<path fill-rule="evenodd" clip-rule="evenodd" d="M5.65064 13.5663L6.0013 12.9997L5.65064 13.5663ZM6.0013 12.9997L6.3513 13.5663C6.13664 13.6997 5.86464 13.6997 5.65064 13.5663L5.64864 13.5657L5.64464 13.563L5.6313 13.5543C5.56113 13.5102 5.492 13.4644 5.42397 13.417C5.23309 13.2857 5.04612 13.1487 4.8633 13.0063C4.25825 12.5364 3.69381 12.0163 3.17597 11.4517C1.95664 10.1177 0.667969 8.12968 0.667969 5.66634C0.667969 2.64034 3.06264 0.333008 6.0013 0.333008C8.93997 0.333008 11.3346 2.64034 11.3346 5.66634C11.3346 8.12968 10.046 10.1177 8.82664 11.4517C8.309 12.0163 7.74479 12.5363 7.13997 13.0063C6.90546 13.1883 6.66418 13.3613 6.41664 13.525C6.40157 13.5349 6.38646 13.5446 6.3713 13.5543L6.35797 13.563L6.35397 13.5657H6.35264C6.35264 13.5663 6.3513 13.567 6.0013 12.9997ZM4.0013 5.66634C4.0013 5.13591 4.21202 4.6272 4.58709 4.25213C4.96216 3.87706 5.47087 3.66634 6.0013 3.66634C6.53174 3.66634 7.04044 3.87706 7.41552 4.25213C7.79059 4.6272 8.0013 5.13591 8.0013 5.66634C8.0013 6.19677 7.79059 6.70548 7.41552 7.08056C7.04044 7.45563 6.53174 7.66634 6.0013 7.66634C5.47087 7.66634 4.96216 7.45563 4.58709 7.08056C4.21202 6.70548 4.0013 6.19677 4.0013 5.66634Z" fill="#203842"/>
</svg>
