<svg width="16" height="16" viewBox="0 0 16 16" fill="none" xmlns="http://www.w3.org/2000/svg">
    <path d="M11.7843 7.62832C11.874 7.55831 11.9405 7.46063 11.9746 7.34899C12.0086 7.23735 12.0085 7.11734 11.9741 7.0058C11.9398 6.89425 11.873 6.79676 11.7831 6.727C11.6933 6.65723 11.5848 6.61869 11.473 6.61678L9.30085 6.5308C9.29017 6.53002 9.27993 6.52603 9.27137 6.5193C9.26281 6.51257 9.25628 6.50339 9.25258 6.49286L8.502 4.36862C8.46429 4.26055 8.39579 4.16723 8.30579 4.10129C8.21578 4.03536 8.10861 4 7.99879 4C7.88897 4 7.78181 4.03536 7.6918 4.10129C7.6018 4.16723 7.5333 4.26055 7.49559 4.36862L6.74742 6.50045C6.74372 6.51098 6.73719 6.52016 6.72863 6.52689C6.72007 6.53362 6.70983 6.53761 6.69915 6.53838L4.52704 6.62437C4.4152 6.62628 4.30674 6.66482 4.21686 6.73458C4.12698 6.80435 4.06019 6.90184 4.02586 7.01338C3.99153 7.12493 3.99138 7.24493 4.02542 7.35657C4.05947 7.46821 4.126 7.56589 4.2157 7.63591L5.9196 9.03943C5.92813 9.04646 5.9345 9.05596 5.93793 9.06674C5.94137 9.07753 5.9417 9.08913 5.93891 9.10012L5.35244 11.2775C5.32205 11.3883 5.32499 11.5063 5.36087 11.6154C5.39675 11.7245 5.46382 11.8193 5.55296 11.887C5.6421 11.9547 5.74898 11.992 5.85906 11.9938C5.96914 11.9956 6.07708 11.9618 6.16819 11.897L7.96863 10.6326C7.97749 10.6262 7.98802 10.6228 7.99879 10.6228C8.00957 10.6228 8.02009 10.6262 8.02896 10.6326L9.8294 11.897C9.91928 11.964 10.0268 12 10.1371 12C10.2474 12 10.355 11.964 10.4448 11.897C10.534 11.83 10.6011 11.7356 10.637 11.6269C10.6729 11.5182 10.6757 11.4006 10.6451 11.2901L10.0539 9.10518C10.0507 9.09421 10.0509 9.0825 10.0543 9.07163C10.0578 9.06077 10.0644 9.05129 10.0732 9.04449L11.7843 7.62832Z" fill="#FCAA2F"/>
</svg>
