<svg width="18" height="18" viewBox="0 0 18 18" fill="none" xmlns="http://www.w3.org/2000/svg">
<path d="M10.5162 17.3337H7.48283C7.29277 17.3337 7.10841 17.2688 6.96033 17.1496C6.81225 17.0305 6.70934 16.8643 6.66866 16.6787L6.3295 15.1087C5.87705 14.9104 5.44802 14.6625 5.05033 14.3695L3.5195 14.857C3.3383 14.9148 3.14279 14.9088 2.96543 14.8402C2.78807 14.7715 2.63954 14.6442 2.5445 14.4795L1.0245 11.8537C0.930451 11.6888 0.895149 11.4968 0.924365 11.3093C0.953582 11.1217 1.04559 10.9496 1.18533 10.8212L2.37283 9.73783C2.31883 9.24708 2.31883 8.7519 2.37283 8.26116L1.18533 7.18033C1.04539 7.0518 0.953259 6.87955 0.924038 6.69181C0.894816 6.50407 0.930238 6.31197 1.0245 6.14699L2.54116 3.51949C2.63621 3.35476 2.78474 3.22748 2.9621 3.15882C3.13945 3.09015 3.33497 3.08421 3.51616 3.14199L5.047 3.62949C5.25033 3.47949 5.462 3.33949 5.68033 3.21283C5.89116 3.09449 6.10783 2.98699 6.3295 2.89116L6.6695 1.32283C6.70997 1.13716 6.81269 0.970899 6.96062 0.851616C7.10855 0.732334 7.2928 0.667192 7.48283 0.666992H10.5162C10.7062 0.667192 10.8904 0.732334 11.0384 0.851616C11.1863 0.970899 11.289 1.13716 11.3295 1.32283L11.6728 2.89199C11.9062 2.99533 12.1345 3.11116 12.3553 3.24033C12.5612 3.35949 12.7603 3.49033 12.952 3.63116L14.4837 3.14366C14.6647 3.08609 14.8601 3.09213 15.0372 3.16079C15.2144 3.22945 15.3628 3.3566 15.4578 3.52116L16.9745 6.14866C17.1678 6.48783 17.1012 6.91699 16.8137 7.18116L15.6262 8.26449C15.6802 8.75523 15.6802 9.25042 15.6262 9.74116L16.8137 10.8245C17.1012 11.0895 17.1678 11.5178 16.9745 11.857L15.4578 14.4845C15.3628 14.6492 15.2143 14.7765 15.0369 14.8452C14.8595 14.9138 14.664 14.9198 14.4828 14.862L12.952 14.3745C12.5546 14.6673 12.1259 14.9149 11.6737 15.1128L11.3295 16.6787C11.2889 16.8642 11.1861 17.0302 11.0382 17.1494C10.8902 17.2685 10.7061 17.3335 10.5162 17.3337ZM8.99616 5.66699C8.11211 5.66699 7.26426 6.01818 6.63914 6.6433C6.01402 7.26842 5.66283 8.11627 5.66283 9.00033C5.66283 9.88438 6.01402 10.7322 6.63914 11.3573C7.26426 11.9825 8.11211 12.3337 8.99616 12.3337C9.88022 12.3337 10.7281 11.9825 11.3532 11.3573C11.9783 10.7322 12.3295 9.88438 12.3295 9.00033C12.3295 8.11627 11.9783 7.26842 11.3532 6.6433C10.7281 6.01818 9.88022 5.66699 8.99616 5.66699Z" fill="#203842"/>
</svg>
