<svg width="68" height="5" viewBox="0 0 68 5" fill="none" xmlns="http://www.w3.org/2000/svg">
    <path d="M4 2.5C4 3.60457 3.10457 4.5 2 4.5C0.89543 4.5 0 3.60457 0 2.5C0 1.39543 0.89543 0.5 2 0.5C3.10457 0.5 4 1.39543 4 2.5Z" fill="#C8D2D9"/>
    <path d="M12 2.5C12 3.60457 11.1046 4.5 10 4.5C8.89543 4.5 8 3.60457 8 2.5C8 1.39543 8.89543 0.5 10 0.5C11.1046 0.5 12 1.39543 12 2.5Z" fill="#C8D2D9"/>
    <path d="M20 2.5C20 3.60457 19.1046 4.5 18 4.5C16.8954 4.5 16 3.60457 16 2.5C16 1.39543 16.8954 0.5 18 0.5C19.1046 0.5 20 1.39543 20 2.5Z" fill="#C8D2D9"/>
    <path d="M28 2.5C28 3.60457 27.1046 4.5 26 4.5C24.8954 4.5 24 3.60457 24 2.5C24 1.39543 24.8954 0.5 26 0.5C27.1046 0.5 28 1.39543 28 2.5Z" fill="#C8D2D9"/>
    <path d="M36 2.5C36 3.60457 35.1046 4.5 34 4.5C32.8954 4.5 32 3.60457 32 2.5C32 1.39543 32.8954 0.5 34 0.5C35.1046 0.5 36 1.39543 36 2.5Z" fill="#C8D2D9"/>
    <path d="M44 2.5C44 3.60457 43.1046 4.5 42 4.5C40.8954 4.5 40 3.60457 40 2.5C40 1.39543 40.8954 0.5 42 0.5C43.1046 0.5 44 1.39543 44 2.5Z" fill="#C8D2D9"/>
    <path d="M52 2.5C52 3.60457 51.1046 4.5 50 4.5C48.8954 4.5 48 3.60457 48 2.5C48 1.39543 48.8954 0.5 50 0.5C51.1046 0.5 52 1.39543 52 2.5Z" fill="#C8D2D9"/>
    <path d="M60 2.5C60 3.60457 59.1046 4.5 58 4.5C56.8954 4.5 56 3.60457 56 2.5C56 1.39543 56.8954 0.5 58 0.5C59.1046 0.5 60 1.39543 60 2.5Z" fill="#C8D2D9"/>
    <path d="M68 2.5C68 3.60457 67.1046 4.5 66 4.5C64.8954 4.5 64 3.60457 64 2.5C64 1.39543 64.8954 0.5 66 0.5C67.1046 0.5 68 1.39543 68 2.5Z" fill="#C8D2D9"/>
</svg>
