<svg width="16" height="16" viewBox="0 0 16 16" fill="none" xmlns="http://www.w3.org/2000/svg">
    <path fill-rule="evenodd" clip-rule="evenodd" d="M7.99984 0.666626C3.94984 0.666626 0.666504 3.94996 0.666504 7.99996C0.666504 12.05 3.94984 15.3333 7.99984 15.3333C12.0498 15.3333 15.3332 12.05 15.3332 7.99996C15.3332 3.94996 12.0498 0.666626 7.99984 0.666626ZM11.1785 6.75996C11.237 6.69305 11.2816 6.61512 11.3096 6.53074C11.3375 6.44636 11.3483 6.35724 11.3414 6.26862C11.3344 6.18 11.3097 6.09367 11.2689 6.01471C11.228 5.93575 11.1718 5.86576 11.1035 5.80885C11.0352 5.75195 10.9563 5.70927 10.8712 5.68333C10.7862 5.6574 10.6969 5.64873 10.6084 5.65784C10.52 5.66695 10.4343 5.69366 10.3563 5.73638C10.2784 5.77911 10.2098 5.83699 10.1545 5.90663L7.28784 9.34596L5.8045 7.86196C5.67877 7.74052 5.51037 7.67332 5.33557 7.67484C5.16077 7.67636 4.99356 7.74648 4.86996 7.87008C4.74635 7.99369 4.67624 8.16089 4.67472 8.33569C4.6732 8.51049 4.7404 8.67889 4.86184 8.80463L6.86184 10.8046C6.92734 10.8701 7.00577 10.9212 7.09211 10.9547C7.17846 10.9881 7.27084 11.0033 7.36335 10.9991C7.45586 10.9949 7.54649 10.9714 7.62945 10.9303C7.7124 10.8891 7.78587 10.8311 7.84517 10.76L11.1785 6.75996Z" fill="#44C568"/>
</svg>
