<svg width="16" height="16" viewBox="0 0 16 16"  fill="none" xmlns="http://www.w3.org/2000/svg">
    <path d="M9.60039 3.19998H12.0004C12.4804 3.19998 12.8004 3.51998 12.8004 3.99998V4.79998H2.40039V3.99998C2.40039 3.51998 2.80039 3.19998 3.20039 3.19998H5.60039C5.76039 2.31998 6.64039 1.59998 7.60039 1.59998C8.56039 1.59998 9.44039 2.31998 9.60039 3.19998ZM6.40039 3.19998H8.80039C8.64039 2.71998 8.08039 2.39998 7.60039 2.39998C7.12039 2.39998 6.56039 2.71998 6.40039 3.19998ZM3.20039 5.59998H12.0004L11.2804 13.68C11.2804 14.08 10.8804 14.4 10.4804 14.4H4.72039C4.32039 14.4 4.00039 14.08 3.92039 13.68L3.20039 5.59998Z" fill="#203842"/>
</svg>
