<svg width="36" height="36" viewBox="0 0 36 36" fill="none" xmlns="http://www.w3.org/2000/svg">
<path d="M18 19.25C21.1055 19.25 23.625 16.7305 23.625 13.625C23.625 10.5195 21.1055 8 18 8C14.8945 8 12.375 10.5195 12.375 13.625C12.375 16.7305 14.8945 19.25 18 19.25ZM23 20.5H20.8477C19.9805 20.8984 19.0156 21.125 18 21.125C16.9844 21.125 16.0234 20.8984 15.1523 20.5H13C10.2383 20.5 8 22.7383 8 25.5V26.125C8 27.1602 8.83984 28 9.875 28H26.125C27.1602 28 28 27.1602 28 26.125V25.5C28 22.7383 25.7617 20.5 23 20.5Z" fill="white"/>
</svg>
