<svg width="46" height="29" viewBox="0 0 46 29" fill="none" xmlns="http://www.w3.org/2000/svg">
    <rect width="46" height="29" rx="2" fill="white"/>
    <path d="M19.0998 6.6939H19.0564V12.3276C19.0564 12.7976 19.4488 13.1822 19.9285 13.1822H20.6804V15.1458C20.6804 15.6175 21.0709 16 21.5524 16C22.0338 16 22.4241 15.6175 22.4243 15.1458V13.1822H23.5992V15.1458C23.5992 15.6175 23.9899 16 24.4714 16C24.9529 16 25.3431 15.6175 25.3434 15.1458V13.1822H26.0761C26.5558 13.1822 26.9481 12.7976 26.9481 12.3276V6.6939H19.0998ZM20.8369 4.66434C20.8369 4.86492 21.0027 5.02755 21.2074 5.02755C21.4121 5.02755 21.5781 4.86492 21.5781 4.66434C21.5781 4.46375 21.4121 4.30112 21.2074 4.30112C21.0027 4.30112 20.8369 4.46375 20.8369 4.66434ZM24.4267 4.66434C24.4267 4.86492 24.5926 5.02755 24.7973 5.02755C25.0019 5.02755 25.1679 4.86492 25.1679 4.66434C25.1679 4.46375 25.0019 4.30112 24.7973 4.30112C24.5926 4.30112 24.4267 4.46375 24.4267 4.66434ZM19.0663 6.39494C19.0648 6.35593 19.0637 6.31693 19.0637 6.27775C19.0637 6.01569 19.0974 5.76061 19.1609 5.51544C19.4057 4.57048 20.0958 3.77283 21.0286 3.29939L20.4234 2.20521C20.3861 2.13765 20.4117 2.05338 20.4805 2.01681C20.5493 1.98025 20.6353 2.00531 20.6726 2.0727L21.2849 3.17995C21.8058 2.95846 22.391 2.83431 23.0095 2.83431C23.6234 2.83431 24.2043 2.95672 24.7222 3.17507L25.332 2.0727C25.3693 2.00532 25.4553 1.98025 25.524 2.01681C25.5928 2.05338 25.6184 2.13765 25.5811 2.20521L24.9791 3.29348C25.9577 3.78642 26.6711 4.63543 26.8869 5.6375C26.9115 5.75086 26.9294 5.86613 26.9408 5.98296V6.39494H19.0663ZM29 7.39892C29 6.92722 28.6095 6.54467 28.128 6.54467C27.6465 6.54467 27.2562 6.92722 27.256 7.39892V10.9886C27.256 11.4605 27.6465 11.843 28.128 11.843C28.6095 11.843 28.9998 11.4605 29 10.9886V7.39892ZM18.744 7.39892V10.9886C18.744 11.4605 18.3535 11.843 17.8719 11.843C17.3905 11.843 17.0002 11.4605 17 10.9886V7.39892C17 6.92722 17.3905 6.54467 17.8719 6.54467C18.3535 6.54467 18.7438 6.92722 18.744 7.39892Z" fill="#6EC848"/>
    <path d="M33 18.1287H31.9365L29.6267 24.0858H30.0987L27.7955 18.1356H26.7004L29.3121 24.6619L29.1044 25.1701C28.8716 25.7326 28.431 25.9765 28.0094 25.9765H27.6632V27H27.9968C28.9344 27 29.6771 26.4579 30.0735 25.4278L33 18.1287ZM26.134 24.9126V18.1356H25.1901V18.9083C24.6613 18.3388 23.9314 18 23.1006 18C21.3008 18 19.8848 19.5723 19.8848 21.5173C19.8848 23.4692 21.3008 25.0482 23.1006 25.0482C23.9314 25.0482 24.6613 24.7025 25.1901 24.14V24.9126H26.134ZM23.17 24.0588C21.8798 24.0588 20.8351 22.9202 20.8351 21.5173C20.8351 20.1214 21.8798 18.9827 23.17 18.9827C23.9754 18.9827 24.7369 19.3894 25.1271 20.0873C25.1459 20.128 25.1901 20.1958 25.1901 20.311V22.7168C25.1837 22.8389 25.1459 22.9135 25.1209 22.9473C24.6991 23.625 23.9754 24.0588 23.17 24.0588ZM13.944 26.9457V24.14C14.4727 24.7094 15.2027 25.0549 16.0334 25.0549C17.827 25.0549 19.2492 23.4759 19.2492 21.531C19.2492 19.5791 17.827 18 16.0334 18C15.2027 18 14.4727 18.3457 13.944 18.9083V18.1356H13V26.9457H13.944ZM15.9642 24.0655C15.1586 24.0655 14.4097 23.6522 14.0069 22.9609C13.9818 22.9202 13.944 22.8524 13.944 22.7372V20.3043C13.9503 20.189 13.988 20.1144 14.0132 20.0807C14.4349 19.403 15.1586 18.9894 15.9642 18.9894C17.248 18.9894 18.2927 20.128 18.2927 21.531C18.2927 22.9269 17.248 24.0655 15.9642 24.0655Z" fill="#7B7979"/>
</svg>
