<svg width="48" height="29" viewBox="0 0 48 29" fill="none" xmlns="http://www.w3.org/2000/svg">
    <rect width="48" height="29" rx="2" fill="white"/>
    <path fill-rule="evenodd" clip-rule="evenodd" d="M13.1749 8.11442C13.6427 7.55425 13.9584 6.77584 13.8726 6C13.1966 6.0274 12.3792 6.44609 11.8978 7.00418C11.4618 7.49945 11.0846 8.2926 11.1887 9.05307C11.9405 9.11043 12.7071 8.67444 13.1749 8.11442ZM15.1171 13.0374C15.1021 11.3596 16.503 10.5525 16.5679 10.5125C15.7776 9.37754 14.5519 9.22003 14.1153 9.20256C13.0707 9.10049 12.075 9.81016 11.547 9.81016C11.0171 9.81016 10.2018 9.21858 9.33371 9.23669C8.19517 9.25255 7.1454 9.89028 6.55934 10.8964C5.37959 12.9278 6.25982 15.9281 7.41165 17.5712C7.97564 18.3755 8.64608 19.2794 9.52971 19.2467C10.3802 19.214 10.6992 18.7034 11.7269 18.7034C12.7524 18.7021 13.0425 19.2454 13.9381 19.2301C14.8521 19.2107 15.4322 18.4089 15.9926 17.6005C16.6369 16.6691 16.904 15.7646 16.9174 15.7192C16.8991 15.707 15.1373 15.0435 15.1171 13.0374ZM25.9984 8.11362C25.6577 7.78931 25.2183 7.53695 24.6924 7.36326C24.1711 7.19181 23.5451 7.10496 22.8319 7.10496C22.3751 7.10288 21.9186 7.12627 21.4644 7.17514C21.0857 7.2168 20.7083 7.2692 20.3327 7.33201L20.2225 7.35076V19.1453H21.3129V14.1763C21.68 14.2383 22.1004 14.271 22.5642 14.271C23.1814 14.271 23.7595 14.193 24.2827 14.04C24.7861 13.8988 25.255 13.6572 25.6604 13.3305C26.051 13.0081 26.3651 12.6049 26.5806 12.1494C26.8037 11.6822 26.9171 11.1326 26.9171 10.5144C26.9171 10.0031 26.8353 9.54305 26.6758 9.14728C26.5217 8.76176 26.2913 8.41037 25.9984 8.11362ZM24.9965 12.6187C24.4369 13.0821 23.6446 13.317 22.6393 13.317C22.3628 13.317 22.1013 13.305 21.8611 13.283C21.6766 13.2665 21.4935 13.2361 21.3135 13.1922V8.17659C21.4576 8.15048 21.6361 8.1258 21.8455 8.10369C22.1113 8.07565 22.431 8.06155 22.7975 8.06155C23.2182 8.05754 23.6375 8.11122 24.0434 8.2213C24.3892 8.3152 24.7142 8.47238 25.0014 8.68453C25.2629 8.88482 25.4685 9.1452 25.6111 9.45893C25.755 9.77667 25.8274 10.1559 25.8274 10.5852C25.8268 11.4764 25.5469 12.1608 24.9965 12.6187ZM33.4348 18.0411C33.4226 17.7072 33.4179 17.3722 33.4179 17.0382V13.7596C33.4179 13.371 33.3779 12.9746 33.3001 12.5806C33.2253 12.1888 33.0717 11.8156 32.8486 11.4831C32.6269 11.1547 32.3166 10.8837 31.9284 10.6767C31.5405 10.4703 31.0362 10.3663 30.4286 10.3663C29.985 10.3663 29.5518 10.4231 29.1427 10.5359C28.7131 10.6578 28.307 10.8486 27.9399 11.1007L27.8514 11.1614L28.2198 12.0126L28.353 11.9238C28.6438 11.731 28.9618 11.5815 29.2969 11.4804C29.6353 11.376 29.9879 11.3223 30.3426 11.3216C30.7969 11.3216 31.16 11.403 31.4188 11.5633C31.6818 11.7254 31.8798 11.9265 32.0076 12.1614C32.1408 12.4037 32.228 12.6615 32.2666 12.9291C32.3078 13.2076 32.3274 13.4566 32.3274 13.6702V13.765C30.7111 13.7576 29.4489 14.0233 28.6107 14.5569C27.7311 15.1163 27.2849 15.9128 27.2849 16.9235C27.2849 17.2145 27.3377 17.5077 27.4418 17.7974C27.5471 18.0905 27.7074 18.3528 27.9169 18.5771C28.128 18.804 28.4004 18.9891 28.7262 19.1273C29.0507 19.2667 29.4327 19.3369 29.8592 19.3369C30.4631 19.3469 31.0576 19.1863 31.5723 18.8742C31.7969 18.7373 31.9961 18.5819 32.1666 18.4142C32.2392 18.3422 32.3084 18.2669 32.3742 18.1885H32.416L32.5161 19.1459H33.5672L33.5382 18.9923C33.4804 18.6782 33.4458 18.3602 33.4348 18.0411ZM32.3274 16.3614C32.3274 16.4761 32.2997 16.6337 32.247 16.8226C32.1764 17.027 32.0776 17.2209 31.9536 17.3988C31.6774 17.7981 31.2762 18.0971 30.8118 18.2499C30.5298 18.3416 30.2344 18.386 29.9376 18.3816C29.7419 18.3816 29.5477 18.3489 29.3631 18.2847C29.1838 18.2232 29.0192 18.1259 28.8797 17.999C28.7334 17.8623 28.6178 17.697 28.5403 17.5136C28.4544 17.318 28.4111 17.0757 28.4111 16.7939C28.4111 16.3326 28.5369 15.9581 28.7837 15.6844C29.0494 15.3927 29.383 15.1693 29.7559 15.0334C30.1781 14.8767 30.62 14.7772 31.0693 14.7378C31.4874 14.6979 31.9074 14.6799 32.3274 14.6836V16.3614ZM40.8352 10.5578L38.8004 16.0209C38.6733 16.3507 38.5549 16.6832 38.4468 17.007C38.3941 17.1685 38.3439 17.3214 38.2946 17.4669H38.2562C38.2054 17.3074 38.1535 17.1483 38.1006 16.9895C37.9953 16.6691 37.8817 16.3547 37.7654 16.0549L35.5892 10.5578H34.4259L37.5388 18.4609C37.6206 18.6513 37.6328 18.7388 37.6328 18.774C37.6328 18.7848 37.6289 18.8495 37.5375 19.0899C37.3675 19.5186 37.1457 19.9258 36.8772 20.3022C36.6276 20.6374 36.3992 20.9098 36.1956 21.1107C35.959 21.3443 35.715 21.536 35.4669 21.6808C35.2134 21.8284 34.9822 21.9479 34.7773 22.0381L34.6598 22.09L35.039 23L35.1594 22.9559C35.2579 22.9192 35.4433 22.8358 35.7244 22.7004C36.0083 22.5621 36.3228 22.3432 36.658 22.0466C36.9552 21.7883 37.219 21.4948 37.4436 21.1727C37.6734 20.847 37.9033 20.4645 38.1291 20.0399C38.3521 19.6159 38.5752 19.1339 38.7929 18.6058C39.0106 18.0751 39.2445 17.4816 39.4859 16.844L42 10.5578H40.8352Z" fill="black"/>
</svg>
