<svg width="48" height="29" viewBox="0 0 48 29" fill="none" xmlns="http://www.w3.org/2000/svg">
    <rect width="48" height="29" rx="2" fill="white"/>
    <path fill-rule="evenodd" clip-rule="evenodd" d="M34.5834 22.9637V23.0083H34.6245C34.6322 23.0085 34.6398 23.0065 34.6465 23.0027C34.652 22.9987 34.6551 22.9923 34.6547 22.9855C34.655 22.9789 34.652 22.9726 34.6465 22.9689C34.6399 22.9648 34.6322 22.9629 34.6245 22.9631H34.5834V22.9637ZM34.6249 22.932C34.6425 22.9309 34.66 22.936 34.6742 22.9465C34.6859 22.9562 34.6923 22.9709 34.6916 22.9861C34.6921 22.9992 34.687 23.0119 34.6777 23.0209C34.6667 23.0306 34.6528 23.0364 34.6382 23.0375L34.6933 23.1013H34.6509L34.6002 23.038H34.5838V23.1013H34.5483V22.9321H34.6255L34.6249 22.932ZM34.6139 23.1596C34.6325 23.1598 34.651 23.156 34.668 23.1485C34.6845 23.1413 34.6994 23.131 34.7121 23.1182C34.7247 23.1053 34.7349 23.0902 34.742 23.0734C34.7564 23.038 34.7564 22.9982 34.742 22.9627C34.7348 22.946 34.7247 22.9309 34.7121 22.918C34.6994 22.9051 34.6845 22.8948 34.668 22.8877C34.6508 22.8806 34.6325 22.8769 34.6139 22.8772C34.595 22.877 34.5763 22.8806 34.5588 22.8877C34.542 22.8947 34.5267 22.905 34.5137 22.918C34.474 22.9594 34.4624 23.0212 34.4843 23.0746C34.491 23.0913 34.501 23.1066 34.5137 23.1193C34.5267 23.1322 34.542 23.1425 34.5588 23.1496C34.5762 23.1572 34.595 23.1609 34.6139 23.1608V23.1596ZM34.6139 22.8365C34.6623 22.8364 34.7088 22.8557 34.7434 22.8901C34.76 22.9067 34.7732 22.9264 34.7824 22.9482C34.8014 22.9933 34.8014 23.0445 34.7824 23.0897C34.773 23.1113 34.7598 23.131 34.7434 23.1477C34.7265 23.1641 34.7068 23.1774 34.6853 23.1868C34.6627 23.1965 34.6385 23.2015 34.6139 23.2014C34.5891 23.2015 34.5645 23.1966 34.5416 23.1868C34.5199 23.1776 34.5 23.1643 34.4831 23.1477C34.4667 23.1304 34.4536 23.11 34.4447 23.0878C34.4257 23.0426 34.4257 22.9914 34.4447 22.9463C34.4537 22.9245 34.467 22.9048 34.4837 22.8883C34.5004 22.8713 34.5202 22.858 34.5422 22.8491C34.565 22.8393 34.5897 22.8344 34.6145 22.8346L34.6139 22.8365ZM17.7442 22.183C17.7442 21.8605 17.9525 21.5954 18.2928 21.5954C18.618 21.5954 18.8375 21.849 18.8375 22.183C18.8375 22.5171 18.618 22.7707 18.2928 22.7707C17.9525 22.7707 17.7442 22.5057 17.7442 22.183ZM19.2082 22.183V21.265H18.815V21.4886C18.6903 21.3233 18.5012 21.2197 18.2439 21.2197C17.7371 21.2197 17.3394 21.6232 17.3394 22.1835C17.3394 22.7439 17.7369 23.1474 18.2439 23.1474C18.501 23.1474 18.6903 23.0435 18.815 22.8784V23.1013H19.2078V22.183H19.2082ZM32.4942 22.183C32.4942 21.8605 32.7024 21.5954 33.0428 21.5954C33.3684 21.5954 33.5875 21.849 33.5875 22.183C33.5875 22.5171 33.3684 22.7707 33.0428 22.7707C32.7025 22.7707 32.4942 22.5057 32.4942 22.183ZM33.9586 22.183V20.5281H33.565V21.4886C33.4403 21.3233 33.2512 21.2197 32.994 21.2197C32.4871 21.2197 32.0894 21.6232 32.0894 22.1835C32.0894 22.7439 32.4869 23.1474 32.994 23.1474C33.2512 23.1474 33.4403 23.0435 33.565 22.8784V23.1013H33.9586V22.183ZM24.0885 21.5765C24.3418 21.5765 24.5046 21.7378 24.5461 22.0217H23.6079C23.6499 21.7567 23.8084 21.5765 24.0885 21.5765H24.0885ZM24.0964 21.2187C23.5665 21.2187 23.1957 21.6101 23.1957 22.1825C23.1957 22.7662 23.5813 23.1464 24.1227 23.1464C24.395 23.1464 24.6445 23.0773 24.864 22.8891L24.6712 22.5934C24.5197 22.7164 24.3267 22.7854 24.1452 22.7854C23.8918 22.7854 23.6611 22.6663 23.6044 22.3358H24.947C24.9509 22.2862 24.9548 22.2361 24.9548 22.1824C24.9509 21.6102 24.6023 21.2186 24.0962 21.2186L24.0964 21.2187ZM28.8435 22.1824C28.8435 21.8598 29.0517 21.5948 29.392 21.5948C29.7173 21.5948 29.9367 21.8484 29.9367 22.1824C29.9367 22.5164 29.7173 22.7701 29.392 22.7701C29.0517 22.7701 28.8434 22.505 28.8434 22.1824H28.8435ZM30.3074 22.1824V21.265H29.9144V21.4886C29.7892 21.3233 29.6005 21.2197 29.3432 21.2197C28.8365 21.2197 28.4387 21.6232 28.4387 22.1835C28.4387 22.7439 28.8362 23.1474 29.3432 23.1474C29.6005 23.1474 29.7892 23.0435 29.9144 22.8784V23.1013H30.3075V22.183L30.3074 22.1824ZM26.623 22.1824C26.623 22.7392 27.0048 23.1462 27.5877 23.1462C27.86 23.1462 28.0415 23.0847 28.2377 22.9274L28.0488 22.6048C27.9012 22.7124 27.7462 22.7701 27.5751 22.7701C27.2612 22.7662 27.0304 22.5358 27.0304 22.1824C27.0304 21.829 27.2612 21.5988 27.5751 21.5948C27.7457 21.5948 27.9007 21.6523 28.0488 21.76L28.2377 21.4374C28.0411 21.28 27.8597 21.2186 27.5877 21.2186C27.0048 21.2186 26.623 21.6255 26.623 22.1824ZM31.692 21.2186C31.4652 21.2186 31.3175 21.3262 31.2153 21.4875V21.265H30.8256V23.1002H31.2192V22.0715C31.2192 21.7678 31.3478 21.599 31.6049 21.599C31.689 21.5977 31.7726 21.6135 31.8507 21.6452L31.972 21.269C31.885 21.2342 31.7715 21.2189 31.6918 21.2189L31.692 21.2186ZM21.1522 21.4109C20.9631 21.2843 20.7024 21.2189 20.4149 21.2189C19.9567 21.2189 19.6618 21.4418 19.6618 21.8065C19.6618 22.1057 19.8814 22.2903 20.2857 22.3479L20.4715 22.3747C20.6871 22.4055 20.7889 22.4631 20.7889 22.5667C20.7889 22.7087 20.6457 22.7897 20.3767 22.7897C20.1044 22.7897 19.9078 22.7013 19.7753 22.5976L19.5905 22.9088C19.8062 23.0701 20.0785 23.147 20.3735 23.147C20.8957 23.147 21.1983 22.8974 21.1983 22.5479C21.1983 22.2253 20.9601 22.0566 20.5666 21.999L20.3812 21.9717C20.211 21.9494 20.0747 21.9146 20.0747 21.7915C20.0747 21.6574 20.2032 21.5766 20.419 21.5766C20.6497 21.5766 20.8732 21.665 20.9827 21.734L21.1529 21.4113L21.1522 21.4109ZM26.2258 21.2192C25.999 21.2192 25.8512 21.327 25.7495 21.4882V21.265H25.3598V23.1002H25.753V22.0715C25.753 21.7678 25.8816 21.599 26.1387 21.599C26.2228 21.5977 26.3064 21.6135 26.3845 21.6452L26.5057 21.269C26.4187 21.2342 26.3052 21.2189 26.2256 21.2189L26.2258 21.2192ZM22.8704 21.265H22.2274V20.7082H21.8299V21.265H21.4632V21.6298H21.8299V22.467C21.8299 22.8928 21.9927 23.1464 22.4579 23.1464C22.6285 23.1464 22.8251 23.0928 22.9498 23.0045L22.8362 22.6628C22.7189 22.7318 22.5903 22.7666 22.4881 22.7666C22.2915 22.7666 22.2274 22.6436 22.2274 22.4594V21.6301H22.8704V21.265ZM16.9917 23.1007V21.9489C16.9917 21.5152 16.7193 21.2233 16.2803 21.2194C16.0495 21.2155 15.8114 21.2884 15.6447 21.5459C15.52 21.3424 15.3235 21.2194 15.0472 21.2194C14.854 21.2194 14.6653 21.2769 14.5175 21.4919V21.265H14.124V23.1002H14.5206V22.0826C14.5206 21.7641 14.6947 21.5948 14.9635 21.5948C15.2246 21.5948 15.3567 21.7675 15.3567 22.0786V23.1H15.7542V22.0824C15.7542 21.7638 15.9357 21.5946 16.1967 21.5946C16.4652 21.5946 16.5933 21.7673 16.5933 22.0784V23.0998L16.9917 23.1007Z" fill="#231F20"/>
    <path fill-rule="evenodd" clip-rule="evenodd" d="M34.8083 16.9962V16.7278H34.7394L34.6598 16.9119L34.5806 16.7278H34.5115V16.9962H34.5604V16.794L34.6349 16.9684H34.6856L34.76 16.7935V16.9962H34.8085H34.8083ZM34.3714 16.9962V16.7737H34.4596V16.7284H34.2344V16.7737H34.3225V16.9962H34.3714Z" fill="#F79410"/>
    <path fill-rule="evenodd" clip-rule="evenodd" d="M26.9822 18.1468H21.0234V7.27734H26.9824L26.9822 18.1468Z" fill="#FF5F00"/>
    <path fill-rule="evenodd" clip-rule="evenodd" d="M21.4006 12.7125C21.4006 10.5077 22.4178 8.54357 24.0015 7.2778C22.8029 6.31848 21.3195 5.79749 19.7931 5.79981C16.0321 5.79981 12.9834 8.89469 12.9834 12.7125C12.9834 16.5303 16.0321 19.6252 19.7931 19.6252C21.3195 19.6275 22.803 19.1065 24.0017 18.1472C22.418 16.8817 21.4006 14.9175 21.4006 12.7125Z" fill="#EB001B"/>
    <path fill-rule="evenodd" clip-rule="evenodd" d="M35.0207 12.7125C35.0207 16.5303 31.972 19.6252 28.2111 19.6252C26.6845 19.6274 25.2009 19.1065 24.002 18.1472C25.5862 16.8814 26.6034 14.9175 26.6034 12.7125C26.6034 10.5075 25.5862 8.54357 24.002 7.27779C25.2008 6.31848 26.6844 5.79756 28.211 5.79981C31.972 5.79981 35.0207 8.89469 35.0207 12.7125" fill="#F79410"/>
</svg>
