<svg width="48" height="29" viewBox="0 0 48 29" fill="none" xmlns="http://www.w3.org/2000/svg">
    <rect width="48" height="29" rx="2" fill="white"/>
    <path fill-rule="evenodd" clip-rule="evenodd" d="M14.7787 8V8.00568C14.7738 8.00568 13.2163 8 12.801 9.70871C12.4203 11.2755 11.3473 15.6012 11.3177 15.7204H11.021C11.021 15.7204 9.92335 11.2982 9.53769 9.70303C9.12236 7.99432 7.55994 8 7.55994 8H4V20.9998H7.55994V13.2794H7.70827H7.8566L9.93324 20.9998H12.4054L14.4821 13.2851H14.7787V20.9998H18.3387V8H14.7787Z" fill="#4DB45E"/>
    <path fill-rule="evenodd" clip-rule="evenodd" d="M27.7821 8C27.7821 8 26.7388 8.10786 26.2493 9.36243L23.7277 15.7204H23.431V8H19.8711V20.9998H23.2333C23.2333 20.9998 24.326 20.8863 24.8155 19.6374L27.2876 13.2794H27.5843V20.9998H31.1442V8H27.7821Z" fill="#4DB45E"/>
    <path fill-rule="evenodd" clip-rule="evenodd" d="M32.7266 13.9041V21H36.2865V16.856H40.1431C41.8242 16.856 43.2482 15.6241 43.7772 13.9041H32.7266Z" fill="#4DB45E"/>
    <path fill-rule="evenodd" clip-rule="evenodd" d="M40.1435 8H32.2275C32.6231 10.4751 34.2399 12.4619 36.3314 13.1091C36.806 13.2567 37.3054 13.3362 37.8196 13.3362H43.921C43.9753 13.041 44.0001 12.7401 44.0001 12.4279C44.0001 9.98119 42.2745 8 40.1435 8Z" fill="url(#paint0_linear)"/>
    <defs>
        <linearGradient id="paint0_linear" x1="32.2285" y1="10.6681" x2="44.0001" y2="10.6681" gradientUnits="userSpaceOnUse">
            <stop offset="0.3" stop-color="#00B4E6"/>
            <stop offset="1" stop-color="#088CCB"/>
        </linearGradient>
    </defs>
</svg>
