<svg width="48" height="29" viewBox="0 0 48 29" fill="none" xmlns="http://www.w3.org/2000/svg">
    <rect width="48" height="29" rx="2" fill="white"/>
    <path fill-rule="evenodd" clip-rule="evenodd" d="M24.5153 12.8115C24.4981 14.116 25.718 14.844 26.6368 15.2768C27.5809 15.7209 27.898 16.0057 27.8944 16.4028C27.8872 17.0106 27.1412 17.2788 26.4431 17.2893C25.2251 17.3075 24.517 16.9714 23.954 16.7172L23.5154 18.7017C24.0802 18.9534 25.1261 19.1729 26.2107 19.1824C28.7565 19.1824 30.4221 17.9676 30.4312 16.0841C30.4411 13.6937 27.0107 13.5613 27.0341 12.4928C27.0422 12.1689 27.3619 11.8231 28.0628 11.7352C28.4096 11.6908 29.3672 11.6568 30.4528 12.1401L30.8788 10.22C30.2951 10.0145 29.5447 9.81763 28.6105 9.81763C26.2143 9.81763 24.5288 11.049 24.5153 12.8115ZM34.9733 9.98307C34.5084 9.98307 34.1165 10.2452 33.9418 10.6475L30.305 19.0414H32.849L33.3553 17.6889H36.4641L36.7578 19.0414H39L37.0433 9.98307H34.9733ZM35.3291 12.4301L36.0632 15.8315H34.0526L35.3291 12.4301ZM21.4308 9.98307L19.4255 19.0414H21.8497L23.854 9.98307H21.4308ZM17.8445 9.98307L15.3212 16.1485L14.3005 10.9061C14.1808 10.321 13.7078 9.98307 13.1826 9.98307H9.05767L9 10.2461C9.84683 10.4237 10.8089 10.7102 11.3918 11.0168C11.7485 11.204 11.8503 11.3677 11.9674 11.8127L13.9006 19.0414H16.4627L20.3903 9.98307H17.8445Z" fill="#1A1F71"/>
</svg>
