<svg width="16" height="16" viewBox="0 0 16 16" fill="none" xmlns="http://www.w3.org/2000/svg">
    <path fill-rule="evenodd" clip-rule="evenodd" d="M4.52809 3.45368C5.01962 3.12525 5.59751 2.94995 6.18867 2.94995V2.95593H12.0001V4.54844H7.9973V7.43219H11.3688V9.02471H7.9973V13.1423H6.14653V4.82238C5.94031 4.83016 5.73996 4.89493 5.56791 5.00989C5.38417 5.13266 5.24096 5.30716 5.15639 5.51133C5.07182 5.71549 5.0497 5.94015 5.09281 6.15689C5.13592 6.37363 5.24234 6.57272 5.3986 6.72898L4.07515 8.05242C3.65714 7.63441 3.37247 7.10183 3.25714 6.52203C3.14181 5.94223 3.201 5.34125 3.42723 4.79509C3.65346 4.24892 4.03656 3.78211 4.52809 3.45368Z" fill="#49799A"/>
</svg>
