<svg width="16" height="16" viewBox="0 0 16 16" fill="none" xmlns="http://www.w3.org/2000/svg">
    <path d="M11.7543 4.69858C11.6765 4.65832 11.6006 4.61419 11.5272 4.56636C11.3135 4.42512 11.1176 4.25869 10.9437 4.07067C10.5086 3.57282 10.3461 3.06776 10.2863 2.71414H10.2887C10.2387 2.42062 10.2594 2.23071 10.2625 2.23071H8.28069V9.89392C8.28069 9.99681 8.28069 10.0985 8.27636 10.199C8.27636 10.2115 8.27516 10.223 8.27444 10.2365C8.27444 10.242 8.27444 10.2478 8.27324 10.2535V10.2579C8.25235 10.5328 8.16421 10.7984 8.01657 11.0313C7.86894 11.2642 7.66633 11.4573 7.42658 11.5935C7.1767 11.7356 6.89408 11.8102 6.6066 11.8098C5.68326 11.8098 4.93492 11.0569 4.93492 10.1271C4.93492 9.19727 5.68326 8.44436 6.6066 8.44436C6.78139 8.4442 6.95509 8.4717 7.12128 8.52585L7.12368 6.508C6.61919 6.44284 6.10666 6.48293 5.61844 6.62576C5.13022 6.76858 4.67689 7.01104 4.28706 7.33784C3.94548 7.63462 3.65831 7.98874 3.43848 8.38426C3.35482 8.5285 3.03919 9.10808 3.00097 10.0487C2.97693 10.5826 3.13727 11.1358 3.21371 11.3644V11.3692C3.26179 11.5038 3.44809 11.9632 3.75171 12.3505C3.99653 12.6611 4.28578 12.934 4.61015 13.1604V13.1556L4.61496 13.1604C5.57436 13.8123 6.63809 13.7695 6.63809 13.7695C6.82223 13.7621 7.43908 13.7695 8.13958 13.4375C8.91652 13.0695 9.35885 12.5212 9.35885 12.5212C9.64142 12.1935 9.86612 11.8201 10.0233 11.417C10.2026 10.9456 10.2625 10.3802 10.2625 10.1543V6.08876C10.2865 6.10318 10.6067 6.31497 10.6067 6.31497C10.6067 6.31497 11.068 6.61065 11.7878 6.80321C12.3041 6.94023 12.9998 6.96908 12.9998 6.96908V5.00171C12.7561 5.02815 12.2611 4.95123 11.7543 4.69858Z" fill="#49799A"/>
</svg>
