<svg width="16" height="16" viewBox="0 0 16 16" fill="none" xmlns="http://www.w3.org/2000/svg">
    <path d="M14.3862 4.57005C14.4795 4.26005 14.3862 4.03271 13.9448 4.03271H12.4828C12.1108 4.03271 11.9408 4.22938 11.8475 4.44538C11.8475 4.44538 11.1042 6.25805 10.0508 7.43338C9.71083 7.77538 9.5555 7.88338 9.37016 7.88338C9.2775 7.88338 9.14283 7.77538 9.14283 7.46538V4.57005C9.14283 4.19805 9.0355 4.03271 8.7255 4.03271H6.42816C6.19616 4.03271 6.05616 4.20471 6.05616 4.36871C6.05616 4.72071 6.58283 4.80205 6.63683 5.79405V7.94605C6.63683 8.41738 6.55216 8.50338 6.3655 8.50338C5.87016 8.50338 4.66483 6.68405 3.9495 4.60138C3.81016 4.19671 3.6695 4.03338 3.29616 4.03338H1.83483C1.41683 4.03338 1.3335 4.23005 1.3335 4.44605C1.3335 4.83405 1.82883 6.75405 3.64083 9.29338C4.84883 11.0274 6.5495 11.9674 8.09883 11.9674C9.0275 11.9674 9.14216 11.7587 9.14216 11.3987V10.088C9.14216 9.67071 9.23083 9.58671 9.52483 9.58671C9.74083 9.58671 10.1128 9.69605 10.9802 10.5314C11.9708 11.522 12.1348 11.9667 12.6915 11.9667H14.1528C14.5702 11.9667 14.7788 11.758 14.6588 11.346C14.5275 10.936 14.0542 10.3394 13.4262 9.63338C13.0848 9.23071 12.5748 8.79738 12.4195 8.58071C12.2028 8.30138 12.2655 8.17805 12.4195 7.93005C12.4202 7.93071 14.2008 5.42271 14.3862 4.57005Z" fill="#49799A"/>
</svg>
